SplineFontDB: 3.0
FontName: ManifontGroteskBook
FullName: Manifont Grotesk Book
FamilyName: Manifont Grotesk Book
Weight: Book
Copyright: Copyright (c) 2015 by interstices.io. All rights reserved.
Version: 001.001
ItalicAngle: 0
UnderlinePosition: -50
UnderlineWidth: 50
Ascent: 750
Descent: 250
InvalidEm: 0
sfntRevision: 0x00010000
LayerCount: 3
Layer: 0 0 "Back" 1
Layer: 1 0 "Fore" 0
Layer: 2 0 "Arri+AOgA-re" 1
XUID: [1021 814 -420952120 9553190]
FSType: 4
OS2Version: 2
OS2_WeightWidthSlopeOnly: 0
OS2_UseTypoMetrics: 1
CreationTime: 1251911182
ModificationTime: 1473951102
PfmFamily: 81
TTFWeight: 400
TTFWidth: 5
LineGap: 9
VLineGap: 0
Panose: 0 0 0 0 0 0 0 0 0 0
OS2TypoAscent: 750
OS2TypoAOffset: 0
OS2TypoDescent: -250
OS2TypoDOffset: 0
OS2TypoLinegap: 0
OS2WinAscent: 1035
OS2WinAOffset: 0
OS2WinDescent: 342
OS2WinDOffset: 0
HheadAscent: 750
HheadAOffset: 0
HheadDescent: -250
HheadDOffset: 0
OS2SubXSize: 700
OS2SubYSize: 650
OS2SubXOff: 0
OS2SubYOff: 140
OS2SupXSize: 700
OS2SupYSize: 650
OS2SupXOff: 0
OS2SupYOff: 477
OS2StrikeYSize: 50
OS2StrikeYPos: 250
OS2Vendor: 'pyrs'
OS2CodePages: 00000007.00000000
OS2UnicodeRanges: 8000020f.0000000a.00000000.00000000
Lookup: 4 0 0 "Ligature Substitution lookup 0" { "Ligature Substitution lookup 0-1"  } ['    ' ('DFLT' <'dflt' > 'cyrl' <'dflt' > 'latn' <'dflt' > ) 'liga' ('DFLT' <'dflt' > 'cyrl' <'dflt' > 'latn' <'dflt' > ) ]
Lookup: 258 0 0 "'kern' Horizontal Kerning in Latin lookup 0" { "'kern' Horizontal Kerning in Latin lookup 0 per glyph data 0"  "'kern' Horizontal Kerning in Latin lookup 0 per glyph data 1"  } ['kern' ('latn' <'dflt' > ) ]
MarkAttachClasses: 1
DEI: 91125

StartChar: uni0000
Encoding: 0 0 0
Width: 538
Flags: W
HStem: 0 21G<386 476> 451 69<20 94 184 386> 700.245 20G<407.567 471.273>
VStem: 94 90<109.185 451 520 700> 375.9 109.422<635.393 684.607> 386 90<0 451>
LayerCount: 3
Fore
SplineSet
476 520 m 1xf4
 476 0 l 1
 386 0 l 1
 386 451 l 1
 184 451 l 1
 184 152 l 1
 191.75390625 86.5361328125 l 1
 235.118164062 64.5673828125 l 1
 275.420898438 70.60546875 l 1
 285.801757812 -6.9580078125 l 1
 217.001953125 -16.5859375 l 1
 114.528320312 26.4404296875 l 1
 94 152 l 1
 94 451 l 1
 20 451 l 1
 20 520 l 1
 94 520 l 1
 94 700 l 1
 184 700 l 1
 184 520 l 1
 476 520 l 1xf4
453.432617188 600 m 1
 408.107421875 599.754882812 l 1
 375.900390625 634.799804688 l 1
 375.677734375 684.607421875 l 1
 407.567382812 720 l 1
 452.892578125 720.245117188 l 1
 485.099609375 685.200195312 l 1
 485.322265625 635.392578125 l 1xf8
 453.432617188 600 l 1
EndSplineSet
Validated: 1
LCarets2: 1 0
Ligature2: "Ligature Substitution lookup 0-1" t i
EndChar

StartChar: uni2196
Encoding: 8598 8598 1
Width: 736
Flags: W
LayerCount: 3
Fore
SplineSet
40 552.252929688 m 1
 83.783203125 596.036132812 l 1
 538.512695312 483.029296875 l 1
 518.211914062 399.372070312 l 1
 209.244140625 483.69921875 l 1
 706.571289062 -13.6279296875 l 1
 649.543945312 -70.6552734375 l 1
 152.564453125 426.32421875 l 1
 236.754882812 117.6328125 l 1
 153.09765625 97.3310546875 l 1
 40 552.252929688 l 1
EndSplineSet
Validated: 1
EndChar

StartChar: uni2197
Encoding: 8599 8599 2
Width: 746
Flags: W
LayerCount: 3
Fore
SplineSet
659.53515625 594.609375 m 1
 703.318359375 550.826171875 l 1
 590.311523438 96.0966796875 l 1
 506.654296875 116.397460938 l 1
 590.981445312 425.365234375 l 1
 93.654296875 -71.9619140625 l 1
 36.626953125 -14.9345703125 l 1
 533.606445312 482.044921875 l 1
 224.915039062 397.854492188 l 1
 204.61328125 481.51171875 l 1
 659.53515625 594.609375 l 1
EndSplineSet
Validated: 1
EndChar

StartChar: afii10069
Encoding: 1076 1076 4
Width: 583
Flags: HMW
HStem: -147 222<15 34 34 83.5 15 100 15 34 499 568> 0 75<152 409 15 100> 445 75<223 409 223 223>
VStem: 15 85<-147 0 -147 75 -147 75> 133 90<380 445 312.5 520> 409 90<75 445 445 445> 483 85<-147 0 0 0>
LayerCount: 3
Back
SplineSet
133 380 m 6x7a
 133 520 l 5
 499 520 l 5
 499 75 l 5
 568 75 l 5
 568 -147 l 5
 483 -147 l 5
 483 0 l 5
 100 0 l 5
 100 -147 l 5
 15 -147 l 5
 15 75 l 5xba
 34 75 l 6
 133 75 133 287 133 380 c 6x7a
152 75 m 5
 409 75 l 5
 409 445 l 5
 223 445 l 5xbc
 223 360 l 6
 223 265 215 126 152 75 c 5
EndSplineSet
Fore
SplineSet
133.193359375 520.048828125 m 5xb8
 499.146484375 520.048828125 l 5
 499.146484375 75.044921875 l 5
 568.185546875 75.044921875 l 5
 568.185546875 -147 l 5
 483.135742188 -147 l 5
 483.135742188 0.001953125 l 5
 100 0.001953125 l 5
 100 -147 l 5
 14.951171875 -147 l 5
 14.951171875 75.044921875 l 5
 48.876953125 75.044921875 l 5
 133.193359375 224.408203125 l 5
 133.193359375 520.048828125 l 5xb8
223.24609375 445.09375 m 5
 223.236328125 200.728515625 l 5
 152.2890625 75.048828125 l 5
 409.094726562 75.048828125 l 5
 409.094726562 445.09375 l 5
 223.24609375 445.09375 l 5
EndSplineSet
Validated: 1
Colour: ffff00
EndChar

StartChar: afii10070
Encoding: 1077 1077 5
Width: 544
Flags: HMW
HStem: -15 75<240.5 308.5 240.5 329.5> 237 72<128 413 128 508 125 413> 460 75<242 315>
VStem: 35 90<237 237 237 346> 413 96<309 309>
LayerCount: 3
Back
SplineSet
508 237 m 5
 125 237 l 5
 133 112 203 60 278 60 c 4
 339 60 399 98 417 176 c 5
 502 158 l 5
 472 42 386 -15 273 -15 c 4
 129 -15 35 88 35 260 c 4
 35 432 129 535 273 535 c 4
 430 535 509 421 509 270 c 4
 509 267 509 244 508 237 c 5
273 460 m 4
 211 460 144 415 128 309 c 5
 413 309 l 5
 409 397 357 460 273 460 c 4
EndSplineSet
Fore
SplineSet
174.46484375 98.9150390625 m 1
 278.149414062 56.44140625 l 1
 365.399414062 85.7744140625 l 1
 419.926757812 174.744140625 l 1
 490 131 l 1
 421.6171875 23.7744140625 l 1
 273.046875 -20.1025390625 l 1
 96.6025390625 54.349609375 l 1
 30.3173828125 260.388671875 l 1
 96.6025390625 466.427734375 l 1
 273.046875 540.879882812 l 1
 453.446289062 463.494140625 l 1
 513 273 l 0
 507.77734375 236.919921875 l 1
 122.000976562 236.915039062 l 1
 174.46484375 98.9150390625 l 1
125 309 m 1
 416 309 l 1
 374.999023438 421.139648438 l 1
 272.961914062 464.505859375 l 1
 181.481445312 428.028320312 l 1
 125 309 l 1
EndSplineSet
Validated: 1
Colour: ffff00
EndChar

StartChar: afii10072
Encoding: 1078 1078 6
Width: 722
Flags: HMW
HStem: 0 21G<20 125 20 20 316 406 316 316 597 597 597 702> 225 75<289 316 309 316 406 413> 437 83<41 59 59 66 41 59 663 681>
VStem: 316 90<0 225 0 225 300 520>
LayerCount: 3
Back
SplineSet
406 225 m 5
 406 0 l 5
 316 0 l 5
 316 225 l 5
 309 225 l 6
 269 225 236 209 210 160 c 6
 125 0 l 5
 20 0 l 5
 116 173 l 6
 147 224 176 253 214 262 c 5
 214 266 l 5
 175 276 155 312 131 372 c 4
 116 410 113 437 66 437 c 6
 41 437 l 5
 41 520 l 5
 59 520 l 6
 117 520 149 517 179 468 c 4
 189 452 221 376 233 348 c 4
 253 302 279 300 309 300 c 6
 316 300 l 5
 316 520 l 5
 406 520 l 5
 406 300 l 5
 413 300 l 6
 443 300 469 302 489 348 c 4
 501 376 533 452 543 468 c 4
 573 517 605 520 663 520 c 6
 681 520 l 5
 681 437 l 5
 656 437 l 6
 609 437 606 410 591 372 c 4
 567 312 547 276 508 266 c 5
 508 262 l 5
 546 253 575 224 606 173 c 6
 702 0 l 5
 597 0 l 5
 512 160 l 6
 486 209 453 225 413 225 c 6
 406 225 l 5
EndSplineSet
Fore
SplineSet
405.833007812 225.155273438 m 1
 406.083984375 0.109375 l 1
 316.365234375 0.076171875 l 1
 316.365234375 225.122070312 l 1
 268 225 l 1
 228 193 l 1
 121.171875 -7.923828125 l 1
 40 36 l 1
 148 225 l 1
 214.139648438 262.059570312 l 1
 160.127929688 314.131835938 l 1
 111.497070312 417.282226562 l 1
 82.2314453125 430.58984375 l 1
 41.271484375 437.09375 l 1
 53.271484375 520.057617188 l 1
 128.1484375 512.63671875 l 1
 177.991210938 469.1953125 l 1
 234.244140625 346.75 l 1
 268 300 l 1
 316.032226562 300.040039062 l 1
 316.032226562 520 l 1
 406 520 l 1
 406 300.040039062 l 1
 454 300 l 5
 487.755859375 346.75 l 5
 544.008789062 469.1953125 l 5
 593.8515625 512.63671875 l 5
 668.728515625 520.057617188 l 5
 680.728515625 437.09375 l 5
 639.768554688 430.58984375 l 5
 610.502929688 417.282226562 l 5
 561.872070312 314.131835938 l 5
 507.860351562 262.059570312 l 5
 574 225 l 5
 682 36 l 5
 600.828125 -7.923828125 l 5
 494 193 l 5
 454 225 l 5
 405.833007812 225.155273438 l 1
EndSplineSet
Validated: 1
EndChar

StartChar: afii10073
Encoding: 1079 1079 7
Width: 479
Flags: HMW
HStem: -15 72<208.5 279.5 208.5 297> 463 72<208.5 267.5>
VStem: 192 232<235 432 303 432> 334 90<359 404.5> 356 88<120 178 91 190>
LayerCount: 3
Back
SplineSet
192 235 m 5xc8
 192 303 l 5
 226 304 256 304 263 305 c 4
 304 311 334 338 334 380 c 4xe0
 334 429 297 463 238 463 c 4
 179 463 138 422 129 361 c 5
 49 384 l 5
 68 481 140 535 239 535 c 4
 344 535 424 482 424 382 c 4
 424 334 400 293 351 275 c 5
 406 260 444 211 444 145 c 4xd0
 444 37 348 -15 246 -15 c 4
 128 -15 54 41 35 146 c 5
 118 164 l 5
 133 101 170 57 247 57 c 4
 312 57 356 92 356 148 c 4
 356 232 280 235 242 235 c 6
 192 235 l 5xc8
EndSplineSet
Fore
SplineSet
191.833984375 303.0390625 m 1xe0
 264 303 l 1
 314.825195312 330.426757812 l 1
 335.408203125 382.399414062 l 1
 309.041992188 443.431640625 l 1
 237.515625 467.0234375 l 1
 162.790039062 438.328125 l 1
 128.963867188 360.989257812 l 1
 54 394 l 1
 110.984375 500.618164062 l 1
 238.366210938 540.505859375 l 1
 372.9140625 500.711914062 l 1
 427.08984375 384.440429688 l 1
 408.634765625 318.400390625 l 1
 352.671875 275.323242188 l 1
 421.104492188 228.51171875 l 1
 443.895507812 145.032226562 l 1
 385.575195312 19.828125 l 1
 245.510742188 -20.4765625 l 1
 100.03515625 21.4521484375 l 1
 44 128 l 1
 117.874023438 164.04296875 l 1
 157.091796875 83.4873046875 l 1
 246.616210938 53.005859375 l 1
 327.083007812 78.0009765625 l 1
 357.860351562 145.793945312 l 1
 314.272460938 222.26171875 l 1
 264 235 l 1
 192 235 l 1
 191.833984375 303.0390625 l 1xe0
EndSplineSet
Validated: 1
EndChar

StartChar: afii10074
Encoding: 1080 1080 8
Width: 560
Flags: HMW
HStem: 0 21G<65 65 65 162 405 405 405 495> 500 20G<65 155 155 155 398 495 495 495>
VStem: 65 90<123 520 123 520 123 520> 405 90<0 394 394 394>
LayerCount: 3
Back
SplineSet
65 0 m 5
 65 520 l 5
 155 520 l 5
 155 123 l 5
 398 520 l 5
 495 520 l 5
 495 0 l 5
 405 0 l 5
 405 394 l 5
 162 0 l 5
 65 0 l 5
EndSplineSet
Fore
SplineSet
65 0 m 5
 65 520 l 5
 155 520 l 5
 155 123 l 5
 398 520 l 5
 495 520 l 5
 495 0 l 5
 405 0 l 5
 405 394 l 5
 162 0 l 5
 65 0 l 5
EndSplineSet
Validated: 1
EndChar

StartChar: afii10075
Encoding: 1081 1081 9
Width: 560
Flags: HMW
HStem: 0 21G<69 69 69 166 409 409 409 499> 500 20G<69 159 159 159 402 499 499 499> 573 71<265 313 265 339> 573 147<147 339>
VStem: 69 90<123 520 123 520 123 520> 409 90<0 394 394 394>
LayerCount: 3
Back
SplineSet
371 720 m 1xdc
 431 720 l 1
 431 635 385 573 285 573 c 0
 185 573 143 636 143 720 c 1
 203 720 l 1
 208 670 237 644 285 644 c 0
 333 644 366 670 371 720 c 1xdc
65 0 m 5
 65 520 l 5
 155 520 l 5
 155 123 l 5
 398 520 l 5
 495 520 l 5xdc
 495 0 l 5xec
 405 0 l 5
 405 394 l 5
 162 0 l 5
 65 0 l 5
EndSplineSet
Fore
SplineSet
201.509765625 721.466796875 m 1029
65.0029296875 519.965820312 m 1,0,-1
 155.0546875 519.965820312 l 1,1,-1
 155.0546875 122.987304688 l 1,2,-1
 398.02734375 519.965820312 l 1,3,-1
 495 519.965820312 l 1,4,-1
 495 0 l 1,5,-1
 405.03125 0 l 1,6,-1
 405.03125 394.059570312 l 1,7,-1
 162.05859375 0 l 1,8,-1
 65.0029296875 0 l 1,9,-1
 65.0029296875 519.965820312 l 1,0,-1
423.700195312 698.009765625 m 5,10,-1
 397.780273438 613.965820312 l 5,11,-1
 285.111328125 571.526367188 l 5,12,-1
 174.452148438 614.381835938 l 5,13,-1
 148.299804688 698.009765625 l 5,14,-1
 201.509765625 721.466796875 l 5,15,-1
 226.94921875 663.548828125 l 5,16,-1
 286.73828125 644.430664062 l 5,17,-1
 345.401367188 663.548828125 l 5,18,-1
 372.711914062 721.466796875 l 5,19,-1
 423.700195312 698.009765625 l 5,10,-1
EndSplineSet
Validated: 1
EndChar

StartChar: afii10076
Encoding: 1082 1082 10
Width: 506
Flags: HMW
HStem: 0 21G<65 65 65 155 391 391 391 496> 225 75<155 197 197 207 155 197> 442 83<424.5 473 455 473 455 473> 500 20G<65 155 155 155>
VStem: 65 90<0 225 300 520>
LayerCount: 3
Back
SplineSet
65 0 m 5xe8
 65 520 l 5
 155 520 l 5
 155 300 l 5
 197 300 l 6
 227 300 260 307 285 348 c 4
 302 376 331 452 340 468 c 4
 368 517 397 525 455 525 c 6
 473 525 l 5
 473 442 l 5
 448 442 l 6
 401 442 398 410 383 372 c 4
 359 312 331 279 292 269 c 5
 292 265 l 5
 330 256 371 225 400 173 c 6
 496 0 l 5
 391 0 l 5
 306 160 l 6
 279 207 247 225 207 225 c 6
 155 225 l 5
 155 0 l 5xd8
 65 0 l 5xe8
EndSplineSet
Fore
SplineSet
249 300 m 5xd8
 282.755859375 346.75 l 5
 339.008789062 469.1953125 l 5
 388.8515625 512.63671875 l 5
 463.728515625 520.057617188 l 5
 475.728515625 437.09375 l 5
 434.768554688 430.58984375 l 5
 405.502929688 417.282226562 l 5
 356.872070312 314.131835938 l 5
 302.860351562 262.059570312 l 5
 369 225 l 5
 477 36 l 5
 395.828125 -7.923828125 l 5
 289 193 l 5
 249 225 l 5
 154.7578125 225 l 5
 154.7578125 0 l 5
 65 0 l 5
 65.083984375 520 l 5
 108.958984375 520.04296875 l 5
 154.842773438 520.04296875 l 5
 154.842773438 300 l 5
 249 300 l 5xd8
EndSplineSet
Validated: 1
Colour: ffff00
EndChar

StartChar: afii10077
Encoding: 1083 1083 11
Width: 570
Flags: HMW
HStem: -15 83<57 152.5> 0 21G<25 25 415 505 415 415> 445 75<219 415 219 219>
VStem: 25 194<0 287 79 287> 129 90<307 445> 415 90<0 445 445 445>
LayerCount: 3
Back
SplineSet
129 307 m 6xac
 129 520 l 5
 505 520 l 5
 505 0 l 5x6c
 415 0 l 5
 415 445 l 5xb4
 219 445 l 5
 219 287 l 6
 219 157 219 -15 86 -15 c 4
 57 -15 34 -5 25 0 c 5x74
 25 79 l 5
 36 73 50 68 64 68 c 4
 133 67 129 214 129 307 c 6xac
EndSplineSet
Fore
SplineSet
128.896484375 520.006835938 m 1x64
 505 519.96484375 l 1
 505 0 l 1
 415.032226562 0 l 1
 415.032226562 445.005859375 l 1
 219.002929688 445.005859375 l 1
 219.0859375 184.97265625 l 1
 205.926757812 87.6220703125 l 1
 165.60546875 12.8046875 l 1
 84.8505859375 -16.681640625 l 1
 24.951171875 0.0419921875 l 1
 43 74 l 1
 62.568359375 67.984375 l 1
 102.592773438 92.1806640625 l 1
 122.071289062 153.926757812 l 1
 128.98046875 230.306640625 l 1
 128.896484375 520.006835938 l 1x64
EndSplineSet
Validated: 1
EndChar

StartChar: afii10078
Encoding: 1084 1084 12
Width: 687
Flags: HMW
HStem: 0 21G<65 65 65 155 302 302 302 381 532 532 532 622> 500 20G<65 206 206 206 494 622 622 622>
VStem: 65 90<0 438 0 520 0 520> 532 90<0 418 418 418>
LayerCount: 3
Back
SplineSet
65 0 m 5
 65 520 l 5
 206 520 l 5
 343 104 l 5
 494 520 l 5
 622 520 l 5
 622 0 l 5
 532 0 l 5
 532 418 l 5
 381 0 l 5
 302 0 l 5
 155 438 l 5
 155 0 l 5
 65 0 l 5
EndSplineSet
Fore
SplineSet
65 0 m 5
 65 520 l 5
 206 520 l 5
 343 104 l 5
 494 520 l 5
 622 520 l 5
 622 0 l 5
 532 0 l 5
 532 418 l 5
 381 0 l 5
 302 0 l 5
 155 438 l 5
 155 0 l 5
 65 0 l 5
EndSplineSet
Validated: 1
EndChar

StartChar: afii10079
Encoding: 1085 1085 13
Width: 555
Flags: HMW
HStem: 0 21G<65 65 65 155 400 400 400 490> 225 75<155 400 155 400> 500 20G<65 155 155 155 400 490 490 490>
VStem: 65 90<0 225 300 520> 400 90<0 225 225 225 300 520 0 520>
LayerCount: 3
Back
SplineSet
65 0 m 5
 65 520 l 5
 155 520 l 5
 155 300 l 5
 400 300 l 5
 400 520 l 5
 490 520 l 5
 490 0 l 5
 400 0 l 5
 400 225 l 5
 155 225 l 5
 155 0 l 5
 65 0 l 5
EndSplineSet
Fore
SplineSet
65 0 m 5
 65 520 l 5
 155 520 l 5
 155 300 l 5
 400 300 l 5
 400 520 l 5
 490 520 l 5
 490 0 l 5
 400 0 l 5
 400 225 l 5
 155 225 l 5
 155 0 l 5
 65 0 l 5
EndSplineSet
Validated: 1
Colour: ffff00
EndChar

StartChar: afii10080
Encoding: 1086 1086 14
Width: 556
Flags: HMW
HStem: -15 75<238.5 317.5 238.5 350> 460 75<238.5 317.5>
VStem: 35 90<189 331 189 346> 431 90<189 331>
LayerCount: 3
Back
SplineSet
35 260 m 4
 35 432 134 535 278 535 c 4
 422 535 521 432 521 260 c 4
 521 88 422 -15 278 -15 c 4
 134 -15 35 88 35 260 c 4
125 260 m 4
 125 118 199 60 278 60 c 4
 357 60 431 118 431 260 c 4
 431 402 357 460 278 460 c 4
 199 460 125 402 125 260 c 4
EndSplineSet
Fore
SplineSet
277.971679688 540.5 m 5
 457.07421875 466.047851562 l 5
 525.889648438 260.008789062 l 5
 457.010742188 54.00390625 l 5
 277.971679688 -20.482421875 l 5
 98.9765625 53.9697265625 l 5
 30.1396484375 260.008789062 l 5
 98.9443359375 466.047851562 l 5
 277.971679688 540.5 l 5
277.971679688 55.9765625 m 5
 386.282226562 103.637695312 l 5
 434.12109375 259.923828125 l 5
 386.282226562 416.251953125 l 5
 277.971679688 463.956054688 l 5
 169.780273438 416.251953125 l 5
 121.9921875 259.923828125 l 5
 169.747070312 103.637695312 l 5
 277.971679688 55.9765625 l 5
EndSplineSet
Validated: 1
Colour: ffff00
EndChar

StartChar: afii10081
Encoding: 1087 1087 15
Width: 550
Flags: HMW
HStem: 0 21G<65 65 65 155 395 395 395 485> 445 75<155 395 155 155>
VStem: 65 90<0 445 0 520 0 520> 395 90<0 445 445 445>
LayerCount: 3
Back
SplineSet
65 0 m 5
 65 520 l 5
 485 520 l 5
 485 0 l 5
 395 0 l 5
 395 445 l 5
 155 445 l 5
 155 0 l 5
 65 0 l 5
EndSplineSet
Fore
SplineSet
65 0 m 5
 65 520 l 5
 485 520 l 5
 485 0 l 5
 395 0 l 5
 395 445 l 5
 155 445 l 5
 155 0 l 5
 65 0 l 5
EndSplineSet
Validated: 1
EndChar

StartChar: afii10082
Encoding: 1088 1088 16
Width: 550
Flags: HMW
HStem: -200 21G<65 155 65 65> -15 75<261 326.5 247.5 364> 460 60 460 75<257.5 326.5>
VStem: 65 79<194 326 194 520> 425 90<194 326>
LayerCount: 3
Back
SplineSet
155 -200 m 5xdc
 65 -200 l 5
 65 520 l 5
 145 520 l 5
 145 449 l 5
 175 499 223 535 292 535 c 4
 436 535 515 422 515 260 c 4
 515 98 436 -15 292 -15 c 4
 230 -15 185 13 155 55 c 5
 155 -200 l 5xdc
144 260 m 4
 144 128 208 60 287 60 c 4
 366 60 425 128 425 260 c 4xec
 425 392 366 460 287 460 c 4
 218 460 144 392 144 260 c 4
EndSplineSet
Fore
SplineSet
65 -200 m 5xdc
 65 520 l 5
 145 520 l 5
 145 449 l 5
 206.607421875 518.111328125 l 5
 294.734375 542.349609375 l 5
 463.715820312 464.071289062 l 5
 522.41015625 261.859375 l 5
 463.715820312 59.6474609375 l 5
 294.734375 -18.6318359375 l 5
 211.407226562 2.1455078125 l 5
 155 55 l 5
 155 -200 l 5
 65 -200 l 5xdc
289.631835938 57.8271484375 m 5
 390.244140625 109.315429688 l 5
 430.387695312 261.774414062 l 5
 390.244140625 414.275390625 l 5
 289.631835938 465.806640625 l 5
 190.327148438 414.275390625 l 5
 143.772460938 261.774414062 l 5
 186.499023438 109.315429688 l 5
 289.631835938 57.8271484375 l 5
EndSplineSet
Validated: 1
Colour: ffff00
EndChar

StartChar: afii10083
Encoding: 1089 1089 17
Width: 524
Flags: HMW
HStem: -15 75<233.5 303.5 233.5 329> 460 75<233.5 303.5>
VStem: 35 90<189 331 189 346>
LayerCount: 3
Back
SplineSet
125 260 m 4
 125 118 194 60 273 60 c 4
 334 60 383 95 402 177 c 5
 489 157 l 5
 461 48 385 -15 273 -15 c 4
 129 -15 35 88 35 260 c 4
 35 432 129 535 273 535 c 4
 385 535 461 471 489 362 c 5
 402 342 l 5
 383 425 334 460 273 460 c 4
 194 460 125 402 125 260 c 4
EndSplineSet
Fore
SplineSet
273.384765625 55.9765625 m 5
 355.116210938 84.2548828125 l 5
 404.955078125 175.299804688 l 5
 481.41015625 134.540039062 l 5
 415.639648438 25.5205078125 l 5
 273.384765625 -20.482421875 l 5
 96.833984375 53.9697265625 l 5
 30.5703125 260.008789062 l 5
 96.8974609375 466.047851562 l 5
 273.384765625 540.5 l 5
 415.639648438 493.944335938 l 5
 482.4296875 382.399414062 l 5
 404.955078125 343.612304688 l 5
 355.1796875 435.591796875 l 5
 273.384765625 464.041015625 l 5
 167.66796875 416.336914062 l 5
 122.422851562 260.008789062 l 5
 167.66796875 103.680664062 l 5
 273.384765625 55.9765625 l 5
EndSplineSet
Validated: 1
Colour: ffff00
EndChar

StartChar: afii10084
Encoding: 1090 1090 18
Width: 464
Flags: HMW
HStem: -1 21G<187 277 187 187> 445 75<20 444 20 187 277 277 277 444>
VStem: 187 90<-1 445 -1 445>
LayerCount: 3
Back
SplineSet
20 445 m 5
 20 520 l 5
 444 520 l 5
 444 445 l 5
 277 445 l 5
 277 -1 l 5
 187 -1 l 5
 187 445 l 5
 20 445 l 5
EndSplineSet
Fore
SplineSet
20 445 m 5
 20 520 l 5
 444 520 l 5
 444 445 l 5
 277 445 l 5
 277 -1 l 5
 187 -1 l 5
 187 445 l 5
 20 445 l 5
EndSplineSet
Validated: 1
Colour: ffff00
EndChar

StartChar: afii10085
Encoding: 1091 1091 19
Width: 500
Flags: HMW
HStem: -210 79<109.5 121.5 94.5 160.5> 500 20G<10 103 103 103 402 490 490 490>
LayerCount: 3
Back
SplineSet
61 -200 m 5
 51 -122 l 5
 68 -128 87 -131 102 -131 c 4
 141 -131 167 -110 189 -58 c 6
 212 5 l 5
 10 520 l 5
 103 520 l 5
 254 115 l 5
 402 520 l 5
 490 520 l 5
 276 -56 l 6
 242 -147 203 -210 118 -210 c 4
 101 -210 80 -207 61 -200 c 5
EndSplineSet
Fore
SplineSet
106 -132 m 5
 152.963867188 -112.497070312 l 5
 191.5 -51.4365234375 l 5
 212.116210938 5.037109375 l 5
 19 498 l 5
 100 528 l 5
 254.056640625 115.017578125 l 5
 405 528 l 5
 482 498 l 5
 275.240234375 -57.53125 l 5
 216.19140625 -167.111328125 l 5
 117.978515625 -210.002929688 l 5
 60.9462890625 -200.080078125 l 5
 77 -127 l 5
 106 -132 l 5
EndSplineSet
Validated: 1
Colour: ffff00
EndChar

StartChar: afii10086
Encoding: 1092 1092 20
Width: 820
Flags: HMW
HStem: -200 21G<365 455 365 365> -15 75<210 267 553 610> 460 75<210 272.5 166 281 547.5 610> 715 20G<455 455>
VStem: 35 90<194 326 194 336> 365 90<-200 55 459 695 695 695> 695 90<194 326>
CounterMasks: 1 0e
LayerCount: 3
Back
SplineSet
454 260 m 4
 454 128 496 60 572 60 c 4
 648 60 695 128 695 260 c 4
 695 392 648 460 572 460 c 4
 506 460 454 392 454 260 c 4
366 260 m 4
 366 392 314 460 248 460 c 4
 172 460 125 392 125 260 c 4
 125 128 172 60 248 60 c 4
 324 60 366 128 366 260 c 4
455 -200 m 5
 365 -200 l 5
 365 55 l 5
 346 20 298 -15 236 -15 c 4
 97 -15 35 108 35 260 c 4
 35 412 94 535 238 535 c 4
 307 535 351 491 365 459 c 5
 365 695 l 5
 455 735 l 5
 455 459 l 5
 469 491 513 535 582 535 c 4
 726 535 785 412 785 260 c 4
 785 108 723 -15 584 -15 c 4
 522 -15 474 20 455 55 c 5
 455 -200 l 5
EndSplineSet
Fore
SplineSet
365.03125 -200 m 1
 365.03125 54.98046875 l 1
 312.368164062 1.1689453125 l 1
 232.4765625 -20.4765625 l 1
 76.826171875 61.6298828125 l 1
 27.5087890625 260.014648438 l 1
 75.943359375 458.399414062 l 1
 234.602539062 540.505859375 l 1
 321.9765625 512.116210938 l 1
 365.03125 458.961914062 l 1
 365.03125 728.014648438 l 1
 455 727.954101562 l 1
 455 458.961914062 l 1
 501.940429688 514.694335938 l 1
 585.34375 540.505859375 l 1
 744.044921875 458.399414062 l 1
 792.522460938 260.014648438 l 1
 743.163085938 61.6298828125 l 1
 587.470703125 -20.4765625 l 1
 503.526367188 3.5322265625 l 1
 455 54.98046875 l 1
 455 -200 l 1
 365.03125 -200 l 1
244.723632812 464.046875 m 1
 152.87109375 412.515625 l 1
 119.717773438 257.625 l 1
 152.807617188 107.556640625 l 1
 244.723632812 56.0673828125 l 1
 333.950195312 107.556640625 l 1
 372.521484375 262.396484375 l 5
 330.123046875 412.515625 l 1
 244.723632812 464.046875 l 1
575.22265625 56.0673828125 m 1
 666.969726562 107.556640625 l 1
 700.143554688 262.404296875 l 1
 667.034179688 412.515625 l 1
 575.22265625 464.046875 l 1
 489.758789062 412.515625 l 1
 447.368164062 257.616210938 l 1
 485.96484375 107.556640625 l 1
 575.22265625 56.0673828125 l 1
EndSplineSet
Validated: 1
EndChar

StartChar: afii10087
Encoding: 1093 1093 21
Width: 517
Flags: HMW
HStem: 0 21G<20 124 20 20 391 391 391 497> 500 20G<32 140 140 140 381 483 483 483>
LayerCount: 3
Back
SplineSet
124 0 m 5
 20 0 l 5
 205 266 l 5
 32 520 l 5
 140 520 l 5
 260 332 l 5
 381 520 l 5
 483 520 l 5
 307 269 l 5
 497 0 l 5
 391 0 l 5
 257 200 l 5
 124 0 l 5
EndSplineSet
Fore
SplineSet
119 -8 m 5
 49 40.75 l 5
 205 266 l 5
 59 481 l 5
 134 528 l 5
 260 332 l 5
 387 528 l 5
 456 481 l 5
 307 269 l 5
 468 41 l 5
 396 -8 l 5
 257 200 l 5
 119 -8 l 5
EndSplineSet
Validated: 1
Colour: ffff00
EndChar

StartChar: afii10088
Encoding: 1094 1094 22
Width: 569
Flags: HMW
HStem: -147 222<485 554 155 554 155 469> 0 75<155 395 155 469> 500 20G<65 155 155 155 395 485 485 485>
VStem: 65 90<75 520 75 520 75 520> 395 90<75 520 75 520> 469 85<-147 0 0 0>
LayerCount: 3
Back
SplineSet
65 0 m 5xb4
 65 520 l 5
 155 520 l 5
 155 75 l 5x78
 395 75 l 5
 395 520 l 5
 485 520 l 5xb8
 485 75 l 5
 554 75 l 5
 554 -147 l 5
 469 -147 l 5
 469 0 l 5
 65 0 l 5xb4
EndSplineSet
Fore
SplineSet
65 0 m 5xb4
 65 520 l 5
 155 520 l 5
 155 75 l 5x78
 395 75 l 5
 395 520 l 5
 485 520 l 5xb8
 485 75 l 5
 554 75 l 5
 554 -147 l 5
 469 -147 l 5
 469 0 l 5
 65 0 l 5xb4
EndSplineSet
Validated: 1
Colour: ffff00
EndChar

StartChar: afii10089
Encoding: 1095 1095 23
Width: 510
Flags: HMW
HStem: 0 21G<355 445 355 355> 174 73<194.5 245.5> 500 20G<40 130 130 130 355 445 445 445>
VStem: 40 90<373 410 410 520> 355 90<0 219 219 219 284 520 0 520>
LayerCount: 3
Back
SplineSet
40 373 m 6
 40 520 l 5
 130 520 l 5
 130 410 l 6
 130 312 143 247 246 247 c 4
 279 247 312 256 355 284 c 5
 355 520 l 5
 445 520 l 5
 445 0 l 5
 355 0 l 5
 355 219 l 5
 314 185 269 174 222 174 c 4
 94 174 40 253 40 373 c 6
EndSplineSet
Fore
SplineSet
129.95703125 519.96484375 m 1
 130.624023438 406.083007812 l 1
 148.46484375 292.915039062 l 5
 247.068359375 247.252929688 l 5
 301.270507812 256.6171875 l 5
 355.032226562 283.99609375 l 1
 355.032226562 519.96484375 l 1
 445 519.96484375 l 1
 445 0 l 1
 355.032226562 0 l 1
 355.032226562 218.958984375 l 1
 291.50390625 182.513671875 l 5
 221.322265625 173.243164062 l 5
 80.7880859375 228.330078125 l 5
 39.9345703125 374.28125 l 1
 39.9345703125 519.96484375 l 1
 129.95703125 519.96484375 l 1
EndSplineSet
Validated: 1
EndChar

StartChar: afii10090
Encoding: 1096 1096 24
Width: 766
Flags: HMW
HStem: 0 75<155 338 428 611> 500 20G<65 155 155 155 338 428 428 428 611 701 701 701>
VStem: 65 90<75 520 75 520 75 520> 338 90<75 520 75 520> 611 90<75 520 0 520>
CounterMasks: 1 38
LayerCount: 3
Back
SplineSet
65 0 m 5
 65 520 l 5
 155 520 l 5
 155 75 l 5
 338 75 l 5
 338 520 l 5
 428 520 l 5
 428 75 l 5
 611 75 l 5
 611 520 l 5
 701 520 l 5
 701 0 l 5
 65 0 l 5
EndSplineSet
Fore
SplineSet
65 0 m 5
 65 520 l 5
 155 520 l 5
 155 75 l 5
 338 75 l 5
 338 520 l 5
 428 520 l 5
 428 75 l 5
 611 75 l 5
 611 520 l 5
 701 520 l 5
 701 0 l 5
 65 0 l 5
EndSplineSet
Validated: 1
Colour: ffff00
EndChar

StartChar: afii10091
Encoding: 1097 1097 25
Width: 785
Flags: HMW
HStem: -147 222<701 770> 0 75<155 338 428 611> 500 20G<65 155 155 155 338 428 428 428 611 701 701 701>
VStem: 65 90<75 520 75 520 75 520> 338 90<75 520 75 520> 611 90<75 520 75 520> 685 85<-147 0 0 0>
LayerCount: 3
Back
SplineSet
701 520 m 5x7a
 701 75 l 5
 770 75 l 5
 770 -147 l 5
 685 -147 l 5
 685 0 l 5
 65 0 l 5
 65 520 l 5
 155 520 l 5
 155 75 l 5
 338 75 l 5
 338 520 l 5xbc
 428 520 l 5
 428 75 l 5xba
 611 75 l 5
 611 520 l 5
 701 520 l 5x7a
EndSplineSet
Fore
SplineSet
701 520 m 5x7a
 701 75 l 5
 770 75 l 5
 770 -147 l 5
 685 -147 l 5
 685 0 l 5
 65 0 l 5
 65 520 l 5
 155 520 l 5
 155 75 l 5
 338 75 l 5
 338 520 l 5xbc
 428 520 l 5
 428 75 l 5xba
 611 75 l 5
 611 520 l 5
 701 520 l 5x7a
EndSplineSet
Validated: 1
Colour: ffff00
EndChar

StartChar: afii10092
Encoding: 1098 1098 26
Width: 578
Flags: HMW
HStem: 0 72<234 337 337 366> 243 72<234 336 234 336 336 346> 447 73<20 234 20 144>
VStem: 20 214<447 520> 144 90<72 243 315 447 447 447> 456 92<126 188>
LayerCount: 3
Back
SplineSet
20 447 m 5xf4
 20 520 l 5
 234 520 l 5
 234 315 l 5
 336 315 l 6
 447 315 548 284 548 157 c 4
 548 42 452 0 366 0 c 6
 144 0 l 5xec
 144 447 l 5
 20 447 l 5xf4
234 243 m 5xf4
 234 72 l 5
 337 72 l 6
 410 72 456 95 456 157 c 4
 456 219 411 243 346 243 c 6
 234 243 l 5xf4
EndSplineSet
Fore
SplineSet
20 520 m 1xf4
 233.873046875 520 l 1
 233.873046875 315.048828125 l 1
 338.831054688 314.21484375 l 1
 483.5546875 285.9296875 l 5
 549.212890625 156.775390625 l 5
 489.284179688 32.72265625 l 5
 364.383789062 -0.181640625 l 1
 143.904296875 -0.181640625 l 1
 143.904296875 446.82421875 l 1
 20 446.82421875 l 1
 20 520 l 1xf4
233.873046875 71.9931640625 m 1
 339.743164062 72.826171875 l 1
 422.458007812 90.087890625 l 5
 455.234375 157.19140625 l 5
 424.03125 224.805664062 l 5
 342.97265625 243.283203125 l 1
 233.873046875 243.283203125 l 1
 233.873046875 71.9931640625 l 1
EndSplineSet
Validated: 1
EndChar

StartChar: afii10093
Encoding: 1099 1099 27
Width: 695
Flags: HMW
HStem: 0 72<155 258 258 287> 243 72<155 257 155 257 257 267> 500 20G<65 155 155 155 540 630 630 630>
VStem: 65 90<72 243 315 520> 377 92<126 188> 540 90<0 520 0 520>
LayerCount: 3
Back
SplineSet
540 0 m 5
 540 520 l 5
 630 520 l 5
 630 0 l 5
 540 0 l 5
65 0 m 5
 65 520 l 5
 155 520 l 5
 155 315 l 5
 257 315 l 6
 368 315 469 284 469 157 c 4
 469 42 373 0 287 0 c 6
 65 0 l 5
155 243 m 5
 155 72 l 5
 258 72 l 6
 331 72 377 95 377 157 c 4
 377 219 332 243 267 243 c 6
 155 243 l 5
EndSplineSet
Fore
SplineSet
65.0546875 520.240234375 m 1
 155.106445312 520.240234375 l 1
 155.106445312 315.206054688 l 1
 260.169921875 314.372070312 l 1
 404.788085938 286.111328125 l 5
 470.446289062 156.95703125 l 5
 410.5078125 32.904296875 l 5
 285.479492188 0 l 1
 65.0546875 0 l 1
 65.0546875 520.240234375 l 1
155.106445312 72.2333984375 m 1
 260.998046875 73.06640625 l 1
 343.680664062 90.26171875 l 5
 376.467773438 157.322265625 l 5
 345.265625 224.936523438 l 5
 264.098632812 243.415039062 l 1
 155.106445312 243.415039062 l 1
 155.106445312 72.2333984375 l 1
540.161132812 520.240234375 m 1
 630.12890625 520.240234375 l 1
 630.12890625 0.19140625 l 1
 540.161132812 0.19140625 l 1
 540.161132812 520.240234375 l 1
EndSplineSet
Validated: 1
EndChar

StartChar: afii10094
Encoding: 1100 1100 28
Width: 499
Flags: HMW
HStem: 0 72<155 258 258 287> 243 72<155 257 155 257 257 267> 500 20G<65 155 155 155>
VStem: 65 90<72 243 315 520> 377 92<126 188>
LayerCount: 3
Back
SplineSet
65 0 m 5
 65 520 l 5
 155 520 l 5
 155 315 l 5
 257 315 l 6
 368 315 469 284 469 157 c 4
 469 42 373 0 287 0 c 6
 65 0 l 5
155 243 m 5
 155 72 l 5
 258 72 l 6
 331 72 377 95 377 157 c 4
 377 219 332 243 267 243 c 6
 155 243 l 5
EndSplineSet
Fore
SplineSet
65.0546875 520.33203125 m 1
 155.106445312 520.33203125 l 1
 155.106445312 315.297851562 l 1
 259.658203125 314.463867188 l 1
 404.705078125 286.112304688 l 5
 470.36328125 156.95703125 l 5
 410.424804688 32.904296875 l 5
 285.614257812 0 l 1
 65.0546875 0 l 1
 65.0546875 520.33203125 l 1
155.106445312 72.3251953125 m 1
 260.487304688 73.158203125 l 1
 343.59765625 90.45703125 l 5
 376.383789062 157.517578125 l 5
 345.181640625 225.131835938 l 5
 264.453125 243.606445312 l 1
 155.106445312 243.606445312 l 1
 155.106445312 72.3251953125 l 1
EndSplineSet
Validated: 1
EndChar

StartChar: afii10095
Encoding: 1101 1101 29
Width: 524
Flags: HMW
HStem: -15 75<220.5 287 220.5 323> 225 75<205 397 205 397> 460 75<228 292>
LayerCount: 3
Back
SplineSet
205 225 m 5
 205 300 l 5
 397 300 l 5
 385 413 323 460 261 460 c 4
 195 460 146 425 127 342 c 5
 40 362 l 5
 68 471 144 535 261 535 c 4
 405 535 489 432 489 260 c 4
 489 88 395 -15 251 -15 c 4
 139 -15 63 48 35 157 c 5
 122 177 l 5
 141 95 190 60 251 60 c 4
 323 60 387 108 397 225 c 5
 205 225 l 5
EndSplineSet
Fore
SplineSet
205.083984375 300.04296875 m 5
 397.110351562 300.04296875 l 5
 348.762695312 425.662109375 l 5
 260.333984375 464.052734375 l 5
 173.977539062 435.603515625 l 5
 127.122070312 341.984375 l 5
 50 380 l 5
 113.581054688 493.956054688 l 5
 260.333984375 540.51171875 l 5
 431.6640625 466.059570312 l 5
 492.772460938 260.020507812 l 5
 426.455078125 53.9814453125 l 5
 250.041992188 -20.470703125 l 5
 107.723632812 25.5322265625 l 5
 46 138 l 5
 122.036132812 176.97265625 l 5
 168.151367188 84.2666015625 l 5
 250.041992188 55.98828125 l 5
 348.200195312 95.400390625 l 5
 397.02734375 225 l 5
 205 225 l 5
 205.083984375 300.04296875 l 5
EndSplineSet
Validated: 1
EndChar

StartChar: afii10096
Encoding: 1102 1102 30
Width: 761
Flags: HMW
HStem: -15 75<455.5 530.5 455.5 561.5> 0 21G<65 65 65 155> 225 75<155 261 155 261> 460 75<455.5 530.5> 500 20G<65 155 155 155>
VStem: 65 90<0 225 300 520> 261 89<225 225 300 300> 636 90<189 331>
LayerCount: 3
Back
SplineSet
65 0 m 5x77
 65 520 l 5
 155 520 l 5x6f
 155 300 l 5
 261 300 l 5
 274 448 367 535 493 535 c 4
 630 535 726 432 726 260 c 4
 726 88 630 -15 493 -15 c 4xb7
 365 -15 273 74 261 225 c 5
 155 225 l 5
 155 0 l 5
 65 0 l 5x77
350 260 m 4
 350 118 418 60 493 60 c 4
 568 60 636 118 636 260 c 4
 636 402 568 460 493 460 c 4xb7
 418 460 350 402 350 260 c 4
EndSplineSet
Fore
SplineSet
64.9482421875 520.1328125 m 1x67
 155 520.1328125 l 1
 155 300.088867188 l 1
 260.977539062 300.088867188 l 1
 330.608398438 477.33203125 l 5
 492.041015625 540.557617188 l 5
 663.361328125 466.10546875 l 5
 729.752929688 260.06640625 l 5
 663.361328125 54.02734375 l 5
 492.041015625 -20.4248046875 l 5
 329.427734375 44.2041015625 l 5
 260.977539062 225.045898438 l 1
 155 225.045898438 l 1
 155 0 l 1
 64.9482421875 0 l 1
 64.9482421875 520.1328125 l 1x67
492.125976562 56.119140625 m 5
 593.844726562 103.780273438 l 5
 638.155273438 260.06640625 l 5
 593.908203125 416.39453125 l 5
 492.125976562 464.098632812 l 5
 390.588867188 416.39453125 l 5
 346.267578125 260.06640625 l 5
 390.555664062 103.780273438 l 5
 492.125976562 56.119140625 l 5
EndSplineSet
Validated: 1
EndChar

StartChar: afii10097
Encoding: 1103 1103 31
Width: 534
Flags: HMW
HStem: 0 21G<20 129 20 20 379 469 379 379> 201 73<298 338 338 379> 445 75<248 266 266 379>
VStem: 59 94<324 387.5 324 417.5> 379 90<0 201 201 201 274 445 445 445>
LayerCount: 3
Back
SplineSet
248 520 m 6
 469 520 l 5
 469 0 l 5
 379 0 l 5
 379 201 l 5
 338 201 l 6
 258 201 227 171 194 113 c 6
 129 0 l 5
 20 0 l 5
 93 124 l 6
 124 176 159 213 198 219 c 5
 110 227 59 278 59 365 c 4
 59 470 139 520 248 520 c 6
379 274 m 5
 379 445 l 5
 266 445 l 6
 183 445 153 413 153 362 c 4
 153 286 218 274 292 274 c 6
 379 274 l 5
EndSplineSet
Fore
SplineSet
244 201 m 1
 124 -8 l 1
 43 38 l 1
 154 228 l 5
 94.822265625 260.206054688 l 1
 57.65625 364.8671875 l 1
 112.342773438 484.071289062 l 1
 249.4140625 520.015625 l 1
 469 520.015625 l 1
 469 0 l 1
 379.03125 0 l 1
 379.03125 201.032226562 l 1
 244 201 l 1
379.03125 445.005859375 m 1
 264.71875 445.005859375 l 1
 179.48828125 423.984375 l 1
 153.67578125 362.1875 l 1
 196.211914062 288.196289062 l 1
 298 274.333007812 l 1
 379.198242188 274.333007812 l 1
 379.03125 445.005859375 l 1
EndSplineSet
Validated: 1
EndChar

StartChar: afii10017
Encoding: 1040 1040 32
Width: 675
Flags: HMW
HStem: 0 21G<10 107 10 10 562 665 562 562> 175 85<205 466 205 497 173 466> 700 20G<290 387 387 387>
LayerCount: 3
Back
SplineSet
290 720 m 5
 387 720 l 5
 665 0 l 5
 562 0 l 5
 497 175 l 5
 173 175 l 5
 107 0 l 5
 10 0 l 5
 290 720 l 5
338 611 m 5
 205 260 l 5
 466 260 l 5
 338 611 l 5
EndSplineSet
Fore
SplineSet
167 159 m 6
 104 -8 l 5
 19 24 l 5
 290 720 l 5
 387 720 l 5
 656 23.8330078125 l 5
 565 -8 l 5
 504 156 l 6
 497 175 l 5
 173 175 l 5
 167 159 l 6
466 260 m 5
 338 611 l 5
 205 260 l 5
 466 260 l 5
EndSplineSet
Validated: 1
Colour: ffff00
EndChar

StartChar: afii10018
Encoding: 1041 1041 33
Width: 657
Flags: HMW
HStem: 0 85<175 330> 345 85<175 338 175 338 338 340> 635 85<175 563 175 175>
VStem: 80 95<85 345 430 635> 509 98<160 257.5>
LayerCount: 3
Back
SplineSet
80 720 m 5
 563 720 l 5
 563 635 l 5
 175 635 l 5
 175 430 l 5
 338 430 l 6
 517 430 607 356 607 211 c 4
 607 46 475 0 330 0 c 6
 80 0 l 5
 80 720 l 5
175 345 m 5
 175 85 l 5
 338 85 l 6
 433 85 509 106 509 214 c 4
 509 301 453 345 340 345 c 6
 175 345 l 5
EndSplineSet
Fore
SplineSet
562.860351562 719.99609375 m 1
 562.860351562 635.314453125 l 1
 174.887695312 635.314453125 l 1
 174.887695312 430.36328125 l 1
 336.877929688 430.387695312 l 5
 540.833984375 377.622070312 l 1
 609.66015625 210.526367188 l 1
 523.823242188 39.783203125 l 1
 328.192382812 0 l 1
 80 0 l 1
 80 719.99609375 l 1
 562.860351562 719.99609375 l 1
174.720703125 85.33203125 m 1
 341.149414062 86.166015625 l 1
 458.602539062 106.9375 l 1
 509.471679688 214.022460938 l 1
 466.490234375 314.08984375 l 1
 335.2578125 344.633789062 l 5
 174.720703125 345.456054688 l 1
 174.720703125 85.33203125 l 1
EndSplineSet
Validated: 1
EndChar

StartChar: afii10019
Encoding: 1042 1042 34
Width: 674
Flags: HMW
HStem: 0 85<175 353 175 353> 325 85<175 330 175 330 330 340> 635 85<175 175 175 318>
VStem: 80 95<85 325 410 635> 493 98<499 570> 523 101<159 250.5 132 256.5>
LayerCount: 3
Back
SplineSet
353 0 m 6xf4
 80 0 l 5
 80 720 l 5
 339 720 l 6
 485 720 591 661 591 533 c 4
 591 465 560 402 481 376 c 5
 567 355 624 293 624 208 c 4
 624 56 516 0 353 0 c 6xf4
175 635 m 5xf8
 175 410 l 5xf4
 330 410 l 6
 413 410 493 433 493 521 c 4
 493 619 412 635 318 635 c 6
 175 635 l 5xf8
175 325 m 5
 175 85 l 5
 353 85 l 6xf8
 451 85 523 110 523 208 c 4
 523 305 433 325 340 325 c 6
 175 325 l 5
EndSplineSet
Fore
SplineSet
78.55859375 -0.28125 m 1xf0
 78.55859375 720.201171875 l 1
 341.805664062 720.201171875 l 1
 526.084960938 680.772460938 l 1
 598.737304688 536.435546875 l 1
 572.89453125 440.323242188 l 1
 480.643554688 376.2890625 l 1
 592.498046875 315.063476562 l 1
 632.586914062 204.916015625 l 1
 556.702148438 40.677734375 l 1
 356.178710938 -0.28125 l 1
 78.55859375 -0.28125 l 1xf0
174.4296875 410.07421875 m 1
 332.534179688 410.07421875 l 1
 447.362304688 434.028320312 l 1
 498.720703125 524.274414062 l 1
 445.44921875 619.877929688 l 1
 320.288085938 634.536132812 l 1
 174.259765625 634.536132812 l 1
 174.4296875 410.07421875 l 1
174.4296875 84.5537109375 m 1
 356.178710938 84.5537109375 l 1
 480.318359375 104.8046875 l 1
 529.5078125 205.000976562 l 1
 471.770507812 301.786132812 l 1
 342.911132812 325.32421875 l 1
 174.598632812 325.32421875 l 1
 174.4296875 84.5537109375 l 1
EndSplineSet
Validated: 1
Colour: ffff00
EndChar

StartChar: afii10020
Encoding: 1043 1043 35
Width: 553
Flags: HMW
HStem: 0 21G<80 80 80 175> 635 85<175 533 175 175>
VStem: 80 95<0 635 0 720 0 720>
LayerCount: 3
Back
SplineSet
80 0 m 5
 80 720 l 5
 533 720 l 5
 533 635 l 5
 175 635 l 5
 175 0 l 5
 80 0 l 5
EndSplineSet
Fore
SplineSet
80 0 m 5
 80 720 l 5
 533 720 l 5
 533 635 l 5
 175 635 l 5
 175 0 l 5
 80 0 l 5
EndSplineSet
Validated: 1
Colour: ffff00
EndChar

StartChar: afii10021
Encoding: 1044 1044 36
Width: 742
Flags: HMW
HStem: -199 21G<10 105 10 10 607 702 607 607> 0 84<159 531 10 105> 635 85<257 531 257 257>
VStem: 10 95<-199 0 -199 84 -199 84> 162 95<512 563 563 635 472.5 720> 531 95<84 635 635 635> 607 95<-199 0 0 0>
LayerCount: 3
Back
SplineSet
162 512 m 6xfc
 162 720 l 5
 626 720 l 5
 626 84 l 5
 702 84 l 5
 702 -199 l 5
 607 -199 l 5
 607 0 l 5
 105 0 l 5
 105 -199 l 5
 10 -199 l 5
 10 84 l 5
 38 84 l 6xfa
 153 84 162 349 162 512 c 6xfc
531 84 m 5
 531 635 l 5
 257 635 l 5
 257 563 l 6xfc
 257 382 251 128 159 84 c 5
 531 84 l 5
EndSplineSet
Fore
SplineSet
531.047851562 82.6953125 m 1xf8
 531.043945312 633.678710938 l 1
 257.158203125 633.686523438 l 5
 257.141601562 271.770507812 l 5
 159.133789062 82.7119140625 l 5
 531.047851562 82.6953125 l 1xf8
161.8671875 294.850585938 m 5
 162.034179688 719.986328125 l 5
 626.21875 719.986328125 l 1
 626.219726562 83.9462890625 l 1
 701.791015625 82.4453125 l 1
 701.7109375 -200.500976562 l 1
 607.0390625 -199 l 1
 607.04296875 0.0224609375 l 1
 105.004882812 0.0224609375 l 1
 105 -199 l 1
 9.951171875 -199.0078125 l 1
 9.9482421875 82.6787109375 l 1
 51.7958984375 82.6787109375 l 5
 161.8671875 294.850585938 l 5
EndSplineSet
Validated: 1
Colour: ffff00
EndChar

StartChar: afii10022
Encoding: 1045 1045 37
Width: 657
Flags: HMW
HStem: 0 85<175 587 175 587> 325 85<175 527 175 527> 635 85<175 577 175 175>
VStem: 80 95<85 325 410 635>
LayerCount: 3
Back
SplineSet
587 0 m 5
 80 0 l 5
 80 720 l 5
 577 720 l 5
 577 635 l 5
 175 635 l 5
 175 410 l 5
 527 410 l 5
 527 325 l 5
 175 325 l 5
 175 85 l 5
 587 85 l 5
 587 0 l 5
EndSplineSet
Fore
SplineSet
587 0 m 5
 80 0 l 5
 80 720 l 5
 577 720 l 5
 577 635 l 5
 175 635 l 5
 175 410 l 5
 527 410 l 5
 527 325 l 5
 175 325 l 5
 175 85 l 5
 587 85 l 5
 587 0 l 5
EndSplineSet
Validated: 1
Colour: ffff00
EndChar

StartChar: afii10024
Encoding: 1046 1046 38
Width: 1025
Flags: HMW
HStem: 0 21G<40 157 40 40 465 560 465 465 868 868 868 985> 325 85<385.5 465 431 465 431 465 560 594 594 596> 633 87<64 80 64 111 928.5 945 945 961>
VStem: 465 95<0 325 0 325 410 720>
LayerCount: 3
Back
SplineSet
560 325 m 5
 560 0 l 5
 465 0 l 5
 465 325 l 5
 429 325 l 6
 342 325 313 300 258 194 c 6
 157 0 l 5
 40 0 l 5
 174 238 l 6
 216 313 273 361 324 368 c 5
 279 379 243 434 229 463 c 6
 178 570 l 6
 149 631 113 633 80 633 c 6
 64 633 l 5
 64 720 l 5
 111 720 l 6
 173 720 208 697 253 611 c 6
 329 464 l 6
 353 418 385 410 431 410 c 6
 465 410 l 5
 465 720 l 5
 560 720 l 5
 560 410 l 5
 594 410 l 6
 640 410 672 418 696 464 c 6
 772 611 l 6
 817 697 852 720 914 720 c 6
 961 720 l 5
 961 633 l 5
 945 633 l 6
 912 633 876 631 847 570 c 6
 796 463 l 6
 782 434 746 379 701 368 c 5
 752 361 809 313 851 238 c 6
 985 0 l 5
 868 0 l 5
 767 194 l 6
 712 300 683 325 596 325 c 6
 560 325 l 5
EndSplineSet
Fore
SplineSet
693.831054688 460.53125 m 1
 836.345703125 695.766601562 l 1
 894 719 l 1
 950 720 l 1
 962.03515625 632.963867188 l 1
 900.274414062 625.125976562 l 1
 868.454101562 593.2578125 l 1
 763.844726562 412.6875 l 1
 702.333007812 368 l 1
 794 332 l 1
 964 39 l 1
 872 -8 l 1
 712 296 l 1
 622 325 l 1
 559.666015625 324.8203125 l 1
 560 0.05859375 l 1
 465.028320312 0 l 1
 465.028320312 325.020507812 l 1
 404 325 l 1
 314 296 l 1
 154 -8 l 1
 62 39 l 1
 232 332 l 1
 323.666992188 368 l 1
 262.155273438 412.6875 l 1
 157.545898438 593.2578125 l 1
 125.725585938 625.125976562 l 1
 63.96484375 632.963867188 l 1
 76 720 l 1
 132 719 l 1
 189.654296875 695.766601562 l 1
 332.168945312 460.53125 l 1
 402 410 l 1
 464.862304688 410.002929688 l 1
 464.862304688 720.013671875 l 1
 559.833007812 720.013671875 l 1
 559.833007812 410.002929688 l 1
 624 410 l 1
 693.831054688 460.53125 l 1
EndSplineSet
Validated: 1
EndChar

StartChar: afii10025
Encoding: 1047 1047 39
Width: 630
Flags: HMW
HStem: -15 80<266.5 354 266.5 383> 325 85<255 330 255 330> 655 80<260.5 342.5>
VStem: 453 94<495.5 570.5> 483 97<150.5 245.5 128.5 257>
LayerCount: 3
Back
SplineSet
255 325 m 5xe8
 255 410 l 5
 330 410 l 6
 407 410 453 462 453 529 c 4
 453 612 377 655 308 655 c 4
 213 655 163 596 149 507 c 5
 60 524 l 5
 79 652 171 735 309 735 c 4
 436 735 547 666 547 533 c 4
 547 456 505 400 442 376 c 5
 532 360 580 286 580 205 c 4xf0
 580 52 450 -15 316 -15 c 4
 181 -15 66 49 40 202 c 5
 127 226 l 5
 144 121 217 65 316 65 c 4
 392 65 483 95 483 206 c 4
 483 308 395 325 330 325 c 6
 255 325 l 5xe8
EndSplineSet
Fore
SplineSet
254.833007812 409.791015625 m 1xe0
 331.603515625 410.624023438 l 1
 421.463867188 446.041015625 l 1
 454.749023438 532.331054688 l 1
 407.17578125 628.317382812 l 1
 306.849609375 660.83984375 l 1
 194.797851562 619.38671875 l 1
 148.938476562 506.938476562 l 1
 68 540 l 1
 135.487304688 683.768554688 l 1
 308.0390625 742.401367188 l 1
 477.9140625 690.275390625 l 1
 550.76953125 536.413085938 l 1
 521.311523438 436.055664062 l 1
 443.692382812 376.266601562 l 1
 548.483398438 313.890625 l 1
 584.448242188 201.831054688 l 1
 501.005859375 31.1298828125 l 1
 315.18359375 -22.52734375 l 1
 132.690429688 29.6416015625 l 1
 48 187 l 1
 126.842773438 226.026367188 l 1
 187.28125 101.083007812 l 1
 315.18359375 59.119140625 l 1
 429.373046875 88.5458984375 l 1
 485.452148438 202.9375 l 1
 432.275390625 302.622070312 l 1
 324.498046875 325 l 1
 255 325 l 1
 254.833007812 409.791015625 l 1xe0
EndSplineSet
Validated: 1
EndChar

StartChar: afii10026
Encoding: 1048 1048 40
Width: 724
Flags: HMW
HStem: 0 21G<80 185 80 80 547 547 547 642> 700 20G<80 175 175 175 537 642 642 642>
VStem: 80 95<145 720 145 720 145 720> 547 95<0 580 580 580>
LayerCount: 3
Back
SplineSet
185 0 m 5
 80 0 l 5
 80 720 l 5
 175 720 l 5
 175 145 l 5
 537 720 l 5
 642 720 l 5
 642 0 l 5
 547 0 l 5
 547 580 l 5
 185 0 l 5
EndSplineSet
Fore
SplineSet
185 0 m 5
 80 0 l 5
 80 720 l 5
 175 720 l 5
 175 145 l 5
 537 720 l 5
 642 720 l 5
 642 0 l 5
 547 0 l 5
 547 580 l 5
 185 0 l 5
EndSplineSet
Validated: 1
Colour: ffff00
EndChar

StartChar: afii10027
Encoding: 1049 1049 41
Width: 722
Flags: HMW
HStem: 0 21G<80 185 80 80 547 547 547 642> 700 20G<80 175 175 175 537 642 642 642> 753 81<328 396 328 422> 753 167<190 422>
VStem: 80 95<145 720 145 720 145 720> 547 95<0 580 580 580>
LayerCount: 3
Back
SplineSet
468 920 m 1xdc
 538 920 l 1
 538 835 482 753 362 753 c 0
 242 753 190 836 190 920 c 1
 260 920 l 1
 265 870 294 834 362 834 c 0
 430 834 463 870 468 920 c 1xdc
185 0 m 5
 80 0 l 5
 80 720 l 5
 175 720 l 5
 175 145 l 5
 537 720 l 5xdc
 642 720 l 5xec
 642 0 l 5
 547 0 l 5
 547 580 l 5
 185 0 l 5
EndSplineSet
Fore
SplineSet
530.280273438 895.149414062 m 5xcc
 496.583007812 803.994140625 l 5
 360.918945312 751.348632812 l 5
 227.37109375 804.376953125 l 5
 195.719726562 895.149414062 l 5
 256.904296875 921.701171875 l 5
 284.842773438 858.680664062 l 5
 363.196289062 834.62890625 l 5
 439.163085938 858.680664062 l 5
 469.100585938 921.701171875 l 5
 530.280273438 895.149414062 l 5xcc
185 0 m 1
 80 0 l 1
 80 720 l 1
 175 720 l 1
 175 145 l 1
 537 720 l 1
 642 720 l 1
 642 0 l 1
 547 0 l 1
 547 580 l 1
 185 0 l 1
EndSplineSet
Validated: 1
Colour: ffff00
EndChar

StartChar: afii10028
Encoding: 1050 1050 42
Width: 670
Flags: HMW
HStem: 0 21G<80 80 80 175 513 513 513 630> 325 85<175 211 175 229> 700 20G<80 175 175 175 559 606 606 606>
VStem: 80 95<0 325 410 720>
LayerCount: 3
Back
SplineSet
80 0 m 5
 80 720 l 5
 175 720 l 5
 175 410 l 5
 229 410 l 6
 275 410 305 419 331 464 c 6
 417 611 l 6
 466 695 497 720 559 720 c 6
 606 720 l 5
 606 633 l 5
 590 633 l 6
 557 633 525 629 492 570 c 6
 431 463 l 6
 415 435 381 379 336 368 c 5
 387 361 441 311 486 238 c 6
 630 0 l 5
 513 0 l 5
 402 194 l 6
 340 296 298 325 211 325 c 6
 175 325 l 5
 175 0 l 5
 80 0 l 5
EndSplineSet
Fore
SplineSet
176 410 m 1
 264 410 l 1
 333.831054688 460.53125 l 1
 476.345703125 695.766601562 l 1
 534 719 l 1
 590 720 l 1
 602.03515625 632.963867188 l 1
 540.274414062 625.125976562 l 1
 508.454101562 593.2578125 l 1
 403.844726562 412.6875 l 1
 342.333007812 368 l 1
 434 332 l 1
 604 39 l 1
 512 -8 l 1
 352 296 l 1
 262 325 l 1
 175 325 l 1
 175 0 l 1
 80 0 l 1
 80 720 l 1
 175 720 l 1
 176 410 l 1
EndSplineSet
Validated: 1
Colour: ffff00
EndChar

StartChar: afii10029
Encoding: 1051 1051 43
Width: 1072
Flags: HMW
HStem: -15 90<69.5 110.5 50.5 176.5> 0 21G<15 15 541 636 541 541> 635 85<242 541 242 242>
VStem: 12 230 147 95<412 463 463 635> 541 95<0 635 635 635>
LayerCount: 3
Back
SplineSet
147 412 m 6xac
 147 720 l 5
 636 720 l 5
 636 0 l 5
 541 0 l 5x6c
 541 635 l 5xb4
 242 635 l 5
 242 463 l 6
 242 241 268 -15 85 -15 c 4
 54 -15 34 -8 15 0 c 5x74
 10 92 l 5
 22 85 38 75 63 75 c 4
 158 75 147 249 147 412 c 6xac
EndSplineSet
Fore
SplineSet
241.428710938 635.03125 m 1x64
 242.637695312 294.694335938 l 1
 233.569335938 141.9453125 l 1
 187.270507812 27.4365234375 l 1
 83.4892578125 -16.900390625 l 1
 14.5 0 l 1
 34.5 84 l 1
 60.9521484375 75.037109375 l 1
 115.25 105.365234375 l 1
 140.173828125 184.572265625 l 1
 146.611328125 290.80859375 l 1
 146.374023438 719.997070312 l 1
 636 719.997070312 l 1
 636 0 l 1
 540.9453125 0 l 1
 540.9453125 635.03125 l 1
 241.428710938 635.03125 l 1x64
EndSplineSet
Validated: 1
Colour: ffff00
EndChar

StartChar: afii10030
Encoding: 1052 1052 44
Width: 863
Flags: HMW
HStem: 0 21G<80 175 80 80 389 389 389 474 688 688 688 783> 700 20G<80 219 219 219 652 783 783 783>
VStem: 80 95<0 598> 688 95<0 598 598 598>
LayerCount: 3
Back
SplineSet
175 0 m 5
 80 0 l 5
 80 720 l 5
 219 720 l 5
 433 123 l 5
 652 720 l 5
 783 720 l 5
 783 0 l 5
 688 0 l 5
 688 598 l 5
 474 0 l 5
 389 0 l 5
 175 598 l 5
 175 0 l 5
EndSplineSet
Fore
SplineSet
175 0 m 5
 80 0 l 5
 80 720 l 5
 219 720 l 5
 433 123 l 5
 652 720 l 5
 783 720 l 5
 783 0 l 5
 688 0 l 5
 688 598 l 5
 474 0 l 5
 389 0 l 5
 175 598 l 5
 175 0 l 5
EndSplineSet
Validated: 1
Colour: ffff00
EndChar

StartChar: afii10031
Encoding: 1053 1053 45
Width: 722
Flags: HMW
HStem: 0 21G<80 175 80 80 547 547 547 642> 325 85<175 547 175 547> 700 20G<80 175 175 175 547 642 642 642>
VStem: 80 95<0 325 410 720> 547 95<0 325 325 325 410 720 0 720>
LayerCount: 3
Back
SplineSet
175 0 m 5
 80 0 l 5
 80 720 l 5
 175 720 l 5
 175 410 l 5
 547 410 l 5
 547 720 l 5
 642 720 l 5
 642 0 l 5
 547 0 l 5
 547 325 l 5
 175 325 l 5
 175 0 l 5
EndSplineSet
Fore
SplineSet
175 0 m 5
 80 0 l 5
 80 720 l 5
 175 720 l 5
 175 410 l 5
 547 410 l 5
 547 720 l 5
 642 720 l 5
 642 0 l 5
 547 0 l 5
 547 325 l 5
 175 325 l 5
 175 0 l 5
EndSplineSet
Validated: 1
Colour: ffff00
EndChar

StartChar: afii10032
Encoding: 1054 1054 46
Width: 785
Flags: HMW
HStem: -15 80<313 467.5 313 502.5> 655 80<318 467.5>
VStem: 50 100<276.5 443.5 276.5 463.5> 635 100<276.5 443.5>
LayerCount: 3
Back
SplineSet
50 360 m 4
 50 567 173 735 393 735 c 4
 612 735 735 567 735 360 c 4
 735 153 612 -15 393 -15 c 4
 173 -15 50 153 50 360 c 4
150 360 m 4
 150 193 233 65 393 65 c 4
 542 65 635 193 635 360 c 4
 635 527 542 655 393 655 c 4
 243 655 150 527 150 360 c 4
EndSplineSet
Fore
SplineSet
392.956054688 742.5 m 5
 651.184570312 630.415039062 l 5
 741.911132812 359.950195312 l 5
 651.184570312 89.5625 l 5
 392.956054688 -22.513671875 l 5
 133.885742188 89.5625 l 5
 43.1494140625 359.950195312 l 5
 133.916992188 630.415039062 l 5
 392.956054688 742.5 l 5
392.956054688 59.1328125 m 5
 573.322265625 145.703125 l 5
 639.766601562 360.03515625 l 5
 573.322265625 574.3671875 l 5
 392.956054688 660.9375 l 5
 211.588867188 574.3671875 l 5
 145.038085938 360.03515625 l 5
 207.793945312 145.703125 l 5
 392.956054688 59.1328125 l 5
EndSplineSet
Validated: 1
Colour: ffff00
EndChar

StartChar: afii10033
Encoding: 1055 1055 47
Width: 712
Flags: HMW
HStem: 0 21G<80 175 80 80 537 537 537 632> 635 85<175 537 175 175>
VStem: 80 95<0 635> 537 95<0 635 635 635>
LayerCount: 3
Back
SplineSet
175 0 m 5
 80 0 l 5
 80 720 l 5
 632 720 l 5
 632 0 l 5
 537 0 l 5
 537 635 l 5
 175 635 l 5
 175 0 l 5
EndSplineSet
Fore
SplineSet
175 0 m 5
 80 0 l 5
 80 720 l 5
 632 720 l 5
 632 0 l 5
 537 0 l 5
 537 635 l 5
 175 635 l 5
 175 0 l 5
EndSplineSet
Validated: 1
Colour: ffff00
EndChar

StartChar: afii10034
Encoding: 1056 1056 48
Width: 657
Flags: HMW
HStem: 0 21G<80 175 80 80> 290 85<175 338 175 340> 635 85<175 175 175 330 330 338>
VStem: 80 95<0 290 375 635> 509 98<462.5 560>
LayerCount: 3
Back
SplineSet
175 0 m 5
 80 0 l 5
 80 720 l 5
 330 720 l 6
 475 720 607 674 607 509 c 4
 607 364 517 290 338 290 c 6
 175 290 l 5
 175 0 l 5
175 635 m 5
 175 375 l 5
 340 375 l 6
 453 375 509 419 509 506 c 4
 509 614 433 635 338 635 c 6
 175 635 l 5
EndSplineSet
Fore
SplineSet
80 0 m 5
 80 720 l 5
 334 720 l 5
 529.75 682.685546875 l 5
 615.553710938 511.94140625 l 5
 546.802734375 344.811523438 l 5
 341 290 l 5
 175 290 l 5
 175 0 l 5
 80 0 l 5
175 375.352539062 m 5
 343.3125 375.352539062 l 5
 472.650390625 408.896484375 l 5
 515.622070312 508.96484375 l 5
 464.76171875 613.049804688 l 5
 341 641 l 5
 175 641 l 5
 175 375.352539062 l 5
EndSplineSet
Validated: 1
Colour: ffff00
EndChar

StartChar: afii10035
Encoding: 1057 1057 49
Width: 734
Flags: HMW
HStem: -15 80<303 437 303 465> 655 80<308 442>
VStem: 50 100<276.5 443.5 276.5 463.5>
LayerCount: 3
Back
SplineSet
150 360 m 4
 150 193 223 65 383 65 c 4
 491 65 558 132 587 233 c 5
 684 214 l 5
 652 79 547 -15 383 -15 c 4
 163 -15 50 153 50 360 c 4
 50 567 163 735 383 735 c 4
 547 735 653 644 684 505 c 5
 587 486 l 5
 566 586 501 655 383 655 c 4
 233 655 150 527 150 360 c 4
EndSplineSet
Fore
SplineSet
383.485351562 59.046875 m 5
 517.767578125 106.080078125 l 5
 591.513671875 230.420898438 l 5
 674.16015625 184.560546875 l 5
 587.443359375 42.625 l 5
 383.485351562 -22.513671875 l 5
 129.475585938 89.5546875 l 5
 43.7998046875 359.950195312 l 5
 129.475585938 630.415039062 l 5
 383.485351562 742.5 l 5
 587.889648438 678.381835938 l 5
 676.200195312 531.360351562 l 5
 591.513671875 488.543945312 l 5
 524.592773438 613.012695312 l 5
 383.485351562 660.9375 l 5
 207.25390625 574.3671875 l 5
 145.7734375 360.03515625 l 5
 203.39453125 145.627929688 l 5
 383.485351562 59.046875 l 5
EndSplineSet
Validated: 1
Colour: ffff00
EndChar

StartChar: afii10036
Encoding: 1058 1058 50
Width: 619
Flags: HMW
HStem: 0 21G<262 357 262 262> 635 85<20 262 20 599 357 357 357 599>
VStem: 262 95<0 635>
LayerCount: 3
Back
SplineSet
357 0 m 5
 262 0 l 5
 262 635 l 5
 20 635 l 5
 20 720 l 5
 599 720 l 5
 599 635 l 5
 357 635 l 5
 357 0 l 5
EndSplineSet
Fore
SplineSet
357 0 m 5
 262 0 l 5
 262 635 l 5
 20 635 l 5
 20 720 l 5
 599 720 l 5
 599 635 l 5
 357 635 l 5
 357 0 l 5
EndSplineSet
Validated: 1
Colour: ffff00
EndChar

StartChar: afii10037
Encoding: 1059 1059 51
Width: 675
Flags: HMW
HStem: -15 84<171.5 204 169.5 239.5> 700 20G<10 112 112 112 541 640 640 640>
LayerCount: 3
Back
SplineSet
298 196 m 5
 10 720 l 5
 112 720 l 5
 344 295 l 5
 541 720 l 5
 640 720 l 5
 372 159 l 6
 325 60 295 -15 184 -15 c 4
 159 -15 112 -7 86 26 c 5
 120 97 l 5
 137 84 155 69 184 69 c 4
 224 69 249 89 274 144 c 6
 298 196 l 5
EndSplineSet
Fore
SplineSet
107.5 728.090820312 m 1
 343.966796875 295.006835938 l 5
 544.75 728.090820312 l 5
 625.75 690 l 1
 369.043945312 153.8671875 l 1
 303.569335938 33.943359375 l 1
 183.213867188 -16.9072265625 l 1
 130.288085938 -6.47265625 l 1
 85.7353515625 25.9765625 l 1
 133 90 l 1
 165.048828125 73.3115234375 l 1
 200.072265625 74.4169921875 l 1
 236.979492188 89.267578125 l 1
 289.625976562 177.15625 l 1
 291.244140625 207.880859375 l 1
 29.25 685 l 1
 107.5 728.090820312 l 1
EndSplineSet
Validated: 1
Colour: ffff00
EndChar

StartChar: afii10038
Encoding: 1060 1060 52
Width: 821
Flags: HMW
HStem: -15 21G<363 458 363 363> 85 80<363 363> 555 80<363 363> 715 20G<363 458 458 458>
VStem: 40 100<283.5 436 283.5 456.5> 363 95<-15 85 165 555 635 735> 681 100<283.5 436>
CounterMasks: 1 0e
LayerCount: 3
Back
SplineSet
458 -15 m 5
 363 -15 l 5
 363 85 l 5
 178 87 40 166 40 360 c 4
 40 553 178 632 363 635 c 5
 363 735 l 5
 458 735 l 5
 458 635 l 5
 643 632 781 553 781 360 c 4
 781 166 643 87 458 85 c 5
 458 -15 l 5
681 360 m 4
 681 512 574 553 458 555 c 5
 458 165 l 5
 565 167 681 207 681 360 c 4
140 360 m 4
 140 207 247 167 363 165 c 5
 363 555 l 5
 255 553 140 512 140 360 c 4
EndSplineSet
Fore
SplineSet
362.9453125 -15 m 1
 362.9453125 84.9736328125 l 1
 126.484375 146.279296875 l 5
 32.515625 359.971679688 l 5
 126.484375 572.934570312 l 5
 362.9453125 634.95703125 l 1
 362.9453125 734.930664062 l 1
 458 734.930664062 l 1
 458 634.95703125 l 1
 694.494140625 572.901367188 l 5
 788.430664062 359.971679688 l 5
 688.924804688 150.461914062 l 1
 458 84.9736328125 l 1
 458 -15 l 1
 362.9453125 -15 l 1
362.9453125 165.01953125 m 1
 362.9453125 554.994140625 l 1
 206.940429688 516.810546875 l 5
 134.489257812 359.971679688 l 5
 203.846679688 202.79296875 l 5
 362.9453125 165.01953125 l 1
457.916992188 554.994140625 m 1
 457.916992188 165.01953125 l 1
 613.580078125 202.79296875 l 5
 686.456054688 359.971679688 l 5
 616.993164062 516.810546875 l 5
 457.916992188 554.994140625 l 1
EndSplineSet
Validated: 1
EndChar

StartChar: afii10039
Encoding: 1061 1061 53
Width: 697
Flags: HMW
HStem: 0 21G<20 134 20 20 559 559 559 677> 700 20G<53 166 166 166 554 657 657 657>
LayerCount: 3
Back
SplineSet
134 0 m 5
 20 0 l 5
 297 373 l 5
 53 720 l 5
 166 720 l 5
 353 444 l 5
 554 720 l 5
 657 720 l 5
 406 378 l 5
 677 0 l 5
 559 0 l 5
 348 303 l 5
 134 0 l 5
EndSplineSet
Fore
SplineSet
127 -8 m 5
 54 46.75 l 5
 297 373 l 5
 84 676 l 5
 161 728.090820312 l 5
 353 444 l 5
 559 728.090820312 l 5
 625 676 l 5
 406 378 l 5
 644 46.75 l 5
 565 -8 l 5
 348 303 l 5
 127 -8 l 5
EndSplineSet
Validated: 1
Colour: ffff00
EndChar

StartChar: afii10040
Encoding: 1062 1062 54
Width: 738
Flags: HMW
HStem: -199 21G<603 698 603 603> 0 85<175 527 175 603> 700 20G<80 175 175 175 527 622 622 622>
VStem: 80 95<85 720 85 720 85 720> 527 95<85 720 84 720> 603 95<-199 0 0 0>
LayerCount: 3
Back
SplineSet
527 720 m 5xf8
 622 720 l 5
 622 84 l 5
 698 84 l 5
 698 -199 l 5
 603 -199 l 5
 603 0 l 5
 80 0 l 5xf8
 80 720 l 5
 175 720 l 5
 175 85 l 5
 527 85 l 5xf4
 527 720 l 5xf8
EndSplineSet
Fore
SplineSet
527 720 m 5xf8
 622 720 l 5
 622 84 l 5
 698 84 l 5
 698 -199 l 5
 603 -199 l 5
 603 0 l 5
 80 0 l 5xf8
 80 720 l 5
 175 720 l 5
 175 85 l 5
 527 85 l 5xf4
 527 720 l 5xf8
EndSplineSet
Validated: 1
Colour: ffff00
EndChar

StartChar: afii10041
Encoding: 1063 1063 55
Width: 656
Flags: HMW
HStem: 0 21G<481 576 481 481> 251 82<224 310> 700 20G<40 135 135 135 481 576 576 576>
VStem: 40 95<535 544 544 720> 481 95<0 299 299 299 378 720 0 720>
LayerCount: 3
Back
SplineSet
576 720 m 5
 576 0 l 5
 481 0 l 5
 481 299 l 5
 406 261 342 251 278 251 c 4
 94 251 40 363 40 535 c 6
 40 720 l 5
 135 720 l 5
 135 544 l 6
 135 415 157 333 291 333 c 4
 358 333 418 345 481 378 c 5
 481 720 l 5
 576 720 l 5
EndSplineSet
Fore
SplineSet
480.861328125 0 m 1
 480.861328125 299.004882812 l 1
 374.833984375 257.661132812 l 5
 277.385742188 248.7734375 l 5
 87.3251953125 327.12109375 l 5
 36.3486328125 539.581054688 l 5
 39.8583984375 719.997070312 l 1
 134.99609375 719.997070312 l 1
 134.036132812 543.33203125 l 5
 161.696289062 389.971679688 l 5
 292.51171875 331.678710938 l 5
 394.333984375 343.296875 l 5
 480.858398438 377.967773438 l 1
 480.858398438 719.997070312 l 1
 575.99609375 719.997070312 l 1
 575.99609375 0 l 1
 480.861328125 0 l 1
EndSplineSet
Validated: 1
EndChar

StartChar: afii10042
Encoding: 1064 1064 56
Width: 929
Flags: HMW
HStem: 0 85<175 417 512 754> 700 20G<80 175 175 175 417 512 512 512 754 849 849 849>
VStem: 80 95<85 720 85 720 85 720> 417 95<85 720 85 720> 754 95<85 720 0 720>
CounterMasks: 1 38
LayerCount: 3
Back
SplineSet
754 720 m 5
 849 720 l 5
 849 0 l 5
 80 0 l 5
 80 720 l 5
 175 720 l 5
 175 85 l 5
 417 85 l 5
 417 720 l 5
 512 720 l 5
 512 85 l 5
 754 85 l 5
 754 720 l 5
EndSplineSet
Fore
SplineSet
754 720 m 5
 849 720 l 5
 849 0 l 5
 80 0 l 5
 80 720 l 5
 175 720 l 5
 175 85 l 5
 417 85 l 5
 417 720 l 5
 512 720 l 5
 512 85 l 5
 754 85 l 5
 754 720 l 5
EndSplineSet
Validated: 1
Colour: ffff00
EndChar

StartChar: afii10043
Encoding: 1065 1065 57
Width: 965
Flags: HMW
HStem: -199 21G<830 925 830 830> 0 85<175 417 512 754> 700 20G<80 175 175 175 417 512 512 512 754 849 849 849>
VStem: 80 95<85 720 85 720 85 720> 417 95<85 720 85 720> 754 95<85 720 84 720> 830 95<-199 0 0 0>
LayerCount: 3
Back
SplineSet
849 720 m 5xfa
 849 84 l 5
 925 84 l 5
 925 -199 l 5
 830 -199 l 5
 830 0 l 5
 80 0 l 5
 80 720 l 5
 175 720 l 5
 175 85 l 5
 417 85 l 5
 417 720 l 5
 512 720 l 5xfc
 512 85 l 5
 754 85 l 5
 754 720 l 5
 849 720 l 5xfa
EndSplineSet
Fore
SplineSet
849 720 m 5xfa
 849 84 l 5
 925 84 l 5
 925 -199 l 5
 830 -199 l 5
 830 0 l 5
 80 0 l 5
 80 720 l 5
 175 720 l 5
 175 85 l 5
 417 85 l 5
 417 720 l 5
 512 720 l 5xfc
 512 85 l 5
 754 85 l 5
 754 720 l 5
 849 720 l 5xfa
EndSplineSet
Validated: 1
Colour: ffff00
EndChar

StartChar: afii10044
Encoding: 1066 1066 58
Width: 747
Flags: HMW
HStem: 0 85<275 420> 345 85<275 428 275 428 428 430> 635 85<20 180 20 275>
VStem: 180 95<85 345 430 635 635 635> 599 98<160 257.5>
LayerCount: 3
Back
SplineSet
275 720 m 5
 275 430 l 5
 428 430 l 6
 607 430 697 356 697 211 c 4
 697 46 565 0 420 0 c 6
 180 0 l 5
 180 635 l 5
 20 635 l 5
 20 720 l 5
 275 720 l 5
275 345 m 5
 275 85 l 5
 428 85 l 6
 523 85 599 106 599 214 c 4
 599 301 543 345 430 345 c 6
 275 345 l 5
EndSplineSet
Fore
SplineSet
429.724609375 429.440429688 m 1
 629.658203125 378.137695312 l 1
 698.451171875 211.04296875 l 1
 612.647460938 40.2978515625 l 1
 418.002929688 -0.03125 l 1
 180.008789062 -0.03125 l 1
 180.008789062 635 l 1
 20 635 l 1
 20 720.048828125 l 1
 274.979492188 720.048828125 l 1
 274.813476562 429.965820312 l 2
 429.724609375 429.440429688 l 1
274.813476562 85.2421875 m 1
 431.6953125 86.076171875 l 1
 547.563476562 107.31640625 l 1
 598.434570312 214.401367188 l 1
 555.462890625 314.469726562 l 1
 426.032226562 345.291992188 l 1
 274.979492188 345.291992188 l 1
 274.813476562 85.3095703125 l 2
 274.813476562 85.2421875 l 1
EndSplineSet
Validated: 1
EndChar

StartChar: afii10045
Encoding: 1067 1067 59
Width: 885
Flags: HMW
HStem: 0 85<140.934 295.934> 345 85<140.934 303.934 140.934 303.934 303.934 305.934> 700 20G<45.9336 140.934 140.934 140.934 675.934 770.934 770.934 770.934>
VStem: 45.9336 95<85 345 430 720> 474.934 98<160 257.5> 675.934 95<0 720>
LayerCount: 3
Back
SplineSet
805 0 m 5
 710 0 l 5
 710 720 l 5
 805 720 l 5
 805 0 l 5
80 720 m 5
 175 720 l 5
 175 430 l 5
 338 430 l 6
 517 430 607 356 607 211 c 4
 607 46 475 0 330 0 c 6
 80 0 l 5
 80 720 l 5
175 345 m 5
 175 85 l 5
 338 85 l 6
 433 85 509 106 509 214 c 4
 509 301 453 345 340 345 c 6
 175 345 l 5
EndSplineSet
Fore
SplineSet
174.887695312 430.2890625 m 5
 339.869140625 429.455078125 l 1
 539.666015625 378.169921875 l 1
 608.44921875 211.07421875 l 1
 522.64453125 40.330078125 l 1
 327.93359375 0 l 1
 80 0 l 1
 80 719.997070312 l 1
 174.887695312 719.997070312 l 5
 174.887695312 430.2890625 l 5
174.887695312 85.2578125 m 1
 341.907226562 86.091796875 l 1
 457.571289062 107.305664062 l 1
 508.430664062 214.390625 l 1
 465.459960938 314.458984375 l 1
 335.895507812 345.282226562 l 1
 174.971679688 345.282226562 l 1
 174.887695312 85.2998046875 l 2
 174.887695312 85.2578125 l 1
709.9453125 0.2919921875 m 1
 709.9453125 720.2890625 l 1
 804.916015625 720.2890625 l 1
 804.916015625 0.2919921875 l 1
 709.9453125 0.2919921875 l 1
EndSplineSet
Validated: 1
EndChar

StartChar: afii10046
Encoding: 1068 1068 60
Width: 657
Flags: HMW
HStem: 0 85<174 329> 345 85<174 337 174 337 337 339> 700 20G<79 174 174 174>
VStem: 79 95<85 345 430 720> 508 98<160 257.5>
LayerCount: 3
Back
SplineSet
80 720 m 5
 175 720 l 5
 175 430 l 5
 338 430 l 6
 517 430 607 356 607 211 c 4
 607 46 475 0 330 0 c 6
 80 0 l 5
 80 720 l 5
175 345 m 5
 175 85 l 5
 338 85 l 6
 433 85 509 106 509 214 c 4
 509 301 453 345 340 345 c 6
 175 345 l 5
EndSplineSet
Fore
SplineSet
174.887695312 719.99609375 m 1
 174.887695312 430.36328125 l 1
 339.619140625 429.529296875 l 1
 539.706054688 378.168945312 l 5
 608.532226562 211.073242188 l 5
 522.728515625 40.3291015625 l 5
 328.275390625 0 l 1
 80 0 l 1
 80 719.99609375 l 1
 174.887695312 719.99609375 l 1
174.887695312 85.33203125 m 1
 341.399414062 86.166015625 l 1
 457.64453125 107.484375 l 5
 508.514648438 214.569335938 l 5
 465.51171875 314.63671875 l 5
 338.28125 345.456054688 l 1
 175.0546875 345.456054688 l 1
 174.887695312 85.4736328125 l 1
 174.887695312 85.33203125 l 1
EndSplineSet
Validated: 1
EndChar

StartChar: afii10047
Encoding: 1069 1069 61
Width: 734
Flags: HMW
HStem: -15 80<297 425 297 461> 325 85<275 582 275 582 275 583> 655 80<302 428>
VStem: 583 101<325 325>
LayerCount: 3
Back
SplineSet
275 325 m 5
 275 410 l 5
 582 410 l 5
 568 552 495 655 361 655 c 4
 243 655 173 586 152 486 c 5
 55 505 l 5
 86 644 197 735 361 735 c 4
 581 735 684 567 684 360 c 4
 684 153 571 -15 351 -15 c 4
 187 -15 82 79 50 214 c 5
 147 233 l 5
 176 132 243 65 351 65 c 4
 499 65 573 175 583 325 c 5
 275 325 l 5
EndSplineSet
Fore
SplineSet
274.759765625 324.897460938 m 1
 274.759765625 410.029296875 l 1
 581.76953125 410.029296875 l 1
 514.09765625 590.279296875 l 1
 350.399414062 660.904296875 l 1
 209.29296875 612.978515625 l 1
 142.370117188 488.509765625 l 1
 59.796875 536 l 1
 145.995117188 678.34765625 l 1
 350.399414062 742.465820312 l 1
 604.365234375 630.380859375 l 1
 690 359.916015625 l 1
 604.365234375 89.5205078125 l 1
 350.399414062 -22.5478515625 l 1
 146.44140625 42.5908203125 l 1
 61.796875 181 l 1
 142.370117188 230.38671875 l 1
 216.0859375 106.045898438 l 1
 350.399414062 59.0126953125 l 1
 522.251953125 134.23046875 l 1
 582.686523438 324.897460938 l 1
 274.759765625 324.897460938 l 1
EndSplineSet
Validated: 1
EndChar

StartChar: afii10048
Encoding: 1070 1070 62
Width: 1025
Flags: HMW
HStem: -15 80<573 717.5 573 752.5> 0 21G<80 175 80 80> 325 85<175 321 175 322> 655 80<578 717.5> 700 20G<80 175 175 175>
VStem: 80 95<0 325 410 720> 321 99<325 325> 875 100<276.5 443.5>
LayerCount: 3
Back
SplineSet
175 0 m 5xb7
 80 0 l 5
 80 720 l 5
 175 720 l 5
 175 410 l 5
 322 410 l 5
 340 593 455 735 648 735 c 4xb7
 857 735 975 567 975 360 c 4
 975 153 857 -15 648 -15 c 4
 450 -15 334 134 321 325 c 5x77
 175 325 l 5
 175 0 l 5xb7
420 360 m 4
 420 193 498 65 648 65 c 4
 787 65 875 193 875 360 c 4x6f
 875 527 787 655 648 655 c 4
 508 655 420 527 420 360 c 4
EndSplineSet
Fore
SplineSet
79.9453125 0.083984375 m 1x67
 79.9453125 720.081054688 l 1
 175 720.081054688 l 1
 175 410.069335938 l 1
 322.083984375 410.069335938 l 1
 414.00390625 646.791992188 l 5
 647.080078125 742.505859375 l 5
 893.817382812 630.420898438 l 5
 980.641601562 359.956054688 l 5
 893.817382812 89.568359375 l 5
 647.080078125 -22.5078125 l 5
 409.559570312 77.8408203125 l 5
 321 325.020507812 l 1
 175 325.020507812 l 1
 175 0 l 1
 79.9453125 0.083984375 l 1x67
646.995117188 59.2236328125 m 5
 815.997070312 145.794921875 l 5
 878.66796875 360.126953125 l 5
 815.997070312 574.458007812 l 5
 646.995117188 661.029296875 l 5
 477.2265625 574.458007812 l 5
 414.556640625 360.126953125 l 5
 473.400390625 145.794921875 l 5
 646.995117188 59.2236328125 l 5
EndSplineSet
Validated: 1
EndChar

StartChar: afii10049
Encoding: 1071 1071 63
Width: 683
Flags: HMW
HStem: 0 21G<10 124 10 10 512 607 512 512> 290 85<353.5 409 409 512> 635 85<301.5 607 357 512>
VStem: 80 98<462.5 555 462.5 589> 512 95<0 290 290 290 375 635 635 635>
LayerCount: 3
Back
SplineSet
607 720 m 5
 607 0 l 5
 512 0 l 5
 512 290 l 5
 409 290 l 6
 298 290 247 220 192 121 c 6
 124 0 l 5
 10 0 l 5
 107 167 l 6
 143 229 189 291 262 312 c 5
 149 324 80 399 80 509 c 4
 80 669 212 720 357 720 c 6
 607 720 l 5
512 375 m 5
 512 635 l 5
 349 635 l 6
 254 635 178 604 178 506 c 4
 178 419 234 375 347 375 c 6
 512 375 l 5
EndSplineSet
Fore
SplineSet
510 375.352539062 m 1
 341.6875 375.352539062 l 1
 212.349609375 408.896484375 l 1
 169.377929688 508.96484375 l 1
 220.23828125 613.049804688 l 1
 344 641 l 1
 510 641 l 1
 510 375.352539062 l 1
605 0 m 1
 605 720 l 1
 351 720 l 1
 155.25 682.685546875 l 1
 69.4462890625 511.94140625 l 1
 138.197265625 344.811523438 l 1
 206 327 l 1
 40 38 l 1
 128 -8 l 1
 302 302 l 1
 349 290 l 1
 510 290 l 1
 510 0 l 1
 605 0 l 1
EndSplineSet
Validated: 9
Colour: ffff00
EndChar

StartChar: a
Encoding: 97 97 64
Width: 545
Flags: HMW
HStem: -15 72<203 244> 0 21G<409 500 409 409> 463 72<229.5 296.5>
VStem: 36 94<108 176.5 108 193> 382 90<140 263 263 263 332 334>
LayerCount: 3
Back
SplineSet
-1297.71386719 64 m 5xb8
 -1349.71386719 6 -1410.71386719 -15 -1472.71386719 -15 c 4
 -1568.71386719 -15 -1649.71386719 31 -1649.71386719 137 c 4
 -1649.71386719 249 -1561.71386719 294 -1445.71386719 305 c 4
 -1390.71386719 310 -1329.71386719 320 -1303.71386719 332 c 5
 -1303.71386719 352 l 6
 -1303.71386719 433 -1354.71386719 463 -1423.71386719 463 c 4x78
 -1488.71386719 463 -1530.71386719 427 -1548.71386719 359 c 5
 -1633.71386719 378 l 5
 -1607.71386719 498 -1514.71386719 535 -1414.71386719 535 c 4
 -1275.71386719 535 -1213.71386719 465 -1213.71386719 334 c 6
 -1213.71386719 106 l 6
 -1213.71386719 53 -1203.71386719 19 -1185.71386719 0 c 5
 -1276.71386719 0 l 5
 -1291.71386719 14 -1294.71386719 39 -1297.71386719 64 c 5xb8
-1303.71386719 140 m 5
 -1303.71386719 263 l 5
 -1326.71386719 252 -1384.71386719 241 -1435.71386719 233 c 4
 -1490.71386719 224 -1555.71386719 212 -1555.71386719 141 c 4
 -1555.71386719 75 -1506.71386719 57 -1458.71386719 57 c 4xb8
 -1391.71386719 57 -1330.71386719 105 -1303.71386719 140 c 5
EndSplineSet
Fore
SplineSet
382.41015625 348.740234375 m 5x78
 347.499023438 441.418945312 l 5
 259.971679688 467.018554688 l 5
 178.3046875 439.981445312 l 5
 132.484375 360.962890625 l 5
 61.1103515625 404.840820312 l 5
 129.157226562 506.319335938 l 5
 269.158203125 540.500976562 l 5
 424.775390625 488.110351562 l 5
 472.125 335.448242188 l 5
 472 0 l 5
 388 0 l 5
 388.391601562 60.14453125 l 5
 303.06640625 -2.4677734375 l 5
 209.958984375 -20.56640625 l 5
 83.0498046875 16.38671875 l 5
 29.490234375 134.477539062 l 5
 89.1630859375 258.784179688 l 5
 382.41015625 348.740234375 l 5x78
382.41015625 269.180664062 m 5
 165.568359375 209.150390625 l 5
 125.424804688 138.475585938 l 5
 156.57421875 70.3935546875 l 5
 224.336914062 52.830078125 l 5
 318.719726562 81.7890625 l 5
 382.357421875 137.5390625 l 5
 382.41015625 269.180664062 l 5
EndSplineSet
Validated: 1
Colour: ffff00
EndChar

StartChar: b
Encoding: 98 98 65
Width: 550
Flags: HMW
HStem: -15 75<257.5 326.5 252.5 364> 0 60 460 75<261 326.5> 700 20G<65 155 155 155>
VStem: 65 90<465 720 465 720 465 720> 425 90<194 326>
LayerCount: 3
Back
SplineSet
65 720 m 5x7c
 155 720 l 5
 155 465 l 5
 185 507 230 535 292 535 c 4
 436 535 515 422 515 260 c 4
 515 98 436 -15 292 -15 c 4xbc
 223 -15 175 21 145 71 c 5
 145 0 l 5
 65 0 l 5
 65 720 l 5x7c
144 260 m 4
 144 128 218 60 287 60 c 4
 366 60 425 128 425 260 c 4
 425 392 366 460 287 460 c 4
 208 460 144 392 144 260 c 4
EndSplineSet
Fore
SplineSet
155 720 m 1x3c
 155 465 l 1
 211.5546875 519.397460938 l 1
 292.086914062 538.626953125 l 1
 460.919921875 460.34765625 l 1
 519.592773438 258.134765625 l 1
 460.919921875 55.9228515625 l 1
 292.086914062 -22.35546875 l 1
 202.190429688 2.384765625 l 1
 145 70 l 1
 145 0 l 1
 65 0 l 1
 65 720 l 1
 155 720 l 1x3c
286.899414062 54.103515625 m 1
 387.48046875 105.592773438 l 1
 427.655273438 258.05078125 l 1
 387.48046875 410.551757812 l 1
 286.899414062 462.08203125 l 1
 183.724609375 410.551757812 l 1
 140.955078125 258.05078125 l 1
 187.583984375 105.592773438 l 1
 286.899414062 54.103515625 l 1
EndSplineSet
Validated: 1
Colour: ffff00
EndChar

StartChar: c
Encoding: 99 99 66
Width: 524
Flags: HMW
HStem: -15 75<233.5 303.5 233.5 329> 460 75<233.5 303.5>
VStem: 35 90<189 331 189 346>
LayerCount: 3
Back
SplineSet
125 260 m 4
 125 118 194 60 273 60 c 4
 334 60 383 95 402 177 c 5
 489 157 l 5
 461 48 385 -15 273 -15 c 4
 129 -15 35 88 35 260 c 4
 35 432 129 535 273 535 c 4
 385 535 461 471 489 362 c 5
 402 342 l 5
 383 425 334 460 273 460 c 4
 194 460 125 402 125 260 c 4
EndSplineSet
Fore
SplineSet
273.384765625 55.9765625 m 5
 355.116210938 84.2548828125 l 5
 404.955078125 175.299804688 l 5
 481.41015625 134.540039062 l 5
 415.639648438 25.5205078125 l 5
 273.384765625 -20.482421875 l 5
 96.833984375 53.9697265625 l 5
 30.5703125 260.008789062 l 5
 96.8974609375 466.047851562 l 5
 273.384765625 540.5 l 5
 415.639648438 493.944335938 l 5
 482.4296875 382.399414062 l 5
 404.955078125 343.612304688 l 5
 355.1796875 435.591796875 l 5
 273.384765625 464.041015625 l 5
 167.66796875 416.336914062 l 5
 122.422851562 260.008789062 l 5
 167.66796875 103.680664062 l 5
 273.384765625 55.9765625 l 5
EndSplineSet
Validated: 1
Colour: ffff00
EndChar

StartChar: d
Encoding: 100 100 67
Width: 550
Flags: HMW
HStem: -15 75<223.5 292.5> 0 60 460 75<223.5 289 186 302.5> 700 20G<395 485 485 485>
VStem: 35 90<194 326 194 341> 406 79<194 326>
LayerCount: 3
Back
SplineSet
395 720 m 5xbc
 485 720 l 5
 485 0 l 5
 405 0 l 5
 405 71 l 5
 375 21 327 -15 258 -15 c 4
 114 -15 35 98 35 260 c 4
 35 422 114 535 258 535 c 4
 320 535 365 507 395 465 c 5
 395 720 l 5xbc
406 260 m 4
 406 392 342 460 263 460 c 4
 184 460 125 392 125 260 c 4x7c
 125 128 184 60 263 60 c 4
 332 60 406 128 406 260 c 4
EndSplineSet
Fore
SplineSet
485 720 m 5x3c
 485 0 l 5
 405 0 l 5
 405 71 l 5
 343.4765625 1.533203125 l 5
 255.264648438 -22.705078125 l 5
 86.3994140625 55.5732421875 l 5
 27.7587890625 257.78515625 l 5
 86.3994140625 459.998046875 l 5
 255.264648438 538.27734375 l 5
 338.625 517.46484375 l 5
 395 465.920898438 l 5
 395 720 l 5
 485 720 l 5x3c
260.452148438 461.818359375 m 5
 159.796875 410.287109375 l 5
 119.611328125 257.78515625 l 5
 159.796875 105.327148438 l 5
 260.452148438 53.8388671875 l 5
 359.7578125 105.327148438 l 5
 406.311523438 257.78515625 l 5
 363.584960938 410.287109375 l 5
 260.452148438 461.818359375 l 5
EndSplineSet
Validated: 1
Colour: ffff00
EndChar

StartChar: e
Encoding: 101 101 68
Width: 544
Flags: HMW
HStem: -15 75<240.5 308.5 240.5 329.5> 237 72<128 413 128 508 125 413> 460 75<242 315>
VStem: 35 90<237 237 237 346> 413 96<309 309>
LayerCount: 3
Back
SplineSet
508 237 m 5
 125 237 l 5
 133 112 203 60 278 60 c 4
 339 60 399 98 417 176 c 5
 502 158 l 5
 472 42 386 -15 273 -15 c 4
 129 -15 35 88 35 260 c 4
 35 432 129 535 273 535 c 4
 430 535 509 421 509 270 c 4
 509 267 509 244 508 237 c 5
273 460 m 4
 211 460 144 415 128 309 c 5
 413 309 l 5
 409 397 357 460 273 460 c 4
EndSplineSet
Fore
SplineSet
174.46484375 98.9150390625 m 5
 278.149414062 56.44140625 l 5
 365.399414062 85.7744140625 l 5
 419.926757812 174.744140625 l 5
 490 131 l 5
 421.6171875 23.7744140625 l 5
 273.046875 -20.1025390625 l 5
 96.6025390625 54.349609375 l 5
 30.3173828125 260.388671875 l 5
 96.6025390625 466.427734375 l 5
 273.046875 540.879882812 l 5
 453.446289062 463.494140625 l 5
 513 273 l 4
 508 237 l 5
 122.000976562 236.915039062 l 5
 174.46484375 98.9150390625 l 5
125 309 m 5
 416 309 l 5
 374.999023438 421.139648438 l 5
 272.961914062 464.505859375 l 5
 181.481445312 428.028320312 l 5
 125 309 l 5
EndSplineSet
Validated: 1
Colour: ffff00
EndChar

StartChar: f
Encoding: 102 102 69
Width: 303
Flags: HMW
HStem: 0 21G<88 175 88 88> 451 69<10 88 10 88 175 276> 633 78<221.5 254.5 188 257>
VStem: 88 87<0 451 520 541 541 543>
LayerCount: 3
Back
SplineSet
175 0 m 5
 88 0 l 5
 88 451 l 5
 10 451 l 5
 10 520 l 5
 88 520 l 5
 88 541 l 6
 88 651 138 711 238 711 c 4
 271 711 306 703 323 695 c 5
 306 623 l 5
 292 629 265 633 249 633 c 4
 194 633 175 600 175 543 c 6
 175 520 l 5
 276 520 l 5
 276 451 l 5
 175 451 l 5
 175 0 l 5
EndSplineSet
Fore
SplineSet
308.961914062 628.298828125 m 1
 250.7890625 638.504882812 l 1
 191.977539062 614.393554688 l 1
 175 547 l 1
 175 520 l 1
 276 520 l 1
 276 451 l 1
 175 451 l 1
 175 0 l 1
 88 0 l 1
 88 451 l 1
 10 451 l 1
 10 520 l 1
 88 520 l 1
 88 545 l 1
 124.8203125 673.46875 l 1
 239.561523438 718.110351562 l 1
 321 703 l 1
 308.961914062 628.298828125 l 1
EndSplineSet
Validated: 1
Colour: ffff00
EndChar

StartChar: g
Encoding: 103 103 70
Width: 558
Flags: HMW
HStem: -210 76<236 314.5 236 356.5> -15 75<231.5 297> 460 60 460 75<231.5 300.5 194 305.5>
VStem: 43 90<194 326 194 341> 63 85<-46 -46 -46 -33> 403 90<18 40 40 55 55 55>
LayerCount: 3
Back
SplineSet
533 40 m 6xea
 533 -89 488 -210 305 -210 c 4
 207 -210 103 -157 103 -33 c 5
 188 -46 l 5xe6
 191 -102 245 -134 307 -134 c 4
 402 -134 446 -79 443 18 c 6
 443 55 l 5
 413 13 368 -15 306 -15 c 4
 162 -15 83 98 83 260 c 4
 83 422 162 535 306 535 c 4xda
 375 535 423 499 453 449 c 5
 453 520 l 5
 533 520 l 5
 533 40 l 6xea
454 260 m 4
 454 392 380 460 311 460 c 4
 232 460 173 392 173 260 c 4xea
 173 128 232 60 311 60 c 4
 390 60 454 128 454 260 c 4
EndSplineSet
Fore
SplineSet
260.900390625 -217.545898438 m 1xda
 120.368164062 -174.689453125 l 1
 75 -79 l 1
 147 -46 l 1
 179.763671875 -116.515625 l 1
 263.025390625 -139.98046875 l 1
 369.922851562 -99.548828125 l 1
 401.741210938 16.83984375 l 0
 402 55 l 1
 342.446289062 0.6650390625 l 1
 261.919921875 -18.53125 l 1
 93.09765625 59.748046875 l 1
 34.5 261.959960938 l 1
 93.09765625 464.171875 l 1
 261.919921875 542.451171875 l 1
 353.086914062 516.42578125 l 1
 412 450 l 1
 412 520 l 1
 492 520 l 1
 492 34 l 1
 447.178710938 -139.384765625 l 1
 260.900390625 -217.545898438 l 1xda
267.0234375 465.907226562 m 1
 166.517578125 414.375976562 l 1
 126.352539062 261.875 l 1
 166.517578125 109.416015625 l 1
 267.0234375 57.927734375 l 1
 370.198242188 109.416015625 l 1
 412.967773438 261.875 l 1
 366.403320312 414.375976562 l 1
 267.0234375 465.907226562 l 1
EndSplineSet
Validated: 1
Colour: ffff00
EndChar

StartChar: h
Encoding: 104 104 71
Width: 555
Flags: HMW
HStem: 0 21G<65.7109 155.711 65.7109 65.7109 400.711 400.711 400.711 490.711> 459 76<275.711 332.711> 700 20G<65.7109 155.711 155.711 155.711>
VStem: 65.7109 90<0 283 449 720> 400.711 90<0 315 315 319 0 360>
LayerCount: 3
Back
SplineSet
155 0 m 5
 65 0 l 5
 65 720 l 5
 155 720 l 5
 155 449 l 5
 184 506 239 535 311 535 c 4
 455 535 490 443 490 319 c 6
 490 0 l 5
 400 0 l 5
 400 315 l 6
 400 405 371 459 293 459 c 4
 211 459 155 397 155 283 c 6
 155 0 l 5
EndSplineSet
Fore
SplineSet
62 0 m 1
 62 720 l 1
 152.518554688 720 l 1
 152.518554688 449 l 1
 215.657226562 516.44921875 l 1
 311.64453125 538.477539062 l 1
 457.982421875 475.719726562 l 1
 492.16015625 316.407226562 l 1
 491.767578125 0 l 1
 402 0 l 1
 402.051757812 315.69140625 l 1
 377.6953125 421.91796875 l 1
 293.314453125 460.913085938 l 1
 191.66015625 414.740234375 l 1
 152.64453125 283 l 1
 152.64453125 0 l 1
 62 0 l 1
EndSplineSet
Validated: 1
Colour: ffff00
EndChar

StartChar: i
Encoding: 105 105 72
Width: 220
Flags: HMW
HStem: 0 21G<65 155 65 65> 500 20G<65 155 155 155> 619 101<65 155 65 155>
VStem: 65 90<0 520 619 720>
LayerCount: 3
Fore
SplineSet
133.280273438 606.940429688 m 5
 87.0498046875 606.94140625 l 5
 54.197265625 642.686523438 l 5
 54.2197265625 693.490234375 l 5
 86.4990234375 729.840820312 l 5
 132.729492188 729.83984375 l 5
 165.889648438 693.390625 l 5
 165.809570312 642.541015625 l 5
 133.280273438 606.940429688 l 5
155 0 m 5
 65 0 l 5
 65 520 l 5
 155 520 l 5
 155 0 l 5
EndSplineSet
Validated: 1
Colour: ffff00
EndChar

StartChar: j
Encoding: 106 106 73
Width: 220
Flags: HMW
HStem: -210 79<1 31 -3 69> 500 20G<65 155 155 155> 619 101<65 155 65 155>
VStem: 65 90<-26 520 619 720>
LayerCount: 3
Back
SplineSet
109.727539062 722 m 1
 147.184570312 705.923828125 l 1
 161.65234375 668.953125 l 1
 147.184570312 631.973632812 l 1
 109.727539062 615.897460938 l 1
 71.4677734375 631.973632812 l 1
 57 668.953125 l 1
 71.4677734375 705.923828125 l 1
 109.727539062 722 l 1
-52 -200 m 5
 -34 -125 l 5
 -17 -130 -8 -131 2 -131 c 4
 60 -131 65 -79 65 -26 c 6
 65 520 l 5
 155 520 l 5
 155 -28 l 6
 155 -134 125 -210 13 -210 c 4
 -11 -210 -30 -206 -52 -200 c 5
EndSplineSet
Fore
SplineSet
133.280273438 606.940429688 m 5
 87.0498046875 606.94140625 l 5
 54.197265625 642.686523438 l 5
 54.2197265625 693.490234375 l 5
 86.4990234375 729.840820312 l 5
 132.729492188 729.83984375 l 5
 165.889648438 693.390625 l 5
 165.809570312 642.541015625 l 5
 133.280273438 606.940429688 l 5
-34.15234375 -124.903320312 m 5
 12 -132 l 6
 55.201171875 -98.322265625 l 5
 64.98828125 12.1337890625 l 6
 64.98828125 520 l 5
 154.956054688 520 l 5
 154.5390625 -29.8408203125 l 5
 125.9453125 -158.731445312 l 5
 12.9541015625 -210.002929688 l 5
 -52 -199.997070312 l 5
 -34.15625 -124.870117188 l 5
 -34.15234375 -124.903320312 l 5
EndSplineSet
Validated: 1
Colour: ffff00
EndChar

StartChar: k
Encoding: 107 107 74
Width: 506
Flags: HMW
HStem: 0 21G<65 65 65 155 381 381 381 486> 225 75<155 187 187 197 155 187> 437 83<414.5 463 445 463 445 463> 700 20G<65 155 155 155>
VStem: 65 90<0 225 300 720>
LayerCount: 3
Back
SplineSet
65 0 m 5
 65 720 l 5
 155 720 l 5
 155 300 l 5
 187 300 l 6
 217 300 250 307 275 348 c 4
 292 376 321 452 330 468 c 4
 358 517 387 520 445 520 c 6
 463 520 l 5
 463 437 l 5
 438 437 l 6
 391 437 388 410 373 372 c 4
 349 312 321 279 282 269 c 5
 282 265 l 5
 320 256 359 224 390 173 c 6
 486 0 l 5
 381 0 l 5
 296 160 l 6
 269 207 237 225 197 225 c 6
 155 225 l 5
 155 0 l 5
 65 0 l 5
EndSplineSet
Fore
SplineSet
154.7578125 225 m 1
 154.7578125 0 l 1
 65 0 l 1
 65.083984375 720 l 1
 108.958984375 720.04296875 l 1
 154.842773438 720.04296875 l 1
 154.842773438 300 l 1
 239 300 l 5
 272.755859375 346.75 l 5
 329.008789062 469.1953125 l 5
 378.8515625 512.63671875 l 5
 453.728515625 520.057617188 l 5
 465.728515625 437.09375 l 5
 424.768554688 430.58984375 l 5
 395.502929688 417.282226562 l 5
 346.872070312 314.131835938 l 5
 292.860351562 262.059570312 l 5
 359 225 l 5
 467 36 l 5
 385.828125 -7.923828125 l 5
 279 193 l 5
 239 225 l 5
 154.7578125 225 l 1
EndSplineSet
Validated: 1
Colour: ffff00
EndChar

StartChar: l
Encoding: 108 108 75
Width: 220
Flags: HMW
HStem: 0 21G<65 155 65 65> 715 20G<155 155>
VStem: 65 90<0 695 695 695>
LayerCount: 3
Fore
SplineSet
155 0 m 5
 65 0 l 5
 65 720 l 5
 155 720 l 5
 155 0 l 5
EndSplineSet
Validated: 1
Colour: ffff00
EndChar

StartChar: m
Encoding: 109 109 76
Width: 839
Flags: HMW
HStem: 0 21G<65.3623 155.362 65.3623 65.3623 375.362 375.362 375.362 465.362 684.362 684.362 684.362 774.362> 459 61 459 76<268.862 313.862 578.862 630.862>
VStem: 65.3623 90<0 269> 375.362 90<0 301 0 337 0 376> 684.362 90<0 327 327 356 0 361.5>
LayerCount: 3
Back
SplineSet
155 0 m 5xdc
 65 0 l 5
 65 520 l 5
 146 520 l 5
 146 446 l 5
 182 510 234 535 303 535 c 4
 379 535 430 500 451 439 c 5
 484 508 546 535 611 535 c 4
 718 535 774 472 774 356 c 6
 774 0 l 5
 684 0 l 5
 684 327 l 6
 684 396 669 459 592 459 c 4
 501 459 465 386 465 301 c 6xdc
 465 0 l 5
 375 0 l 5
 375 337 l 6
 375 415 344 459 283 459 c 4xbc
 176 459 155 364 155 269 c 6
 155 0 l 5xdc
EndSplineSet
Fore
SplineSet
60.318359375 0 m 1xbc
 60.5205078125 520 l 1
 141.520507812 520 l 1
 141.520507812 446 l 1
 208.995117188 519.471679688 l 1
 303.41796875 539.8828125 l 1
 398.166015625 514.716796875 l 1
 450.716796875 439 l 1
 521.986328125 517.8125 l 1
 615.836914062 540.350585938 l 1
 739.775390625 493.446289062 l 1
 780 362 l 1
 780 0 l 1
 690 0 l 1
 690 329.930664062 l 1
 672.791992188 421.876953125 l 1
 596.439453125 462.786132812 l 1
 496.889648438 414.733398438 l 1
 464.716796875 301 l 1
 464.716796875 0 l 1
 374.716796875 0 l 1
 374.716796875 340.112304688 l 1
 351.598632812 430.390625 l 1
 281.2734375 462.786132812 l 1
 175.078125 402.231445312 l 1
 150.520507812 269 l 1
 150.520507812 0 l 1
 60.318359375 0 l 1xbc
EndSplineSet
Validated: 1
Colour: ffff00
EndChar

StartChar: n
Encoding: 110 110 77
Width: 555
Flags: HMW
HStem: 0 21G<68.835 158.835 68.835 68.835 403.835 403.835 403.835 493.835> 459 61 459 76<278.835 335.835>
VStem: 68.835 90<0 283> 403.835 90<0 315 315 319 0 360>
LayerCount: 3
Back
SplineSet
155 0 m 5xb8
 65 0 l 5
 65 520 l 5
 146 520 l 5
 146 445 l 5
 184 509 239 535 311 535 c 4
 455 535 490 443 490 319 c 6
 490 0 l 5
 400 0 l 5
 400 315 l 6
 400 405 371 459 293 459 c 4xd8
 211 459 155 397 155 283 c 6
 155 0 l 5xb8
EndSplineSet
Fore
SplineSet
62.5224609375 0 m 1xb8
 62.5224609375 520 l 1
 143.522460938 520 l 1
 143.522460938 445 l 1
 214.392578125 518.918945312 l 1
 311.592773438 540.350585938 l 1
 457.930664062 477.592773438 l 1
 492 319 l 1
 492 0 l 1
 402 0 l 1
 402 319 l 1
 377.583007812 423.791015625 l 1
 293.278320312 462.786132812 l 1
 191.549804688 416.61328125 l 1
 152.522460938 283 l 1
 152.522460938 0 l 1
 62.5224609375 0 l 1xb8
EndSplineSet
Validated: 1
Colour: ffff00
EndChar

StartChar: o
Encoding: 111 111 78
Width: 556
Flags: HMW
HStem: -15 75<238.5 317.5 238.5 350> 460 75<238.5 317.5>
VStem: 35 90<189 331 189 346> 431 90<189 331>
LayerCount: 3
Back
SplineSet
35 260 m 4
 35 432 134 535 278 535 c 4
 422 535 521 432 521 260 c 4
 521 88 422 -15 278 -15 c 4
 134 -15 35 88 35 260 c 4
125 260 m 4
 125 118 199 60 278 60 c 4
 357 60 431 118 431 260 c 4
 431 402 357 460 278 460 c 4
 199 460 125 402 125 260 c 4
EndSplineSet
Fore
SplineSet
277.971679688 540.5 m 5
 457.07421875 466.047851562 l 5
 525.889648438 260.008789062 l 5
 457.010742188 54.00390625 l 5
 277.971679688 -20.482421875 l 5
 98.9765625 53.9697265625 l 5
 30.1396484375 260.008789062 l 5
 98.9443359375 466.047851562 l 5
 277.971679688 540.5 l 5
277.971679688 55.9765625 m 5
 386.282226562 103.637695312 l 5
 434.12109375 259.923828125 l 5
 386.282226562 416.251953125 l 5
 277.971679688 463.956054688 l 5
 169.780273438 416.251953125 l 5
 121.9921875 259.923828125 l 5
 169.747070312 103.637695312 l 5
 277.971679688 55.9765625 l 5
EndSplineSet
Validated: 1
Colour: ffff00
EndChar

StartChar: p
Encoding: 112 112 79
Width: 550
Flags: HMW
HStem: -200 21G<67.7334 157.733 67.7334 67.7334> -15 75<263.733 329.233 250.233 366.733> 460 60 460 75<260.233 329.233>
VStem: 67.7334 79<194 326 194 520> 427.733 90<194 326>
LayerCount: 3
Back
SplineSet
155 -200 m 5xdc
 65 -200 l 5
 65 520 l 5
 145 520 l 5
 145 449 l 5
 175 499 223 535 292 535 c 4
 436 535 515 422 515 260 c 4
 515 98 436 -15 292 -15 c 4
 230 -15 185 13 155 55 c 5
 155 -200 l 5xdc
144 260 m 4
 144 128 208 60 287 60 c 4
 366 60 425 128 425 260 c 4xec
 425 392 366 460 287 460 c 4
 218 460 144 392 144 260 c 4
EndSplineSet
Fore
SplineSet
65 -200 m 5xdc
 65 520 l 5
 145 520 l 5
 145 449 l 5
 206.607421875 518.111328125 l 5
 294.734375 542.349609375 l 5
 463.715820312 464.071289062 l 5
 522.41015625 261.859375 l 5
 463.715820312 59.6474609375 l 5
 294.734375 -18.6318359375 l 5
 211.407226562 2.1455078125 l 5
 155 55 l 5
 155 -200 l 5
 65 -200 l 5xdc
289.631835938 57.8271484375 m 5
 390.244140625 109.315429688 l 5
 430.387695312 261.774414062 l 5
 390.244140625 414.275390625 l 5
 289.631835938 465.806640625 l 5
 190.327148438 414.275390625 l 5
 143.772460938 261.774414062 l 5
 186.499023438 109.315429688 l 5
 289.631835938 57.8271484375 l 5
EndSplineSet
Validated: 1
Colour: ffff00
EndChar

StartChar: q
Encoding: 113 113 80
Width: 550
Flags: HMW
HStem: -200 21G<392.176 482.176 392.176 392.176> -15 75<220.676 286.176> 460 60 460 75<220.676 289.676 183.176 294.676>
VStem: 32.1758 90<194 326 194 341> 392.176 90<-200 55 55 55>
LayerCount: 3
Back
SplineSet
485 -200 m 5xec
 395 -200 l 5
 395 55 l 5
 365 13 320 -15 258 -15 c 4
 114 -15 35 98 35 260 c 4
 35 422 114 535 258 535 c 4xdc
 327 535 375 499 405 449 c 5
 405 520 l 5
 485 520 l 5
 485 -200 l 5xec
406 260 m 4
 406 392 332 460 263 460 c 4
 184 460 125 392 125 260 c 4
 125 128 184 60 263 60 c 4
 342 60 406 128 406 260 c 4
EndSplineSet
Fore
SplineSet
395 -200 m 1xdc
 395 55 l 1
 335.69140625 0.5634765625 l 1
 255.180664062 -18.6318359375 l 1
 86.28515625 59.6474609375 l 1
 27.6748046875 261.859375 l 1
 86.28515625 464.071289062 l 1
 255.180664062 542.349609375 l 1
 345.044921875 517.609375 l 1
 405 449 l 1
 405 520 l 1
 485 520 l 1
 485 -200 l 1
 395 -200 l 1xdc
260.283203125 465.890625 m 1
 159.819335938 414.360351562 l 1
 119.698242188 261.859375 l 1
 159.819335938 109.401367188 l 1
 260.283203125 57.912109375 l 1
 363.458984375 109.401367188 l 1
 406.227539062 261.859375 l 1
 359.663085938 414.360351562 l 1
 260.283203125 465.890625 l 1
EndSplineSet
Validated: 1
Colour: ffff00
EndChar

StartChar: r
Encoding: 114 114 81
Width: 385
Flags: HMW
HStem: 0 21G<66.2979 156.298 66.2979 66.2979> 450 70 450 85<256.798 300.798>
VStem: 66.2979 90<0 281>
LayerCount: 3
Back
SplineSet
155 0 m 5xb0
 65 0 l 5
 65 520 l 5
 146 520 l 5
 146 430 l 5
 179 500 223 535 288 535 c 4
 328 535 356 526 380 507 c 5
 353 428 l 5
 333 442 315 450 284 450 c 4xd0
 198 450 155 382 155 281 c 6
 155 0 l 5xb0
EndSplineSet
Fore
SplineSet
285.428710938 453.368164062 m 0xd0
 187.903320312 406.379882812 l 1
 155 281 l 1
 155 0 l 1
 65 5.0869140625 l 1
 65 520 l 1
 146 520 l 1
 146 430 l 1
 205.986328125 513.727539062 l 1
 291.909179688 540.348632812 l 1
 380 507 l 1
 353 431 l 5
 285.428710938 453.368164062 l 0xd0
EndSplineSet
Validated: 1
Colour: ffff00
EndChar

StartChar: s
Encoding: 115 115 82
Width: 493
Flags: HMW
HStem: -15 75<208 276.5 208 300> 460 75<201.5 272.5>
VStem: 40 86<373.5 412 373.5 435.5> 368 90<106 155>
LayerCount: 3
Back
SplineSet
35 150 m 5
 122 163 l 5
 130 108 165 60 251 60 c 4
 302 60 368 77 368 135 c 4
 368 175 350 196 297 210 c 6
 170 244 l 6
 101 263 40 295 40 381 c 4
 40 490 134 535 241 535 c 4
 365 535 430 474 438 385 c 5
 352 373 l 5
 344 430 306 460 239 460 c 4
 164 460 126 433 126 391 c 4
 126 356 159 339 190 331 c 6
 330 293 l 6
 395 275 458 240 458 143 c 4
 458 28 352 -15 248 -15 c 4
 121 -15 43 45 35 150 c 5
EndSplineSet
Fore
SplineSet
119.426757812 161.098632812 m 5
 155.391601562 87.53125 l 5
 250.997070312 56.0634765625 l 5
 330.146484375 72.12890625 l 5
 370.321289062 132.522460938 l 5
 354.36328125 180.668945312 l 5
 294 211 l 4
 165.859375 244.896484375 l 5
 75.626953125 287.94140625 l 5
 35.6533203125 383.416992188 l 5
 97.2607421875 503.674804688 l 5
 240.706054688 540.501953125 l 5
 385.502929688 498.061523438 l 5
 429.541015625 410.961914062 l 5
 353.822265625 375.251953125 l 5
 318.791992188 441.419921875 l 5
 237.283203125 463.650390625 l 5
 152.447265625 444.821289062 l 5
 123.508789062 393.537109375 l 5
 145.602539062 352 l 5
 213 325 l 4
 334.2265625 292.227539062 l 5
 421.828125 247.21875 l 5
 462.258789062 140.516601562 l 5
 394.931640625 15.9541015625 l 5
 247.936523438 -20.6513671875 l 5
 93.8798828125 23.3193359375 l 5
 42.9609375 125.361328125 l 5
 119.426757812 161.098632812 l 5
EndSplineSet
Validated: 1
Colour: ffff00
EndChar

StartChar: t
Encoding: 116 116 83
Width: 322
Flags: HMW
HStem: -10 80<207.597 225.597> 451 69<20.0967 94.0967 20.0967 94.0967 184.097 273.097> 680 20G<184.097 184.097>
VStem: 94.0967 90<152 451 520 657 657 657>
LayerCount: 3
Back
SplineSet
272 76 m 5
 282 0 l 5
 262 -6 235 -10 216 -10 c 4
 107 -10 94 50 94 152 c 6
 94 451 l 5
 20 451 l 5
 20 520 l 5
 94 520 l 5
 94 657 l 5
 184 700 l 5
 184 520 l 5
 273 520 l 5
 273 451 l 5
 184 451 l 5
 184 147 l 6
 184 102 184 70 231 70 c 4
 241 70 256 71 272 76 c 5
EndSplineSet
Fore
SplineSet
285.784179688 -6.974609375 m 5
 217.001953125 -16.5859375 l 5
 114.528320312 26.4404296875 l 5
 94 152 l 5
 94 451 l 5
 20 451 l 5
 20 520 l 5
 94 520 l 5
 94 700 l 5
 184 700 l 5
 184 520 l 5
 273 520 l 5
 273 451 l 5
 184 451 l 5
 184 152 l 4
 191.75390625 86.5361328125 l 5
 235.118164062 64.5673828125 l 5
 275.420898438 70.60546875 l 5
 285.801757812 -6.9580078125 l 5
 285.784179688 -6.974609375 l 5
EndSplineSet
Validated: 1
Colour: ffff00
EndChar

StartChar: u
Encoding: 117 117 84
Width: 555
Flags: HMW
HStem: -15 76<220.059 277.059> 0 61 500 20G<62.0586 152.059 152.059 152.059 397.059 487.059 487.059 487.059>
VStem: 62.0586 90<201 205 205 520> 397.059 90<237 520 0 520>
LayerCount: 3
Back
SplineSet
400 520 m 5xb8
 490 520 l 5
 490 0 l 5
 409 0 l 5
 409 75 l 5
 371 18 316 -15 244 -15 c 4
 100 -15 65 77 65 201 c 6
 65 520 l 5
 155 520 l 5
 155 205 l 6
 155 115 184 61 262 61 c 4x78
 344 61 400 123 400 237 c 6
 400 520 l 5xb8
EndSplineSet
Fore
SplineSet
491.4765625 520 m 5x38
 491.4765625 0 l 5
 410.4765625 0 l 5
 410.4765625 75 l 5
 339.522460938 3.7451171875 l 5
 242.323242188 -20.3232421875 l 5
 95.9541015625 42.3916015625 l 5
 62 202 l 5
 62 520 l 5
 152 520 l 5
 152 202.673828125 l 5
 176.458984375 96.1845703125 l 5
 260.806640625 57.15625 l 5
 362.4921875 103.329101562 l 5
 401.4765625 238.088867188 l 5
 401.4765625 520 l 5
 491.4765625 520 l 5x38
EndSplineSet
Validated: 1
Colour: ffff00
EndChar

StartChar: v
Encoding: 118 118 85
Width: 495
Flags: HMW
HStem: 0 21G<207 289 207 207> 500 20G<10 102 102 102 395 485 485 485>
LayerCount: 3
Fore
SplineSet
289 0 m 1
 207 0 l 1
 18 500 l 1
 98 528 l 1
 247 104 l 1
 398 528 l 1
 478 500 l 1
 289 0 l 1
EndSplineSet
Validated: 1
Colour: ffff00
EndChar

StartChar: w
Encoding: 119 119 86
Width: 731
Flags: HMW
HStem: 0 21G<167 260 167 167 468 468 468 559> 500 20G<10 101 101 101 321 412 412 412 636 721 721 721>
LayerCount: 3
Fore
SplineSet
260 0 m 1
 167 0 l 1
 16 504 l 1
 99 528 l 5
 214 108 l 1
 321 520 l 1
 412 520 l 1
 517 119 l 1
 639 528 l 1
 716 504 l 1
 559 0 l 1
 468 0 l 1
 368 399 l 1
 260 0 l 1
EndSplineSet
Validated: 1
Colour: ffff00
EndChar

StartChar: x
Encoding: 120 120 87
Width: 517
Flags: HMW
HStem: 0 21G<20 124 20 20 391 391 391 497> 500 20G<32 140 140 140 381 483 483 483>
LayerCount: 3
Fore
SplineSet
119 -8 m 5
 49 40.75 l 5
 205 266 l 5
 59 481 l 5
 134 528 l 5
 260 332 l 5
 387 528 l 5
 456 481 l 5
 307 269 l 5
 468 41 l 5
 396 -8 l 5
 257 200 l 5
 119 -8 l 5
EndSplineSet
Validated: 1
Colour: ffff00
EndChar

StartChar: y
Encoding: 121 121 88
Width: 500
Flags: HMW
HStem: -210 79<109.5 121.5 94.5 160.5> 500 20G<10 103 103 103 402 490 490 490>
LayerCount: 3
Back
SplineSet
61 -200 m 5
 51 -122 l 5
 68 -128 87 -131 102 -131 c 4
 141 -131 167 -110 189 -58 c 6
 212 5 l 5
 10 520 l 5
 103 520 l 5
 254 115 l 5
 402 520 l 5
 490 520 l 5
 276 -56 l 6
 242 -147 203 -210 118 -210 c 4
 101 -210 80 -207 61 -200 c 5
EndSplineSet
Fore
SplineSet
106 -132 m 5
 152.963867188 -112.497070312 l 5
 191.5 -51.4365234375 l 5
 212.116210938 5.037109375 l 5
 19 498 l 5
 100 528 l 5
 254.056640625 115.017578125 l 5
 405 528 l 5
 482 498 l 5
 275.240234375 -57.53125 l 5
 216.19140625 -167.111328125 l 5
 117.978515625 -210.002929688 l 5
 60.9462890625 -200.080078125 l 5
 77 -127 l 5
 106 -132 l 5
EndSplineSet
Validated: 1
Colour: ffff00
EndChar

StartChar: z
Encoding: 122 122 89
Width: 499
Flags: MW
HStem: 0 75<141 459 40 40> 445 75<59 347 59 453 59 453>
LayerCount: 3
Fore
SplineSet
459 0 m 1
 40 0 l 1
 40 75 l 1
 347 445 l 1
 59 445 l 1
 59 520 l 1
 453 520 l 1
 453 445 l 1
 141 75 l 1
 459 75 l 1
 459 0 l 1
EndSplineSet
Validated: 1
Colour: ffff00
EndChar

StartChar: A
Encoding: 65 65 90
Width: 675
Flags: HMW
HStem: 0 21G<10 107 10 10 562 665 562 562> 175 85<205 466 205 497 173 466> 700 20G<290 387 387 387>
LayerCount: 3
Back
SplineSet
290 720 m 5
 387 720 l 5
 656 23.8330078125 l 5
 565 -8 l 5
 497 175 l 5
 173 175 l 5
 104 -8 l 5
 19 24 l 5
 290 720 l 5
338 611 m 5
 205 260 l 5
 466 260 l 5
 338 611 l 5
EndSplineSet
Fore
SplineSet
167 159 m 6
 104 -8 l 5
 19 24 l 5
 290 720 l 5
 387 720 l 5
 656 23.8330078125 l 5
 565 -8 l 5
 504 156 l 6
 497 175 l 5
 173 175 l 5
 167 159 l 6
466 260 m 5
 338 611 l 5
 205 260 l 5
 466 260 l 5
EndSplineSet
Validated: 1
Colour: ffff00
EndChar

StartChar: B
Encoding: 66 66 91
Width: 674
Flags: HMW
HStem: 0 85<174.74 352.74 174.74 352.74> 325 85<174.74 329.74 174.74 329.74 329.74 339.74> 635 85<174.74 174.74 174.74 317.74>
VStem: 79.7402 95<85 325 410 635> 492.74 98<499 570> 522.74 101<159 250.5 132 256.5>
LayerCount: 3
Back
SplineSet
352 0 m 6xf4
 79 0 l 5
 79 720 l 5
 338 720 l 6
 484 720 590 661 590 533 c 4
 590 465 559 402 480 376 c 5
 566 355 623 293 623 208 c 4
 623 56 515 0 352 0 c 6xf4
174 635 m 5xf8
 174 410 l 5xf4
 329 410 l 6
 412 410 492 433 492 521 c 4
 492 619 411 635 317 635 c 6
 174 635 l 5xf8
174 325 m 5
 174 85 l 5
 352 85 l 6xf8
 450 85 522 110 522 208 c 4
 522 305 432 325 339 325 c 6
 174 325 l 5
EndSplineSet
Fore
SplineSet
78.55859375 -0.28125 m 5xf0
 78.55859375 720.201171875 l 5
 341.805664062 720.201171875 l 5
 526.084960938 680.772460938 l 5
 598.737304688 536.435546875 l 5
 572.89453125 440.323242188 l 5
 480.643554688 376.2890625 l 5
 592.498046875 315.063476562 l 5
 632.586914062 204.916015625 l 5
 556.702148438 40.677734375 l 5
 356.178710938 -0.28125 l 5
 78.55859375 -0.28125 l 5xf0
174.4296875 410.07421875 m 5
 332.534179688 410.07421875 l 5
 447.362304688 434.028320312 l 5
 498.720703125 524.274414062 l 5
 445.44921875 619.877929688 l 5
 320.288085938 634.536132812 l 5
 174.259765625 634.536132812 l 5
 174.4296875 410.07421875 l 5
174.4296875 84.5537109375 m 5
 356.178710938 84.5537109375 l 5
 480.318359375 104.8046875 l 5
 529.5078125 205.000976562 l 5
 471.770507812 301.786132812 l 5
 342.911132812 325.32421875 l 5
 174.598632812 325.32421875 l 5
 174.4296875 84.5537109375 l 5
EndSplineSet
Validated: 1
Colour: ffff00
EndChar

StartChar: C
Encoding: 67 67 92
Width: 734
Flags: HMW
HStem: -15 80<303 437 303 465> 655 80<308 442>
VStem: 50 100<276.5 443.5 276.5 463.5>
LayerCount: 3
Back
SplineSet
150 360 m 4
 150 193 223 65 383 65 c 4
 491 65 558 132 587 233 c 5
 684 214 l 5
 652 79 547 -15 383 -15 c 4
 163 -15 50 153 50 360 c 4
 50 567 163 735 383 735 c 4
 547 735 653 644 684 505 c 5
 587 486 l 5
 566 586 501 655 383 655 c 4
 233 655 150 527 150 360 c 4
EndSplineSet
Fore
SplineSet
383.485351562 59.046875 m 5
 517.767578125 106.080078125 l 5
 591.513671875 230.420898438 l 5
 674.16015625 184.560546875 l 5
 587.443359375 42.625 l 5
 383.485351562 -22.513671875 l 5
 129.475585938 89.5546875 l 5
 43.7998046875 359.950195312 l 5
 129.475585938 630.415039062 l 5
 383.485351562 742.5 l 5
 587.889648438 678.381835938 l 5
 676.200195312 531.360351562 l 5
 591.513671875 488.543945312 l 5
 524.592773438 613.012695312 l 5
 383.485351562 660.9375 l 5
 207.25390625 574.3671875 l 5
 145.7734375 360.03515625 l 5
 203.39453125 145.627929688 l 5
 383.485351562 59.046875 l 5
EndSplineSet
Validated: 1
Colour: ffff00
EndChar

StartChar: D
Encoding: 68 68 93
Width: 709
Flags: HMW
HStem: 0 84<178.75 308.75 308.75 318.75> 635 85<178.75 178.75 178.75 305.75>
VStem: 83.75 95<84 635 84 720 84 720> 564.75 98<269.5 465>
LayerCount: 3
Back
SplineSet
315 0 m 6
 80 0 l 5
 80 720 l 5
 304 720 l 6
 536 720 659 594 659 362 c 4
 659 137 547 0 315 0 c 6
175 635 m 5
 175 84 l 5
 305 84 l 6
 481 84 561 176 561 363 c 4
 561 567 460 635 302 635 c 6
 175 635 l 5
EndSplineSet
Fore
SplineSet
80 0 m 1
 80 720 l 1
 306 720 l 1
 576.282226562 633.374023438 l 1
 668.624023438 362.084960938 l 1
 581.926757812 91.3662109375 l 1
 319 0 l 1
 80 0 l 1
175 84 m 1
 309 84 l 1
 505.435546875 149.224609375 l 1
 568.690429688 363.021484375 l 1
 497.005859375 579.776367188 l 1
 306 635 l 1
 175 635 l 1
 175 84 l 1
EndSplineSet
Validated: 1
Colour: ffff00
EndChar

StartChar: E
Encoding: 69 69 94
Width: 657
Flags: HMW
HStem: 0 85<175 587 175 587> 325 85<175 527 175 527> 635 85<175 577 175 175>
VStem: 80 95<85 325 410 635>
LayerCount: 3
Fore
SplineSet
587 0 m 5
 80 0 l 5
 80 720 l 5
 577 720 l 5
 577 635 l 5
 175 635 l 5
 175 410 l 5
 527 410 l 5
 527 325 l 5
 175 325 l 5
 175 85 l 5
 587 85 l 5
 587 0 l 5
EndSplineSet
Validated: 1
Colour: ffff00
EndChar

StartChar: F
Encoding: 70 70 95
Width: 611
Flags: MW
HStem: 0 21G<80 175 80 80> 325 85<175 511 175 511> 635 85<175 561 175 175>
VStem: 80 95<0 325 410 635>
LayerCount: 3
Fore
SplineSet
175 0 m 1
 80 0 l 1
 80 720 l 1
 561 720 l 1
 561 635 l 1
 175 635 l 1
 175 410 l 1
 511 410 l 1
 511 325 l 1
 175 325 l 1
 175 0 l 1
EndSplineSet
Validated: 1
Colour: ffff00
EndChar

StartChar: G
Encoding: 71 71 96
Width: 760
Flags: HMW
HStem: -15 80<326 440.5 326 465.5> 281 84<395 608 395 700> 655 80<316 441.5>
VStem: 50 100<276.5 443.5 276.5 463.5> 608 92<146 281 281 281>
LayerCount: 3
Back
SplineSet
150 360 m 4
 150 193 246 65 406 65 c 4
 475 65 571 92 608 146 c 5
 608 281 l 5
 395 281 l 5
 395 365 l 5
 700 365 l 5
 700 112 l 5
 649 40 528 -15 403 -15 c 4
 183 -15 50 153 50 360 c 4
 50 567 173 735 393 735 c 4
 557 735 659 659 690 520 c 5
 595 497 l 5
 562 614 492 655 391 655 c 4
 241 655 150 527 150 360 c 4
EndSplineSet
Fore
SplineSet
699.45703125 107.015625 m 5
 403.512695312 -22.513671875 l 1
 139.340820312 89.5546875 l 1
 43.5 359.950195312 l 1
 134.268554688 630.415039062 l 1
 393.306640625 742.5 l 1
 595.616210938 686.02734375 l 1
 679.98046875 549.719726562 l 1
 599.379882812 499.771484375 l 1
 521.315429688 625.098632812 l 1
 391.265625 660.9375 l 1
 210.952148438 574.3671875 l 1
 145.388671875 360.03515625 l 1
 214 146.985351562 l 1
 406.573242188 59.1328125 l 1
 608 152 l 1
 607.647460938 281.409179688 l 1
 395.34765625 281.409179688 l 1
 395.34765625 365.053710938 l 1
 699.45703125 365.053710938 l 5
 699.45703125 107.015625 l 5
EndSplineSet
Validated: 1
Colour: ffff00
EndChar

StartChar: H
Encoding: 72 72 97
Width: 722
Flags: MW
HStem: 0 21G<80 175 80 80 547 547 547 642> 325 85<175 547 175 547> 700 20G<80 175 175 175 547 642 642 642>
VStem: 80 95<0 325 410 720> 547 95<0 325 325 325 410 720 0 720>
LayerCount: 3
Fore
SplineSet
175 0 m 5
 80 0 l 5
 80 720 l 5
 175 720 l 5
 175 410 l 5
 547 410 l 5
 547 720 l 5
 642 720 l 5
 642 0 l 5
 547 0 l 5
 547 325 l 5
 175 325 l 5
 175 0 l 5
EndSplineSet
Validated: 1
Colour: ffff00
EndChar

StartChar: I
Encoding: 73 73 98
Width: 255
Flags: MW
HStem: 0 21G<80 175 80 80> 700 20G<80 175 175 175>
VStem: 80 95<0 720>
LayerCount: 3
Fore
SplineSet
175 0 m 1
 80 0 l 1
 80 720 l 1
 175 720 l 1
 175 0 l 1
EndSplineSet
Validated: 1
Colour: ffff00
EndChar

StartChar: J
Encoding: 74 74 99
Width: 516
Flags: HMW
HStem: -15 80<179.272 269.772 179.272 290.772> 700 20G<338.772 433.772 433.772 433.772>
VStem: 18.7725 86<193 205> 338.772 95<223 228 228 720>
LayerCount: 3
Back
SplineSet
21 193 m 5
 107 205 l 5
 109 132 139 65 224 65 c 4
 320 65 341 140 341 223 c 6
 341 720 l 5
 436 720 l 5
 436 228 l 6
 436 71 362 -15 224 -15 c 4
 93 -15 18 65 21 193 c 5
EndSplineSet
Fore
SplineSet
102.4375 202.087890625 m 5
 130.322265625 102.78515625 l 5
 221.67578125 59.291015625 l 5
 318.046875 108.109375 l 5
 341 223.903320312 l 5
 341 720 l 5
 436 720 l 5
 436 219 l 5
 382.599609375 41.5078125 l 5
 221.67578125 -22.35546875 l 5
 66.908203125 34.7548828125 l 5
 18.662109375 178.58984375 l 5
 102.4375 202.087890625 l 5
EndSplineSet
Validated: 1
Colour: ffff00
EndChar

StartChar: K
Encoding: 75 75 100
Width: 698
Flags: HMW
HStem: 0 21G<80 175 80 80 533 533 533 658> 700 20G<80 175 175 175 516 638 638 638>
VStem: 80 95<0 238 352 720>
LayerCount: 3
Fore
SplineSet
175 0 m 5
 80 0 l 5
 80 720 l 5
 175 720 l 5
 175 352 l 5
 524 728.090820312 l 5
 589 668 l 5
 339 409 l 5
 618 51 l 5
 539 -8 l 5
 274 342 l 5
 175 238 l 5
 175 0 l 5
EndSplineSet
Validated: 1
Colour: ffff00
EndChar

StartChar: L
Encoding: 76 76 101
Width: 608
Flags: MW
HStem: 0 85<175 578 175 578> 700 20G<80 175 175 175>
VStem: 80 95<85 720 85 720 85 720>
LayerCount: 3
Fore
SplineSet
578 0 m 1
 80 0 l 1
 80 720 l 1
 175 720 l 1
 175 85 l 1
 578 85 l 1
 578 0 l 1
EndSplineSet
Validated: 1
Colour: ffff00
EndChar

StartChar: M
Encoding: 77 77 102
Width: 863
Flags: HMW
HStem: 0 21G<80 175 80 80 389 389 389 474 688 688 688 783> 700 20G<80 219 219 219 652 783 783 783>
VStem: 80 95<0 598> 688 95<0 598 598 598>
LayerCount: 3
Fore
SplineSet
175 0 m 5
 80 0 l 5
 80 720 l 5
 219 720 l 5
 433 123 l 5
 652 720 l 5
 783 720 l 5
 783 0 l 5
 688 0 l 5
 688 598 l 5
 474 0 l 5
 389 0 l 5
 175 598 l 5
 175 0 l 5
EndSplineSet
Validated: 1
Colour: ffff00
EndChar

StartChar: N
Encoding: 78 78 103
Width: 724
Flags: HMW
HStem: 0 21G<80 171 80 80 547 547 547 644> 700 20G<80 177 177 177 553 644 644 644>
VStem: 80 91<0 566> 553 91<154 720 0 720>
LayerCount: 3
Fore
SplineSet
171 0 m 5
 80 0 l 5
 80 720 l 5
 177 720 l 5
 553 154 l 5
 553 720 l 5
 644 720 l 5
 644 0 l 5
 547 0 l 5
 171 566 l 5
 171 0 l 5
EndSplineSet
Validated: 1
Colour: ffff00
EndChar

StartChar: O
Encoding: 79 79 104
Width: 785
Flags: HMW
HStem: -15 80<313 467.5 313 502.5> 655 80<318 467.5>
VStem: 50 100<276.5 443.5 276.5 463.5> 635 100<276.5 443.5>
LayerCount: 3
Back
SplineSet
50 360 m 4
 50 567 173 735 393 735 c 4
 612 735 735 567 735 360 c 4
 735 153 612 -15 393 -15 c 4
 173 -15 50 153 50 360 c 4
150 360 m 4
 150 193 233 65 393 65 c 4
 542 65 635 193 635 360 c 4
 635 527 542 655 393 655 c 4
 243 655 150 527 150 360 c 4
EndSplineSet
Fore
SplineSet
392.956054688 742.5 m 5
 651.184570312 630.415039062 l 5
 741.911132812 359.950195312 l 5
 651.184570312 89.5625 l 5
 392.956054688 -22.513671875 l 5
 133.885742188 89.5625 l 5
 43.1494140625 359.950195312 l 5
 133.916992188 630.415039062 l 5
 392.956054688 742.5 l 5
392.956054688 59.1328125 m 5
 573.322265625 145.703125 l 5
 639.766601562 360.03515625 l 5
 573.322265625 574.3671875 l 5
 392.956054688 660.9375 l 5
 211.588867188 574.3671875 l 5
 145.038085938 360.03515625 l 5
 207.793945312 145.703125 l 5
 392.956054688 59.1328125 l 5
EndSplineSet
Validated: 1
Colour: ffff00
EndChar

StartChar: P
Encoding: 80 80 105
Width: 657
Flags: HMW
HStem: 0 21G<83.2305 178.23 83.2305 83.2305> 290 85<178.23 341.23 178.23 343.23> 635 85<178.23 178.23 178.23 333.23 333.23 341.23>
VStem: 83.2305 95<0 290 375 635> 512.23 98<462.5 560>
LayerCount: 3
Back
SplineSet
175 0 m 5
 80 0 l 5
 80 720 l 5
 330 720 l 6
 475 720 607 674 607 509 c 4
 607 364 517 290 338 290 c 6
 175 290 l 5
 175 0 l 5
175 635 m 5
 175 375 l 5
 340 375 l 6
 453 375 509 419 509 506 c 4
 509 614 433 635 338 635 c 6
 175 635 l 5
EndSplineSet
Fore
SplineSet
80 0 m 5
 80 720 l 5
 334 720 l 5
 529.75 682.685546875 l 5
 615.553710938 511.94140625 l 5
 546.802734375 344.811523438 l 5
 341 290 l 5
 175 290 l 5
 175 0 l 5
 80 0 l 5
175 375.352539062 m 5
 343.3125 375.352539062 l 5
 472.650390625 408.896484375 l 5
 515.622070312 508.96484375 l 5
 464.76171875 613.049804688 l 5
 341 641 l 5
 175 641 l 5
 175 375.352539062 l 5
EndSplineSet
Validated: 1
Colour: ffff00
EndChar

StartChar: Q
Encoding: 81 81 106
Width: 785
Flags: HMW
HStem: -59 21G<645 645> -15 80<313 415 313 426.5> 655 80<318 467.5>
VStem: 50 100<276.5 443.5 276.5 463.5> 635 100<320 443.5>
LayerCount: 3
Back
SplineSet
393.040039062 742.940429688 m 5
 651.227539062 630.854492188 l 5
 741.911132812 360.390625 l 5
 716.5234375 205.380859375 l 5
 642.913085938 80.9208984375 l 5
 719.458007812 -6.765625 l 5
 650.05859375 -66.9794921875 l 5
 570.452148438 22.7470703125 l 5
 489.017578125 -10.345703125 l 5
 393.040039062 -22.0732421875 l 5
 133.896484375 89.9951171875 l 5
 43.1494140625 360.390625 l 5
 133.896484375 630.854492188 l 5
 393.040039062 742.940429688 l 5
504.11328125 239.111328125 m 5
 578.616210938 153.381835938 l 5
 624.161132812 246.24609375 l 5
 639.852539062 360.475585938 l 5
 573.450195312 574.807617188 l 5
 393.125 661.377929688 l 5
 211.727539062 574.807617188 l 5
 145.208007812 360.475585938 l 5
 207.962890625 146.178710938 l 5
 393.125 59.5732421875 l 5
 456.422851562 67.7373046875 l 5
 511.427734375 91.2109375 l 5
 434.969726562 178.896484375 l 5
 504.11328125 239.111328125 l 5
50 360 m 4
 50 567 173 735 393 735 c 4
 612 735 735 567 735 360 c 4
 735 252 701 154 638 86 c 5
 713 0 l 5
 645 -59 l 5
 567 29 l 5
 519 1 460 -15 393 -15 c 4
 173 -15 50 153 50 360 c 4
434 182 m 5
 502 241 l 5
 575 157 l 5
 614 209 635 280 635 360 c 4
 635 527 542 655 393 655 c 4
 243 655 150 527 150 360 c 4
 150 193 233 65 393 65 c 4
 437 65 476 76 509 96 c 5
 434 182 l 5
EndSplineSet
Fore
SplineSet
392.956054688 742.5 m 1
 651.184570312 630.415039062 l 1
 741.911132812 359.950195312 l 1
 651.184570312 89.5625 l 1
 650.619541563 89.3172665908 l 1
 729 0 l 1
 660 -61 l 1
 561.25550894 50.5315474559 l 1
 392.956054688 -22.513671875 l 1
 133.885742188 89.5625 l 1
 43.1494140625 359.950195312 l 1
 133.916992188 630.415039062 l 1
 392.956054688 742.5 l 1
580.583457188 169.125827855 m 1
 639.766601562 360.03515625 l 1
 573.322265625 574.3671875 l 1
 392.956054688 660.9375 l 1
 211.588867188 574.3671875 l 1
 145.038085938 360.03515625 l 1
 207.793945312 145.703125 l 1
 392.956054688 59.1328125 l 1
 505.986532661 113.384014814 l 1
 445 184 l 1
 514 245 l 1
 580.583457188 169.125827855 l 1
EndSplineSet
Validated: 1
Colour: ffff00
EndChar

StartChar: R
Encoding: 82 82 107
Width: 683
Flags: HMW
HStem: 0 21G<80 80 80 175 553 553 553 667> 290 85<175 268 175 330> 635 85<175 175 175 320 320 328>
VStem: 80 95<0 290 0 375 375 635> 499 98<462.5 555>
LayerCount: 3
Back
SplineSet
80.1669921875 720 m 5
 320.137695312 720 l 5
 512.936523438 674.482421875 l 5
 597.046875 508.961914062 l 5
 551.46875 378.586914062 l 5
 415.025390625 314.93359375 l 5
 506.370117188 256.317382812 l 5
 569.948242188 166.932617188 l 5
 649 31 l 5
 561 -15 l 5
 484.982421875 120.90625 l 5
 397.504882812 242.559570312 l 5
 267.94140625 289.919921875 l 5
 174.971679688 289.919921875 l 5
 174.971679688 -0.080078125 l 5
 80 -0.080078125 l 5
 80.1669921875 720 l 5
175.137695312 375.051757812 m 5
 330.143554688 375.051757812 l 5
 456.904296875 407.9375 l 5
 498.990234375 506.043945312 l 5
 449.12890625 607.27734375 l 5
 327.975585938 635.034179688 l 5
 174.971679688 635.034179688 l 5
 175.137695312 375.051757812 l 5
80 0 m 5
 80 720 l 5
 320 720 l 6
 465 720 597 669 597 509 c 4
 597 399 536 336 415 315 c 5
 488 294 534 229 570 167 c 6
 667 0 l 5
 553 0 l 5
 485 121 l 6
 430 220 379 290 268 290 c 6
 175 290 l 5
 175 0 l 5
 80 0 l 5
175 635 m 5
 175 375 l 5
 330 375 l 6
 443 375 499 419 499 506 c 4
 499 604 423 635 328 635 c 6
 175 635 l 5
EndSplineSet
Fore
SplineSet
175 375.352539062 m 5
 343.3125 375.352539062 l 5
 472.650390625 408.896484375 l 5
 515.622070312 508.96484375 l 5
 464.76171875 613.049804688 l 5
 341 641 l 5
 175 641 l 5
 175 375.352539062 l 5
80 0 m 5
 80 720 l 5
 334 720 l 5
 529.75 682.685546875 l 5
 615.553710938 511.94140625 l 5
 546.802734375 344.811523438 l 5
 479 327 l 5
 645 38 l 5
 557 -8 l 5
 383 302 l 5
 336 290 l 5
 175 290 l 5
 175 0 l 5
 80 0 l 5
EndSplineSet
Validated: 1
Colour: ffff00
EndChar

StartChar: S
Encoding: 83 83 108
Width: 665
Flags: HMW
HStem: -15 80<289.5 398 289.5 413.5> 510 225 655 80<290.5 381.5>
VStem: 50 94<230 238> 77 92<518.5 579 518.5 599.5> 513 102<155.5 217>
LayerCount: 3
Back
SplineSet
50 230 m 5xd4
 144 238 l 5
 152 123 233 65 346 65 c 4
 450 65 513 117 513 194 c 4
 513 240 490 278 434 300 c 4
 396 315 268 345 225 359 c 4xd4
 96 401 77 463 77 531 c 4
 77 668 203 735 324 735 c 4
 484 735 583 664 593 514 c 5
 497 507 l 5
 488 599 435 655 328 655 c 4
 253 655 169 621 169 537 c 4
 169 500 189 469 230 454 c 4
 263 441 369 411 438 392 c 4
 543 362 615 309 615 199 c 4
 615 52 477 -15 350 -15 c 4xac
 169 -15 61 67 50 230 c 5xd4
EndSplineSet
Fore
SplineSet
139.908203125 235.608398438 m 5xb4
 202.823242188 103.391601562 l 5
 345.982421875 59.1318359375 l 5
 470.9609375 95.4814453125 l 5
 516.334960938 190.702148438 l 5
 495.990234375 255.067382812 l 5
 432.200195312 299.87109375 l 5
 222.576171875 359.014648438 l 5
 97.8408203125 436.791015625 l 5
 71.7841796875 534.469726562 l 5
 151.463867188 690.8828125 l 5
 323.698242188 742.499023438 l 5
 518.237304688 687.18359375 l 5
 584.828125 542.579101562 l 5
 500.345703125 509.9765625 l 5
 451.623046875 620.666992188 l 5
 327.952148438 660.9375 l 5
 218.228515625 632.879882812 l 5
 165.848632812 540.592773438 l 5
 182.791992188 488.73046875 l 5
 233.49609375 454.141601562 l 4
 440.130859375 392.608398438 l 5
 570.595703125 324.82421875 l 5
 620.689453125 195.805664062 l 5
 534.099609375 30.4619140625 l 5
 350.234375 -22.4296875 l 5
 132.232421875 40.1572265625 l 5
 56.46875 199.859375 l 5
 139.908203125 235.608398438 l 5xb4
EndSplineSet
Validated: 1
Colour: ffff00
EndChar

StartChar: T
Encoding: 84 84 109
Width: 619
Flags: MW
HStem: 0 21G<262 357 262 262> 635 85<20 262 20 599 357 357 357 599>
VStem: 262 95<0 635>
LayerCount: 3
Fore
SplineSet
357 0 m 5
 262 0 l 5
 262 635 l 5
 20 635 l 5
 20 720 l 5
 599 720 l 5
 599 635 l 5
 357 635 l 5
 357 0 l 5
EndSplineSet
Validated: 1
Colour: ffff00
EndChar

StartChar: U
Encoding: 85 85 110
Width: 723
Flags: HMW
HStem: -15 85<296.5 429.5 296.5 460.5> 700 20G<80 175 175 175 548 643 643 643>
VStem: 80 95<302 720> 548 95<297 302 302 720>
LayerCount: 3
Back
SplineSet
594 297 m 6
 594 720 l 5
 689 720 l 5
 689 302 l 6
 689 117 605 -15 408 -15 c 4
 213 -15 126 117 126 302 c 6
 126 720 l 5
 221 720 l 5
 221 297 l 6
 221 159 276 70 409 70 c 4
 542 70 594 159 594 297 c 6
EndSplineSet
Fore
SplineSet
642.704101562 720.349609375 m 1
 642.704101562 301 l 1
 580.728515625 68.5537109375 l 1
 362.08984375 -22.35546875 l 1
 143.630859375 68.5537109375 l 1
 79.369140625 302.888671875 l 1
 79.369140625 720.349609375 l 1
 175.325195312 720.349609375 l 1
 175.325195312 295.897460938 l 1
 216.34765625 127.322265625 l 1
 363.110351562 64.3095703125 l 1
 508.405273438 127.288085938 l 1
 548.833007812 297.78515625 l 1
 548.662109375 720.349609375 l 1
 642.704101562 720.349609375 l 1
EndSplineSet
Validated: 1
Colour: ffff00
EndChar

StartChar: V
Encoding: 86 86 111
Width: 675
Flags: HMW
HStem: 0 21G<288 385 288 288> 700 20G<10 113 113 113 568 665 665 665>
LayerCount: 3
Fore
SplineSet
385 0 m 1
 288 0 l 1
 19 695 l 1
 109 728.090820312 l 1
 337 109 l 1
 571 728.090820312 l 1
 657 695 l 1
 385 0 l 1
EndSplineSet
Validated: 1
Colour: ffff00
EndChar

StartChar: W
Encoding: 87 87 112
Width: 940
Flags: HMW
HStem: 0 21G<198 293 198 198 647 647 647 742> 700 20G<10 107 107 107 413 527 527 527 834 930 930 930>
LayerCount: 3
Fore
SplineSet
293 0 m 1
 198 0 l 1
 14 706 l 1
 106 728.090820312 l 1
 250 115 l 1
 413 720 l 1
 527 720 l 1
 695 115 l 1
 836 728.090820312 l 1
 926 706 l 1
 742 0 l 1
 647 0 l 1
 470 628 l 1
 293 0 l 1
EndSplineSet
Validated: 1
Colour: ffff00
EndChar

StartChar: X
Encoding: 88 88 113
Width: 697
Flags: HMW
HStem: 0 21G<20 134 20 20 559 559 559 677> 700 20G<53 166 166 166 554 657 657 657>
LayerCount: 3
Fore
SplineSet
127 -8 m 5
 54 46.75 l 5
 297 373 l 5
 84 676 l 5
 161 728.090820312 l 5
 353 444 l 5
 559 728.090820312 l 5
 625 676 l 5
 406 378 l 5
 644 46.75 l 5
 565 -8 l 5
 348 303 l 5
 127 -8 l 5
EndSplineSet
Validated: 1
Colour: ffff00
EndChar

StartChar: Y
Encoding: 89 89 114
Width: 675
Flags: HMW
HStem: 0 21G<290 385 290 290> 700 20G<10 125 125 125 555 665 665 665>
VStem: 290 95<0 303>
LayerCount: 3
Fore
SplineSet
385 0 m 5
 290 0 l 5
 290 303 l 5
 37 679 l 5
 119 728.090820312 l 5
 342 383 l 5
 561 728.090820312 l 5
 638 679 l 5
 385 303 l 5
 385 0 l 5
EndSplineSet
Validated: 1
Colour: ffff00
EndChar

StartChar: Z
Encoding: 90 90 115
Width: 672
Flags: MW
HStem: 0 85<169 612 60 60> 635 85<80 488 80 602 80 602>
LayerCount: 3
Fore
SplineSet
612 0 m 1
 60 0 l 1
 60 85 l 1
 488 635 l 1
 80 635 l 1
 80 720 l 1
 602 720 l 1
 602 635 l 1
 169 85 l 1
 612 85 l 1
 612 0 l 1
EndSplineSet
Validated: 1
Colour: ffff00
EndChar

StartChar: afii10068
Encoding: 1075 1075 116
Width: 421
Flags: HMW
HStem: 0 21G<65 65 65 153> 445 75<153 401 153 153>
VStem: 65 88<0 445 0 520 0 520>
LayerCount: 3
Back
SplineSet
65 0 m 5
 65 520 l 5
 401 520 l 5
 401 445 l 5
 153 445 l 5
 153 0 l 5
 65 0 l 5
EndSplineSet
Fore
SplineSet
65 0 m 5
 65 520 l 5
 401 520 l 5
 401 445 l 5
 153 445 l 5
 153 0 l 5
 65 0 l 5
EndSplineSet
Validated: 1
Colour: ffff00
EndChar

StartChar: zero
Encoding: 48 48 117
Width: 556
Flags: HMW
HStem: -15 75<262.5 332.5 262.5 362.5> 660 75<223.5 293>
VStem: 45 90<324.5 443.5 324.5 468.5> 421 90<276.5 396>
LayerCount: 3
Back
SplineSet
45 360 m 4
 45 577 109 735 278 735 c 4
 447 735 511 577 511 360 c 4
 511 143 447 -15 278 -15 c 4
 109 -15 45 143 45 360 c 4
421 360 m 4
 421 432 414 498 398 549 c 5
 203 89 l 5
 222 70 247 60 278 60 c 4
 387 60 421 193 421 360 c 4
135 360 m 4
 135 289 141 223 156 172 c 5
 352 631 l 5
 333 650 308 660 278 660 c 4
 169 660 135 527 135 360 c 4
EndSplineSet
Fore
SplineSet
278.05078125 742.5 m 1
 461.553710938 634.241210938 l 1
 515.76171875 359.950195312 l 1
 461.553710938 85.7021484375 l 1
 278.05078125 -22.513671875 l 1
 94.5791015625 85.7353515625 l 1
 40.3388671875 359.950195312 l 1
 94.5791015625 634.241210938 l 1
 278.05078125 742.5 l 1
353.744140625 636.444335938 m 1
 278.135742188 665.999023438 l 1
 163.521484375 576.875976562 l 1
 132.276367188 359.993164062 l 1
 153.708984375 168.25 l 1
 353.744140625 636.444335938 l 1
201.591796875 83.541015625 m 1
 277.96484375 53.9873046875 l 1
 392.643554688 143.109375 l 1
 423.82421875 359.993164062 l 1
 400.520507812 552.755859375 l 1
 201.591796875 83.541015625 l 1
EndSplineSet
Validated: 1
Colour: ffff00
EndChar

StartChar: one
Encoding: 49 49 118
Width: 512
Flags: HMW
HStem: 0 21G<233 328 233 233> 700 20G<254 328 328 328>
VStem: 233 95<0 555 555 555>
LayerCount: 3
Back
SplineSet
328 720 m 5
 328 0 l 5
 233 0 l 5
 233 555 l 5
 206 498 145 450 67 450 c 5
 67 535 l 5
 170 545 239 638 254 720 c 5
 328 720 l 5
EndSplineSet
Fore
SplineSet
327.983398438 -0.080078125 m 1
 232.845703125 -0.080078125 l 1
 232.845703125 554.905273438 l 1
 169.02734375 481.029296875 l 1
 100 460 l 1
 67 534.977539062 l 1
 193.384765625 600.47265625 l 1
 253.857421875 720 l 1
 327.983398438 720 l 1
 327.983398438 -0.080078125 l 1
EndSplineSet
Validated: 1
Colour: ffff00
EndChar

StartChar: two
Encoding: 50 50 119
Width: 556
Flags: HMW
HStem: 0 85<148 496 148 496> 655 80<231.5 317>
VStem: 50 90<502 512> 405 90<487 560>
LayerCount: 3
Back
SplineSet
148 85 m 5
 496 85 l 5
 496 0 l 5
 36 0 l 5
 33 171 143 229 262 322 c 4
 348 389 405 452 405 522 c 4
 405 598 359 655 275 655 c 4
 188 655 141 590 140 502 c 5
 50 512 l 5
 58 648 142 735 277 735 c 4
 409 735 495 657 495 520 c 4
 495 411 402 318 315 256 c 4
 239 202 157 144 148 85 c 5
EndSplineSet
Fore
SplineSet
495.698242188 -0.35546875 m 1
 42 0 l 1
 42 75 l 0
 100.022460938 186.725585938 l 1
 269.6484375 328.426757812 l 0
 368.41796875 423.62109375 l 1
 407.825195312 525.134765625 l 1
 373.646484375 622.013671875 l 1
 275.233398438 660.788085938 l 1
 173.47265625 616.434570312 l 1
 137.540039062 504.723632812 l 1
 53.8388671875 536.310546875 l 1
 112.908203125 680.65625 l 1
 277.274414062 742.349609375 l 1
 438.921875 685.112304688 l 1
 499.592773438 523.008789062 l 1
 441.079101562 370.422851562 l 1
 308.963867188 248.352539062 l 0
 204.21484375 167.002929688 l 1
 147.705078125 85.3095703125 l 1
 495.698242188 85.3095703125 l 1
 495.698242188 -0.35546875 l 1
EndSplineSet
Validated: 1
Colour: ffff00
EndChar

StartChar: three
Encoding: 51 51 120
Width: 556
Flags: HMW
HStem: -15 80<228 317.5 228 342> 356 75<230 272 230 272> 658 77<231 306.5>
VStem: 40 94<189 202> 230 249<356 612 431 612> 384 95<515.5 580.5> 414 92<169.5 250.5>
LayerCount: 3
Back
SplineSet
424 431 m 5xf8
 466 431 l 6
 538 431 578 483 578 548 c 4
 578 613 535 658 466 658 c 4
 384 658 343 596 343 523 c 5
 252 535 l 5
 262 659 345 735 464 735 c 4
 583 735 673 674 673 550 c 4xf4
 673 472 628 424 565 399 c 5
 650 375 700 302 700 207 c 4
 700 77 606 -15 466 -15 c 4
 330 -15 239 65 234 189 c 5
 328 202 l 5
 331 125 378 65 466 65 c 4
 557 65 608 129 608 210 c 4xf2
 608 291 557 356 466 356 c 6
 424 356 l 5
 424 431 l 5xf8
EndSplineSet
Fore
SplineSet
272.026367188 432.497070312 m 5xf0
 356.734375 467.31640625 l 5
 386.331054688 551.821289062 l 5
 355.586914062 632.787109375 l 5
 272.026367188 664 l 5
 177.983398438 623.057617188 l 5
 146.579101562 526.305664062 l 5
 63.8095703125 559.919921875 l 5
 120.04296875 687.950195312 l 5
 269.899414062 742.5 l 5
 422.041992188 695.595703125 l 5
 483.032226562 553.77734375 l 5
 452.106445312 456.514648438 l 5
 372.893554688 399.752929688 l 5
 474.303710938 328.993164062 l 5
 510.587890625 203.885742188 l 5
 444.802734375 40.9658203125 l 5
 271.85546875 -22.513671875 l 5
 103.416015625 34.0771484375 l 5
 44.4296875 164.16015625 l 5
 131.184570312 198.783203125 l 5
 169.052734375 99.4462890625 l 5
 271.85546875 59.046875 l 5
 379.102539062 102.032226562 l 5
 416.694335938 206.947265625 l 5
 379.102539062 312.408203125 l 5
 270.053710938 355.868164062 l 5
 228.991210938 355.868164062 l 5
 228.991210938 432.326171875 l 5
 272.026367188 432.326171875 l 5
 272.026367188 432.497070312 l 5xf0
EndSplineSet
Validated: 1
Colour: ffff00
EndChar

StartChar: four
Encoding: 52 52 121
Width: 556
Flags: MW
HStem: 0 21G<329 424 329 329> 171 85<121 329 30 30 424 521> 700 20G<345 424 424 424>
VStem: 329 95<0 171 256 565 565 565>
LayerCount: 3
Fore
SplineSet
424 0 m 1
 329 0 l 1
 329 171 l 1
 30 171 l 1
 30 256 l 1
 345 720 l 1
 424 720 l 1
 424 256 l 1
 521 256 l 1
 521 171 l 1
 424 171 l 1
 424 0 l 1
121 256 m 1
 329 256 l 1
 329 565 l 1
 121 256 l 1
EndSplineSet
Validated: 1
Colour: ffff00
EndChar

StartChar: five
Encoding: 53 53 122
Width: 556
Flags: HMW
HStem: -15 80<224.5 312 224.5 341.5> 395 80<262.5 311> 635 85<190 475 190 190>
VStem: 412 97<189 282.5>
LayerCount: 3
Back
SplineSet
35 187 m 5
 127 195 l 5
 137 118 185 65 264 65 c 4
 360 65 412 143 412 235 c 4
 412 330 359 395 263 395 c 4
 206 395 166 373 133 328 c 5
 50 338 l 5
 119 720 l 5
 475 720 l 5
 475 635 l 5
 190 635 l 5
 151 430 l 5
 191 465 239 475 286 475 c 4
 424 475 509 367 509 235 c 4
 509 96 419 -15 264 -15 c 4
 141 -15 45 61 35 187 c 5
EndSplineSet
Fore
SplineSet
123.9296875 191.796875 m 1
 167.368164062 96.0322265625 l 1
 263.749023438 59.205078125 l 1
 375.866210938 110.702148438 l 1
 414.626953125 232.620117188 l 1
 375.354492188 350.583007812 l 1
 262.729492188 395.829101562 l 1
 185.848632812 377.670898438 l 1
 130.052734375 327.44921875 l 1
 49.34375 337.655273438 l 5
 118.764648438 720.349609375 l 1
 475.0078125 720.349609375 l 1
 475.0078125 634.599609375 l 1
 189.311523438 634.599609375 l 1
 150.337890625 430.548828125 l 1
 216.337890625 468.145507812 l 1
 287.16015625 477.44921875 l 1
 452.569335938 405.575195312 l 1
 513.538085938 232.705078125 l 1
 447.891601562 52.052734375 l 1
 263.665039062 -22.271484375 l 1
 103.61328125 32.5341796875 l 1
 44.400390625 156.149414062 l 1
 123.9296875 191.796875 l 1
EndSplineSet
Validated: 1
Colour: ffff00
EndChar

StartChar: six
Encoding: 54 54 123
Width: 556
Flags: HMW
HStem: -15 80<231.5 320 231.5 352.5> 387 80<254.5 320> 655 80<220.5 317>
VStem: 35 86 35 100<246.5 270.5 181.5 463> 409 97<181.5 270.5>
LayerCount: 3
Back
SplineSet
487 557 m 5xec
 399 547 l 5
 384 617 346 655 288 655 c 4
 153 655 123 491 121 369 c 5
 160 446 222 467 287 467 c 4
 426 467 506 357 506 232 c 4
 506 101 425 -15 280 -15 c 4
 78 -15 35 158 35 335 c 4
 35 591 122 735 283 735 c 4
 406 735 467 667 487 557 c 5xec
135 226 m 4
 135 137 191 65 272 65 c 4xf4
 368 65 409 137 409 226 c 4
 409 315 368 387 272 387 c 4
 196 387 135 315 135 226 c 4
EndSplineSet
Fore
SplineSet
401.528320312 550.884765625 m 5xec
 361.385742188 632.709960938 l 5
 288.329101562 661.022460938 l 5
 152.282226562 561.822265625 l 5
 117.975585938 369.3046875 l 5
 192.680664062 448.706054688 l 5
 287.22265625 469.237304688 l 5
 452.133789062 397.201171875 l 5
 510.646484375 229.485351562 l 5
 450.834960938 53.4248046875 l 5
 280.1640625 -22.4296875 l 5
 77.91796875 88.37109375 l 5
 30.291015625 334.520507812 l 5
 95.18359375 636.426757812 l 5
 283.311523438 742.499023438 l 5
 426.77734375 693.809570312 l 5
 478.0703125 587.458984375 l 5
 401.528320312 550.884765625 l 5xec
271.9140625 59.216796875 m 5
 378.607421875 107.26953125 l 5
 411.819335938 223.446289062 l 5
 378.672851562 339.623046875 l 5
 271.9140625 387.67578125 l 5
 172.9921875 339.588867188 l 5
 132.178710938 223.446289062 l 5
 171.110351562 107.303710938 l 5
 271.9140625 59.216796875 l 5
EndSplineSet
Validated: 1
Colour: ffff00
EndChar

StartChar: seven
Encoding: 55 55 124
Width: 556
Flags: HMW
HStem: 0 21G<150 246 150 150> 635 85<50 391 50 491 50 491>
VStem: 150 96<0 0>
LayerCount: 3
Back
SplineSet
391 635 m 5
 50 635 l 5
 50 720 l 5
 491 720 l 5
 491 635 l 5
 345 459 259 234 246 0 c 5
 150 0 l 5
 154 218 255 466 391 635 c 5
EndSplineSet
Fore
SplineSet
49.58984375 635.451171875 m 1
 49.58984375 720.201171875 l 1
 491.328125 720.201171875 l 1
 491.41015625 635.500976562 l 1
 320.548828125 338.817382812 l 5
 245 -8 l 1
 151 12 l 1
 219.09375 335.3046875 l 5
 391.524414062 635.451171875 l 1
 49.58984375 635.451171875 l 1
EndSplineSet
Validated: 1
Colour: ffff00
EndChar

StartChar: eight
Encoding: 56 56 125
Width: 556
Flags: HMW
HStem: -15 80<231.5 322.5 231.5 347> 356 75<241 313 241 322.5> 665 70<241 313>
VStem: 45 92<169.5 247.5> 73 88<515.5 580.5 515.5 607> 394 88<515.5 580.5> 419 63 419 92<169.5 247.5 135 250.5>
LayerCount: 3
Back
SplineSet
45 200 m 4xf1
 45 295 96 367 179 399 c 5
 116 424 73 472 73 550 c 4
 73 664 158 735 277 735 c 4
 396 735 482 664 482 550 c 4xea
 482 472 439 424 376 399 c 5
 459 367 511 295 511 200 c 4
 511 70 417 -15 277 -15 c 4
 137 -15 45 70 45 200 c 4xf1
137 210 m 4
 137 129 186 65 277 65 c 4
 368 65 419 129 419 210 c 4
 419 291 368 356 277 356 c 4
 186 356 137 291 137 210 c 4
161 548 m 4xec
 161 483 205 431 277 431 c 4
 349 431 394 483 394 548 c 4
 394 613 349 665 277 665 c 4
 205 665 161 613 161 548 c 4xec
EndSplineSet
Fore
SplineSet
177.09765625 399.752929688 m 5xf0
 98.9375 456.514648438 l 5
 69.0009765625 553.77734375 l 5
 127.578125 691.768554688 l 5
 277.115234375 742.5 l 5
 427.162109375 691.768554688 l 5
 486.25 553.77734375 l 5
 456.282226562 456.514648438 l 5
 378.153320312 399.752929688 l 5
 478.659179688 322.358398438 l 5
 515.76171875 196.741210938 l 5
 449.9765625 37.39453125 l 5
 277.030273438 -22.513671875 l 5
 105.104492188 37.39453125 l 5
 40.3388671875 196.741210938 l 5
 77.0166015625 322.358398438 l 5
 177.09765625 399.752929688 l 5xf0
277.115234375 59.1328125 m 5
 384.362304688 102.116210938 l 5
 421.953125 207.033203125 l 5
 384.362304688 312.493164062 l 5
 277.115234375 355.953125 l 5
 170.846679688 312.493164062 l 5
 134.232421875 207.033203125 l 5
 170.846679688 102.083007812 l 5
 277.115234375 59.1328125 l 5
277.115234375 432.412109375 m 5
 364.301757812 467.23046875 l 5
 396.438476562 551.735351562 l 5
 364.301757812 636.2734375 l 5
 277.115234375 671.059570312 l 5
 190.440429688 636.240234375 l 5
 158.8125 551.735351562 l 5
 190.407226562 467.23046875 l 5
 277.115234375 432.412109375 l 5
EndSplineSet
Validated: 1
Colour: ffff00
EndChar

StartChar: nine
Encoding: 57 57 126
Width: 556
Flags: HMW
HStem: -15 80<234 330.5 234 345.5> 263 80<221 283.5> 655 80<221 309.5>
VStem: 35 92<454.5 543.5 454.5 562.5> 406 100<454.5 473.5 257 543.5> 420 86
LayerCount: 3
Back
SplineSet
54 163 m 5xf8
 142 173 l 5
 157 103 205 65 263 65 c 4
 398 65 418 233 420 355 c 5
 382 294 321 263 246 263 c 4
 117 263 35 372 35 497 c 4
 35 628 123 735 259 735 c 4
 461 735 506 562 506 385 c 4
 506 129 426 -15 265 -15 c 4
 142 -15 74 53 54 163 c 5xf8
406 499 m 4
 406 588 350 655 269 655 c 4xf4
 173 655 127 588 127 499 c 4
 127 410 173 343 269 343 c 4
 345 343 406 410 406 499 c 4
EndSplineSet
Fore
SplineSet
139.407226562 169.270507812 m 5xf0
 184.716796875 87.4443359375 l 5
 262.8125 59.1318359375 l 5
 393.756835938 160.374023438 l 5
 422.958984375 354.932617188 l 5
 346.610351562 284.239257812 l 5
 245.461914062 261.037109375 l 5
 88.537109375 332.563476562 l 5
 30.2890625 499.770507812 l 5
 92.544921875 671.236328125 l 5
 258.900390625 742.499023438 l 5
 462.135742188 631.698242188 l 5
 510.814453125 385.548828125 l 5
 449.495117188 83.642578125 l 5
 264.938476562 -22.4296875 l 5
 117.932617188 26.259765625 l 5
 62.9287109375 134.579101562 l 5
 139.407226562 169.270507812 l 5xf0
269.020507812 660.852539062 m 5
 159.860351562 615.350585938 l 5
 124.182617188 501.7265625 l 5
 159.860351562 388.1015625 l 5
 269.020507812 342.599609375 l 5
 367.943359375 388.134765625 l 5
 408.756835938 501.7265625 l 5
 369.857421875 615.317382812 l 5
 269.020507812 660.852539062 l 5
EndSplineSet
Validated: 1
Colour: ffff00
EndChar

StartChar: comma
Encoding: 44 44 127
Width: 246
Flags: HMW
HStem: -142 21G<94 94> 0 21G<76 127 76 76 176 176> 80 20G<76 176 176 176>
VStem: 76 100<0 100> 127 49<-32 0>
LayerCount: 3
Back
SplineSet
127 0 m 5xe8
 76 0 l 5
 76 100 l 5
 176 100 l 5
 176 0 l 6
 176 -71 149 -118 94 -142 c 5
 70 -104 l 5
 105 -89 127 -64 127 0 c 5xe8
127 0 m 1xe8
 76 0 l 1
 76 100 l 1
 176 100 l 1
 176 0 l 2
 176 -71 149 -118 94 -142 c 1
 70 -104 l 1
 105 -89 127 -64 127 0 c 1xe8
EndSplineSet
Fore
SplineSet
127.115234375 0.4453125 m 1xe0
 104.83984375 0.4453125 l 1
 74.9794921875 30.314453125 l 1
 74.9794921875 72.560546875 l 1
 104.844726562 102.421875 l 1
 147.092773438 102.421875 l 1
 176.953125 72.556640625 l 1
 176.953125 30.310546875 l 1
 176.953125 0.447265625 l 1
 156.170898438 -89.9599609375 l 1
 96 -142 l 1
 68.94140625 -105.608398438 l 1
 111.424804688 -71.3330078125 l 1
 127.115234375 0.4453125 l 1xe0
EndSplineSet
Validated: 1
Colour: ffff00
EndChar

StartChar: period
Encoding: 46 46 128
Width: 239
Flags: HMW
HStem: 0 100<70 161 70 161>
VStem: 70 91<0 100>
LayerCount: 3
Back
SplineSet
139.390625 -11.2001953125 m 5
 93.16015625 -11.44921875 l 5
 60.3076171875 24.2958984375 l 5
 60.080078125 75.099609375 l 5
 92.609375 111.200195312 l 5
 138.83984375 111.44921875 l 5
 171.692382812 74.9541015625 l 5
 171.919921875 24.150390625 l 5
 139.390625 -11.2001953125 l 5
64.212890625 29.912109375 m 5
 64.3017578125 72.125 l 5
 94.212890625 101.912109375 l 5
 136.426757812 101.823242188 l 5
 166.212890625 71.912109375 l 5
 166.125 29.6982421875 l 5
 136.212890625 -0.087890625 l 5
 94 0 l 5
 64.212890625 29.912109375 l 5
161 0 m 5
 70 0 l 5
 70 100 l 5
 161 100 l 5
 161 0 l 5
161 0 m 1
 70 0 l 1
 70 100 l 1
 161 100 l 1
 161 0 l 1
EndSplineSet
Fore
SplineSet
139.140625 -11.4501953125 m 5
 92.91015625 -11.44921875 l 5
 60.0576171875 24.2958984375 l 5
 60.080078125 75.099609375 l 5
 92.359375 111.450195312 l 5
 138.58984375 111.44921875 l 5
 171.75 75 l 5
 171.669921875 24.150390625 l 5
 139.140625 -11.4501953125 l 5
EndSplineSet
Validated: 1
Colour: ffff00
EndChar

StartChar: hyphen
Encoding: 45 45 129
Width: 370
Flags: HMW
HStem: 217 86<50 320 50 320>
LayerCount: 3
Fore
SplineSet
322.700195312 216.139648438 m 5
 47.2998046875 216.139648438 l 5
 47.2998046875 303.860351562 l 5
 322.700195312 303.860351562 l 5
 322.700195312 216.139648438 l 5
EndSplineSet
Validated: 1
Colour: ffff00
EndChar

StartChar: endash
Encoding: 8211 8211 130
Width: 556
Flags: MW
HStem: 225 75<40 516 40 516>
LayerCount: 3
Fore
SplineSet
516 225 m 1
 40 225 l 1
 40 300 l 1
 516 300 l 1
 516 225 l 1
EndSplineSet
Validated: 1
EndChar

StartChar: emdash
Encoding: 8212 8212 131
Width: 700
Flags: MW
HStem: 225 75<0 700 0 700>
LayerCount: 3
Fore
SplineSet
700 225 m 1
 0 225 l 1
 0 300 l 1
 700 300 l 1
 700 225 l 1
EndSplineSet
Validated: 1
EndChar

StartChar: exclam
Encoding: 33 33 132
Width: 239
Flags: HMW
HStem: 0 100<74 165 74 165> 700 20G<70 169 169 169>
VStem: 81 77
LayerCount: 3
Back
SplineSet
148 178 m 1
 92 178 l 1
 70 720 l 1
 169 720 l 1
 148 178 l 1
165 0 m 1
 74 0 l 1
 74 100 l 1
 165 100 l 1
 165 0 l 1
EndSplineSet
Fore
SplineSet
143.390625 -11.4501953125 m 1
 97.16015625 -11.44921875 l 1
 64.3076171875 24.2958984375 l 1
 64.330078125 75.099609375 l 1
 96.609375 111.450195312 l 1
 142.83984375 111.44921875 l 1
 176 75 l 1
 175.919921875 24.150390625 l 1
 143.390625 -11.4501953125 l 1
91.380859375 177.884765625 m 1
 69.4287109375 727.202148438 l 1
 170.380859375 727.202148438 l 1
 148.44921875 177.884765625 l 1
 91.380859375 177.884765625 l 1
EndSplineSet
Validated: 1
Colour: ffff00
EndChar

StartChar: question
Encoding: 63 63 133
Width: 561
Flags: HMW
HStem: 0 100<222 322 222 322> 655 80<234 305>
VStem: 227 95 403 95<496.5 574>
LayerCount: 3
Back
SplineSet
312 176 m 5
 227 176 l 5
 227 203 l 6
 227 284 252 343 318 388 c 4
 362 418 403 466 403 527 c 4
 403 621 341 655 269 655 c 4
 199 655 145 611 135 514 c 5
 49 524 l 5
 61 656 148 735 268 735 c 4
 406 735 498 656 498 533 c 4
 498 435 434 384 373 333 c 4
 325 293 314 260 312 203 c 6
 312 176 l 5
322 0 m 5
 222 0 l 5
 222 100 l 5
 322 100 l 5
 322 0 l 5
EndSplineSet
Fore
SplineSet
297.676757812 -12.5478515625 m 1
 247.284179688 -12.796875 l 1
 211.4765625 22.9482421875 l 1
 211.229492188 73.751953125 l 1
 246.684570312 109.852539062 l 1
 297.077148438 110.1015625 l 1
 332.884765625 74.3564453125 l 1
 333.131835938 23.552734375 l 1
 297.676757812 -12.5478515625 l 1
225.639648438 172.184570312 m 1
 225.639648438 199.740234375 l 1
 246.806640625 307.879882812 l 1
 318.427734375 388.463867188 l 1
 378.68359375 447.521484375 l 1
 405.26171875 530.240234375 l 1
 364.481445312 631.45703125 l 1
 268.588867188 660.790039062 l 1
 177.40625 626.004882812 l 1
 132.084960938 516.97265625 l 1
 55.6201171875 551.612304688 l 1
 114.83203125 685.25 l 1
 267.73828125 742.3515625 l 1
 437.846679688 686.3984375 l 1
 502.387695312 536.364257812 l 1
 461.958007812 416.39453125 l 1
 374.899414062 332.33203125 l 1
 326.251953125 272.576171875 l 1
 312.814453125 199.740234375 l 1
 312.814453125 172.184570312 l 1
 225.639648438 172.184570312 l 1
EndSplineSet
Validated: 1
Colour: ffff00
EndChar

StartChar: afii10065
Encoding: 1072 1072 134
Width: 545
Flags: HMW
HStem: -15 72<202 243> 0 21G<408 499 408 408> 463 72<228.5 295.5>
VStem: 35 94<108 176.5 108 193> 381 90<140 263 263 263 332 334>
LayerCount: 3
Back
SplineSet
387 64 m 5xb8
 335 6 274 -15 212 -15 c 4
 116 -15 35 31 35 137 c 4
 35 249 123 294 239 305 c 4
 294 310 355 320 381 332 c 5
 381 352 l 6
 381 433 330 463 261 463 c 4x78
 196 463 154 427 136 359 c 5
 51 378 l 5
 77 498 170 535 270 535 c 4
 409 535 471 465 471 334 c 6
 471 106 l 6
 471 53 481 19 499 0 c 5
 408 0 l 5
 393 14 390 39 387 64 c 5xb8
381 140 m 5
 381 263 l 5
 358 252 300 241 249 233 c 4
 194 224 129 212 129 141 c 4
 129 75 178 57 226 57 c 4xb8
 293 57 354 105 381 140 c 5
EndSplineSet
Fore
SplineSet
382.41015625 348.740234375 m 5x78
 347.499023438 441.418945312 l 5
 259.971679688 467.018554688 l 5
 178.3046875 439.981445312 l 5
 132.484375 360.962890625 l 5
 61.1103515625 404.840820312 l 5
 129.157226562 506.319335938 l 5
 269.158203125 540.500976562 l 5
 424.775390625 488.110351562 l 5
 472.125 335.448242188 l 5
 472 0 l 5
 388 0 l 5
 388.391601562 60.14453125 l 5
 303.06640625 -2.4677734375 l 5
 209.958984375 -20.56640625 l 5
 83.0498046875 16.38671875 l 5
 29.490234375 134.477539062 l 5
 89.1630859375 258.784179688 l 5
 382.41015625 348.740234375 l 5x78
382.41015625 269.180664062 m 5
 165.568359375 209.150390625 l 5
 125.424804688 138.475585938 l 5
 156.57421875 70.3935546875 l 5
 224.336914062 52.830078125 l 5
 318.719726562 81.7890625 l 5
 382.357421875 137.5390625 l 5
 382.41015625 269.180664062 l 5
EndSplineSet
Validated: 1
Colour: ffff00
EndChar

StartChar: afii10066
Encoding: 1073 1073 135
Width: 558
Flags: HMW
HStem: -15 75<241.5 318.5 241.5 350.5> 445 75<265 318.5> 520 91<288 288 288 367> 710 20G<496 496>
VStem: 35 92<185 324 182 371> 433 90<182 324>
LayerCount: 3
Back
SplineSet
496 730 m 5xbc
 486 641 l 5
 472 626 438 623 416 621 c 6
 288 611 l 6
 158 601 126 496 119 426 c 5
 161 498 230 520 300 520 c 4
 434 520 523 422 523 257 c 4
 523 87 421 -15 280 -15 c 4
 142 -15 35 70 35 300 c 4
 35 442 57 677 277 696 c 6
 426 709 l 6
 455 712 482 717 496 730 c 5xbc
127 253 m 4
 127 111 203 60 280 60 c 4
 357 60 433 111 433 253 c 4
 433 395 357 445 280 445 c 4xdc
 213 445 127 395 127 253 c 4
EndSplineSet
Fore
SplineSet
490.131835938 646.576171875 m 1x9c
 418.690429688 626.20703125 l 1
 288.140625 616.000976562 l 1
 206.25 592.254882812 l 1
 154.912109375 544.602539062 l 1
 115.83203125 427.27734375 l 1
 197.467773438 502.724609375 l 1
 300.473632812 523.126953125 l 1
 465.446289062 452.12109375 l 1
 527.979492188 254.883789062 l 1
 457.962890625 51.140625 l 1
 280.145507812 -22.5458984375 l 1
 102.426757812 50.1201171875 l 1
 30.2724609375 298.76953125 l 1
 69.5341796875 547.766601562 l 1
 143.833984375 651.78125 l 1
 276.999023438 702.750976562 l 1
 428.982421875 716.018554688 l 1
 467 727 l 1
 490.131835938 646.576171875 l 1x9c
280.061523438 53.9560546875 m 1
 387.532226562 98.0458984375 l 1
 436.125976562 250.758789062 l 1
 387.532226562 403.004882812 l 1
 280.061523438 446.625976562 l 1
 176.38671875 403.004882812 l 1
 123.99609375 250.758789062 l 1
 172.559570312 98.0458984375 l 1
 280.061523438 53.9560546875 l 1
EndSplineSet
Validated: 1
Colour: ffff00
EndChar

StartChar: afii10067
Encoding: 1074 1074 136
Width: 520
Flags: HMW
HStem: 0 75<155 260 260 290> 225 75<155 238 155 238 238 251> 445 75<155 155 155 241>
VStem: 65 90<75 225 300 445> 369 92<356.5 407.5> 392 92
LayerCount: 3
Back
SplineSet
65 0 m 5xf4
 65 520 l 5
 259 520 l 6
 356 520 461 496 461 381 c 4
 461 332 438 295 397 270 c 5
 450 255 486 197 484 145 c 4
 479 37 396 0 290 0 c 6
 65 0 l 5xf4
155 445 m 5
 155 300 l 5xf8
 238 300 l 6
 295 300 369 304 369 373 c 4
 369 442 305 445 241 445 c 6
 155 445 l 5
155 225 m 5
 155 75 l 5xf8
 260 75 l 6
 327 75 390 77 392 149 c 4xf4
 392 221 339 225 251 225 c 6
 155 225 l 5
EndSplineSet
Fore
SplineSet
65.0546875 519.71484375 m 1xf0
 268.39453125 519.71484375 l 1
 396.302734375 498.19921875 l 1
 462.247070312 383.33203125 l 1
 444.307617188 316.627929688 l 1
 380.930664062 270.131835938 l 5
 462.301757812 220.548828125 l 1
 485.635742188 142.643554688 l 1
 425.251953125 27.3935546875 l 1
 288.764648438 0 l 1
 65.0546875 0 l 1
 65.0546875 519.71484375 l 1xf0
266.69921875 300.588867188 m 1
 323.36328125 311.354492188 l 1
 368.353515625 374.9375 l 1
 327.508789062 438.009765625 l 1
 233.059570312 444.696289062 l 1
 155.106445312 444.696289062 l 1
 155.106445312 299.780273438 l 1
 266.69921875 300.588867188 l 1
155.106445312 74.708984375 m 1
 267.720703125 75.54296875 l 1
 349.452148438 81.2548828125 l 1
 391.828125 146.572265625 l 1
 353.587890625 212.876953125 l 1
 266.567382812 224.895507812 l 1
 155.2734375 224.895507812 l 1
 155.106445312 74.8095703125 l 1
 155.106445312 74.708984375 l 1
EndSplineSet
Validated: 1
EndChar

StartChar: periodcentered
Encoding: 183 183 137
Width: 231
Flags: HMW
HStem: 212 100<70 161 70 161>
VStem: 70 91<212 312>
LayerCount: 3
Fore
SplineSet
77.60546875 199.208007812 m 1
 41.4033203125 262.202148438 l 1
 77.857421875 325.056640625 l 1
 150.516601562 324.908203125 l 1
 186.71875 261.9140625 l 1
 150.26171875 199.068359375 l 1
 77.60546875 199.208007812 l 1
EndSplineSet
Validated: 1
Colour: ffff00
EndChar

StartChar: afii10071
Encoding: 1105 1105 138
Width: 544
Flags: HMW
HStem: -15 75<240.5 308.5 240.5 329.5> 60 177<240.5 308.5> 237 72<128 413 128 508 125 413> 309 151<242 315 242 413 242 413> 460 75<242 315> 620 100<128 219 128 219 328 419>
VStem: 35 90<237 237 237 346> 219 109<620 720 620 720> 413 96<309 309>
LayerCount: 3
Back
SplineSet
219 620 m 5x9780
 128 620 l 5
 128 720 l 5
 219 720 l 5
 219 620 l 5x9780
419 620 m 5
 328 620 l 5x4f80
 328 720 l 5
 419 720 l 5
 419 620 l 5
508 237 m 5xaf80
 125 237 l 5
 133 112 203 60 278 60 c 4
 339 60 399 98 417 176 c 5
 502 158 l 5
 472 42 386 -15 273 -15 c 4
 129 -15 35 88 35 260 c 4
 35 432 129 535 273 535 c 4
 430 535 509 421 509 270 c 4
 509 267 509 244 508 237 c 5xaf80
273 460 m 4
 211 460 144 415 128 309 c 5
 413 309 l 5
 409 397 357 460 273 460 c 4
EndSplineSet
Fore
SplineSet
174.46484375 98.9150390625 m 5x2780
 278.149414062 56.44140625 l 5
 365.399414062 85.7744140625 l 5
 419.926757812 174.744140625 l 5
 490 131 l 5
 421.6171875 23.7744140625 l 5
 273.046875 -20.1025390625 l 5
 96.6025390625 54.349609375 l 5
 30.3173828125 260.388671875 l 5
 96.6025390625 466.427734375 l 5
 273.046875 540.879882812 l 5
 453.446289062 463.494140625 l 5
 513 273 l 4
 508 237 l 5
 122.000976562 236.915039062 l 5
 174.46484375 98.9150390625 l 5x2780
125 309 m 5
 416 309 l 5
 374.999023438 421.139648438 l 5
 272.961914062 464.505859375 l 5
 181.481445312 428.028320312 l 5
 125 309 l 5
397.0703125 608.249023438 m 1
 350.83984375 608.25 l 1
 317.987304688 643.995117188 l 1
 318.009765625 694.798828125 l 1
 350.2890625 731.149414062 l 1
 396.51953125 731.1484375 l 1
 429.6796875 694.69921875 l 1
 429.599609375 643.849609375 l 1
 397.0703125 608.249023438 l 1
197.23046875 608.249023438 m 1
 151 608.25 l 1
 118.147460938 643.995117188 l 1
 118.169921875 694.798828125 l 1
 150.44921875 731.149414062 l 1
 196.6796875 731.1484375 l 1
 229.83984375 694.69921875 l 1
 229.759765625 643.849609375 l 1
 197.23046875 608.249023438 l 1
EndSplineSet
Validated: 1
EndChar

StartChar: afii10023
Encoding: 1025 1025 139
Width: 657
Flags: HMW
HStem: 0 85<175 587 175 587> 325 85<175 527 175 527> 635 85<175 577 175 175> 819 101<185 275 185 275 385 475>
VStem: 80 95<85 325 410 635> 185 90<819 920> 385 90<819 920>
LayerCount: 3
Back
SplineSet
275 819 m 5
 185 819 l 5
 185 920 l 5
 275 920 l 5
 275 819 l 5
475 819 m 5
 385 819 l 5
 385 920 l 5
 475 920 l 5
 475 819 l 5
587 0 m 5
 80 0 l 5
 80 720 l 5
 577 720 l 5
 577 635 l 5
 175 635 l 5
 175 410 l 5
 527 410 l 5
 527 325 l 5
 175 325 l 5
 175 85 l 5
 587 85 l 5
 587 0 l 5
EndSplineSet
Fore
SplineSet
453.390625 808.100585938 m 5
 407.16015625 808.1015625 l 5
 374.307617188 843.846679688 l 5
 374.330078125 894.650390625 l 5
 406.609375 931.000976562 l 5
 452.83984375 931 l 5
 486 894.55078125 l 5
 485.919921875 843.701171875 l 5
 453.390625 808.100585938 l 5
252.80078125 808.100585938 m 5
 206.5703125 808.1015625 l 5
 173.717773438 843.846679688 l 5
 173.740234375 894.650390625 l 5
 206.01953125 931.000976562 l 5
 252.25 931 l 5
 285.41015625 894.55078125 l 5
 285.330078125 843.701171875 l 5
 252.80078125 808.100585938 l 5
587 0 m 1
 80 0 l 1
 80 720 l 1
 577 720 l 1
 577 635 l 1
 175 635 l 1
 175 410 l 1
 527 410 l 1
 527 325 l 1
 175 325 l 1
 175 85 l 1
 587 85 l 1
 587 0 l 1
EndSplineSet
Validated: 1
Colour: ffff00
EndChar

StartChar: underscore
Encoding: 95 95 140
Width: 696
Flags: HMW
HStem: 0 75<70 626 70 626>
LayerCount: 3
Fore
SplineSet
631.559570312 -0.75 m 1
 64.4404296875 -0.75 l 1
 64.4404296875 75.75 l 1
 631.559570312 75.75 l 1
 631.559570312 -0.75 l 1
EndSplineSet
Validated: 1
Colour: ffff00
EndChar

StartChar: colon
Encoding: 58 58 141
Width: 239
Flags: HMW
HStem: 82 100<70 161 70 161> 342 100<70 161 70 161>
VStem: 70 91<82 182 342 442>
LayerCount: 3
Back
SplineSet
139.390625 68.2001953125 m 5
 93.16015625 67.94921875 l 5
 60.3076171875 103.696289062 l 5
 60.080078125 154.5 l 5
 92.609375 190.600585938 l 5
 138.83984375 190.850585938 l 5
 171.692382812 155.104492188 l 5
 171.919921875 104.30078125 l 5
 139.390625 68.2001953125 l 5
139.390625 333.399414062 m 5
 93.16015625 333.149414062 l 5
 60.3076171875 368.895507812 l 5
 60.080078125 419.69921875 l 5
 92.609375 455.799804688 l 5
 138.83984375 456.05078125 l 5
 171.692382812 420.303710938 l 5
 171.919921875 369.5 l 5
 139.390625 333.399414062 l 5
EndSplineSet
Fore
SplineSet
139.140625 333.099609375 m 1
 92.91015625 333.100585938 l 1
 60.0576171875 368.845703125 l 1
 60.080078125 419.649414062 l 1
 92.359375 456 l 1
 138.58984375 455.999023438 l 1
 171.75 419.549804688 l 1
 171.669921875 368.700195312 l 1
 139.140625 333.099609375 l 1
139.140625 68.099609375 m 1
 92.91015625 68.1005859375 l 1
 60.0576171875 103.845703125 l 1
 60.080078125 154.649414062 l 1
 92.359375 191 l 1
 138.58984375 190.999023438 l 1
 171.75 154.549804688 l 1
 171.669921875 103.700195312 l 1
 139.140625 68.099609375 l 1
EndSplineSet
Validated: 1
Colour: ffff00
EndChar

StartChar: ellipsis
Encoding: 8230 8230 142
Width: 576
Flags: HMW
HStem: 0 100<70 161 70 161 70 240 240 331 410 501>
VStem: 70 91<0 100> 240 91<0 100> 410 91<0 100>
CounterMasks: 1 70
LayerCount: 3
Fore
SplineSet
247.086914062 -11.98046875 m 5
 210.159179688 52.2734375 l 5
 247.344726562 116.384765625 l 5
 321.456054688 116.232421875 l 5
 358.3828125 51.978515625 l 5
 321.196289062 -12.1220703125 l 5
 247.086914062 -11.98046875 l 5
460.063476562 -12.0556640625 m 5
 423.135742188 52.1982421875 l 5
 460.319335938 116.30859375 l 5
 534.431640625 116.158203125 l 5
 571.358398438 51.904296875 l 5
 534.172851562 -12.1982421875 l 5
 460.063476562 -12.0556640625 l 5
36.0810546875 -12.0556640625 m 5
 -0.845703125 52.1982421875 l 5
 36.337890625 116.30859375 l 5
 110.44921875 116.158203125 l 5
 147.375976562 51.904296875 l 5
 110.190429688 -12.1982421875 l 5
 36.0810546875 -12.0556640625 l 5
EndSplineSet
Validated: 1
EndChar

StartChar: plus
Encoding: 43 43 143
Width: 556
Flags: HMW
HStem: 114 21G<240 315 240 240> 325 75<50 240 50 240 315 506> 590 20G<240 315 315 315>
VStem: 240 75<114 325 114 325 400 610>
LayerCount: 3
Fore
SplineSet
315.740234375 324.259765625 m 5
 315.740234375 109.040039062 l 5
 239.240234375 109.040039062 l 5
 239.240234375 324.259765625 l 5
 45.4404296875 324.259765625 l 5
 45.4404296875 400.759765625 l 5
 239.240234375 400.759765625 l 5
 239.240234375 614.959960938 l 5
 315.740234375 614.959960938 l 5
 315.740234375 400.759765625 l 5
 510.559570312 400.759765625 l 5
 510.559570312 324.259765625 l 5
 315.740234375 324.259765625 l 5
EndSplineSet
Validated: 1
Colour: ffff00
EndChar

StartChar: equal
Encoding: 61 61 144
Width: 556
Flags: HMW
HStem: 245 75<50 506 50 506> 405 75<50 506 50 506>
LayerCount: 3
Fore
SplineSet
510.559570312 242.650390625 m 1
 45.4404296875 242.650390625 l 1
 45.4404296875 319.150390625 l 1
 510.559570312 319.150390625 l 1
 510.559570312 242.650390625 l 1
510.559570312 405.849609375 m 1
 45.4404296875 405.849609375 l 1
 45.4404296875 482.349609375 l 1
 510.559570312 482.349609375 l 1
 510.559570312 405.849609375 l 1
EndSplineSet
Validated: 1
Colour: ffff00
EndChar

StartChar: quotedbl
Encoding: 34 34 145
Width: 399
Flags: HMW
HStem: 482 238<92 148 92 92 252 252 252 308>
LayerCount: 3
Back
SplineSet
148 482 m 5
 92 482 l 5
 70 720 l 5
 169 720 l 5
 148 482 l 5
308 482 m 5
 252 482 l 5
 230 720 l 5
 329 720 l 5
 308 482 l 5
EndSplineSet
Fore
SplineSet
146.969726562 479.620117188 m 1
 89.849609375 479.620117188 l 1
 67.41015625 722.379882812 l 1
 168.389648438 722.379882812 l 1
 146.969726562 479.620117188 l 1
310.169921875 479.620117188 m 1
 253.049804688 479.620117188 l 1
 230.610351562 722.379882812 l 1
 331.58984375 722.379882812 l 1
 310.169921875 479.620117188 l 1
EndSplineSet
Validated: 1
Colour: ffff00
EndChar

StartChar: quotesingle
Encoding: 39 39 146
Width: 239
Flags: HMW
HStem: 482 21G<92 148 92 92> 700 20G<70 169 169 169>
LayerCount: 3
Back
SplineSet
105.19921875 100 m 1xe0
 105.19921875 100.001953125 l 1
 146.619140625 100.001953125 l 1
 175.89453125 70.72265625 l 1
 175.89453125 29.3046875 l 1
 175.89453125 0.02734375 l 1
 155.51953125 -88.607421875 l 1
 93.931640625 -141.970703125 l 1
 70 -103.94921875 l 1
 111.650390625 -70.345703125 l 1
 127.033203125 0.025390625 l 1
 127.033203125 0.025390625 l 1
 105.1953125 0.025390625 l 1
 75.919921875 29.30859375 l 1
 75.919921875 70.7265625 l 1
 105.19921875 100 l 1xe0
148 482 m 5
 92 482 l 5
 70 720 l 5
 169 720 l 5
 148 482 l 5
EndSplineSet
Fore
SplineSet
120.49609375 620.443359375 m 5
 98.220703125 620.443359375 l 5
 68.3603515625 650.3125 l 5
 68.3603515625 692.55859375 l 5
 98.2255859375 722.41796875 l 5xe0
 98.2255859375 722.419921875 l 5
 140.473632812 722.419921875 l 5
 170.333984375 692.5546875 l 5
 170.333984375 650.30859375 l 5
 170.333984375 620.4453125 l 5
 149.551757812 530.038085938 l 5
 90 478 l 5
 62.322265625 514.389648438 l 5
 104.805664062 548.665039062 l 5
 120.49609375 620.443359375 l 5
EndSplineSet
Validated: 1
Colour: ffff00
EndChar

StartChar: bar
Encoding: 124 124 147
Width: 255
Flags: MW
HStem: -100 21G<80 175 80 80> 800 20G<80 175 175 175>
VStem: 80 95<-100 820>
LayerCount: 3
Fore
SplineSet
175 -100 m 1
 80 -100 l 1
 80 820 l 1
 175 820 l 1
 175 -100 l 1
EndSplineSet
Validated: 1
Colour: ffff00
EndChar

StartChar: brokenbar
Encoding: 166 166 148
Width: 255
Flags: MW
HStem: -100 21G<80 175 80 80> 800 20G<80 175 175 175>
VStem: 80 95<-100 325 410 820>
LayerCount: 3
Fore
SplineSet
175 -100 m 1
 80 -100 l 1
 80 325 l 1
 175 325 l 1
 175 -100 l 1
80 410 m 1
 80 820 l 1
 175 820 l 1
 175 410 l 1
 80 410 l 1
EndSplineSet
Validated: 1
Colour: ffff00
EndChar

StartChar: bracketleft
Encoding: 91 91 149
Width: 337
Flags: MW
HStem: -100 85<175 297 175 297> 735 85<175 297 175 175>
VStem: 80 95<-15 735 -15 820 -15 820> 80 217<-100 -15 735 820>
LayerCount: 3
Fore
SplineSet
297 -100 m 1xd0
 80 -100 l 1
 80 820 l 1
 297 820 l 1xd0
 297 735 l 1
 175 735 l 1xe0
 175 -15 l 1
 297 -15 l 1
 297 -100 l 1xd0
EndSplineSet
Validated: 1
Colour: ffff00
EndChar

StartChar: bracketright
Encoding: 93 93 150
Width: 337
Flags: MW
HStem: -100 85<40 162 40 257 40 162> 735 85<40 162 40 257>
VStem: 40 217<-100 -15 -15 -15 735 820> 162 95<-15 735 735 735>
LayerCount: 3
Fore
SplineSet
257 -100 m 1xe0
 40 -100 l 1
 40 -15 l 1xe0
 162 -15 l 1
 162 735 l 1xd0
 40 735 l 1
 40 820 l 1
 257 820 l 1
 257 -100 l 1xe0
EndSplineSet
Validated: 1
Colour: ffff00
EndChar

StartChar: slash
Encoding: 47 47 151
Width: 336
Flags: HMW
HStem: -100 21G<0 89 0 0> 800 20G<246 336 336 336>
LayerCount: 3
Fore
SplineSet
89 -100 m 1
 6 -77 l 1
 246 820 l 1
 329 797 l 1
 89 -100 l 1
EndSplineSet
Validated: 1
Colour: ffff00
EndChar

StartChar: backslash
Encoding: 92 92 152
Width: 336
Flags: HMW
HStem: -100 21G<247 336 247 247> 800 20G<0 90 90 90>
LayerCount: 3
Fore
SplineSet
330 -78 m 1
 247 -100 l 1
 6 798 l 1
 90 820 l 1
 330 -78 l 1
EndSplineSet
Validated: 1
Colour: ffff00
EndChar

StartChar: semicolon
Encoding: 59 59 153
Width: 231
Flags: HMW
HStem: -142 21G<88 88> 0 21G<70 121 70 70 170 170> 100 242<70 161 70 170 70 170>
VStem: 70 100<0 100> 121 49<-32 0>
LayerCount: 3
Back
SplineSet
358 342 m 5xf0
 267 342 l 5
 267 442 l 5
 358 442 l 5
 358 342 l 5xf0
318 0 m 5
 267 0 l 5
 267 100 l 5
 367 100 l 5
 367 0 l 6
 367 -71 340 -118 285 -142 c 5xe8
 261 -104 l 5
 296 -89 318 -64 318 0 c 5
EndSplineSet
Fore
SplineSet
120.49609375 -0.974609375 m 5xe0
 98.220703125 -0.974609375 l 5
 68.3603515625 28.89453125 l 5
 68.3603515625 71.140625 l 5
 98.2255859375 101 l 5
 98.2255859375 101.001953125 l 5
 140.473632812 101.001953125 l 5
 170.333984375 71.13671875 l 5
 170.333984375 28.890625 l 5
 170.333984375 -0.97265625 l 5
 149.551757812 -91.3798828125 l 5
 90 -143.41796875 l 5
 62.322265625 -107.028320312 l 5
 104.805664062 -72.7529296875 l 5
 120.49609375 -0.974609375 l 5xe0
139.140625 333.099609375 m 1
 92.91015625 333.100585938 l 1
 60.0576171875 368.845703125 l 1
 60.080078125 419.649414062 l 1
 92.359375 456 l 1
 138.58984375 455.999023438 l 1
 171.75 419.549804688 l 1
 171.669921875 368.700195312 l 1
 139.140625 333.099609375 l 1
EndSplineSet
Validated: 1
Colour: ffff00
EndChar

StartChar: quotesinglbase
Encoding: 8218 8218 154
Width: 231
Flags: HMW
HStem: -142 21G<94 94> 0 21G<76 127 76 76 176 176> 80 20G<76 176 176 176>
VStem: 76 100<0 100> 127 49<-32 0>
LayerCount: 3
Fore
SplineSet
126.99609375 -0.974609375 m 5xe0
 104.720703125 -0.974609375 l 5
 74.8603515625 28.89453125 l 5
 74.8603515625 71.140625 l 5
 104.725585938 101 l 5
 104.725585938 101.001953125 l 5
 146.973632812 101.001953125 l 5
 176.833984375 71.13671875 l 5
 176.833984375 28.890625 l 5
 176.833984375 -0.97265625 l 5
 156.051757812 -91.3798828125 l 5
 96.5 -143.41796875 l 5
 68.822265625 -107.028320312 l 5
 111.305664062 -72.7529296875 l 5
 126.99609375 -0.974609375 l 5xe0
EndSplineSet
Validated: 1
EndChar

StartChar: quotedblbase
Encoding: 8222 8222 155
Width: 396
Flags: HMW
HStem: -142 21G<94 94 244 244> 0 100<76 127 76 176 76 176 76 226 226 277>
VStem: 76 100<0 100> 127 49<-32 0> 226 100<0 100> 277 49<-32 0>
LayerCount: 3
Fore
SplineSet
277.162109375 -0.001953125 m 1xc0
 254.88671875 -0.001953125 l 1
 225.026367188 29.8671875 l 1
 225.026367188 72.11328125 l 1
 254.891601562 101.974609375 l 1
 297.139648438 101.974609375 l 1
 327 72.109375 l 1
 327 0 l 1
 306.217773438 -90.4072265625 l 1
 246.666015625 -142.4453125 l 1
 218.98828125 -106.055664062 l 1
 261.471679688 -71.7802734375 l 1
 277.162109375 -0.001953125 l 1xc0
126.99609375 -0.974609375 m 1
 104.720703125 -0.974609375 l 1
 74.8603515625 28.89453125 l 1
 74.8603515625 71.140625 l 1
 104.725585938 101.001953125 l 1
 146.973632812 101.001953125 l 1
 176.833984375 71.13671875 l 1
 176.833984375 -0.97265625 l 1
 156.051757812 -91.3798828125 l 1
 96.5 -143.41796875 l 1
 68.822265625 -107.028320312 l 1
 111.305664062 -72.7529296875 l 1
 126.99609375 -0.974609375 l 1
EndSplineSet
Validated: 1
EndChar

StartChar: quotedblright
Encoding: 8221 8221 156
Width: 396
Flags: HMW
HStem: 478 21G<93.9922 93.9922 243.992 243.992> 620 100<75.9922 126.992 75.9922 175.992 75.9922 175.992 75.9922 225.992 225.992 276.992>
VStem: 75.9922 100<620 720> 126.992 49<588 620> 225.992 100<620 720> 276.992 49<588 620>
LayerCount: 3
Fore
SplineSet
103.450195312 722.700195312 m 1xe0
 103.450195312 722.702148438 l 1
 145.698242188 722.702148438 l 1
 175.559570312 692.836914062 l 1
 175.559570312 650.590820312 l 1
 175.559570312 620.727539062 l 1
 154.776367188 530.3203125 l 1
 95 478 l 1
 67.546875 514.671875 l 1
 110.030273438 548.947265625 l 1
 125.720703125 620.725585938 l 1
 125.720703125 620.725585938 l 1
 103.446289062 620.725585938 l 1
 73.5849609375 650.594726562 l 1
 73.5849609375 692.840820312 l 1
 103.450195312 722.700195312 l 1xe0
256.412109375 722.416992188 m 1xe0
 256.412109375 722.418945312 l 1
 298.66015625 722.418945312 l 1
 328.521484375 692.553710938 l 1
 328.521484375 650.307617188 l 1
 328.521484375 620.444335938 l 1
 307.739257812 530.037109375 l 1
 247 477 l 1
 220.508789062 514.388671875 l 1
 262.9921875 548.6640625 l 1
 278.682617188 620.442382812 l 1
 278.682617188 620.442382812 l 1
 256.408203125 620.442382812 l 1
 226.546875 650.311523438 l 1
 226.546875 692.557617188 l 1
 256.412109375 722.416992188 l 1xe0
EndSplineSet
Validated: 5
EndChar

StartChar: quotedblleft
Encoding: 8220 8220 157
Width: 400
Flags: HMW
HStem: 493 100<119 170 70 70 269 320> 715 20G<152 152 302 302>
VStem: 70 49<493 625 593 625 593 628.5> 70 100<493 593 493 628.5> 220 49<493 625 593 625 593 628.5> 220 100<493 593 493 628.5>
LayerCount: 3
Fore
SplineSet
292.688476562 490.60546875 m 1xe0
 292.688476562 490.603515625 l 1
 250.440429688 490.603515625 l 1
 220.580078125 520.46875 l 1
 220.580078125 562.71484375 l 1
 220.580078125 592.578125 l 1
 241.362304688 682.985351562 l 1
 301 735 l 1
 328.591796875 698.633789062 l 1
 286.108398438 664.358398438 l 1
 270.41796875 592.580078125 l 1
 270.41796875 592.580078125 l 1
 292.693359375 592.580078125 l 1
 322.553710938 562.7109375 l 1
 322.553710938 520.46484375 l 1
 292.688476562 490.60546875 l 1xe0
139.688476562 490.60546875 m 1xe0
 139.688476562 490.603515625 l 1
 97.4404296875 490.603515625 l 1
 67.580078125 520.46875 l 1
 67.580078125 562.71484375 l 1
 67.580078125 592.578125 l 1
 88.3623046875 682.985351562 l 1
 148 735 l 1
 175.591796875 698.633789062 l 1
 133.108398438 664.358398438 l 1
 117.41796875 592.580078125 l 1
 117.41796875 592.580078125 l 1
 139.693359375 592.580078125 l 1
 169.553710938 562.7109375 l 1
 169.553710938 520.46484375 l 1
 139.688476562 490.60546875 l 1xe0
EndSplineSet
Validated: 5
EndChar

StartChar: quoteleft
Encoding: 8216 8216 158
Width: 246
Flags: HMW
HStem: 493 21G<70 170 70 70> 715 20G<152 152>
VStem: 70 49<493 625 593 625 593 628.5> 70 100<493 593 493 628.5>
LayerCount: 3
Fore
SplineSet
141.188476562 490.60546875 m 1xe0
 141.188476562 490.603515625 l 1
 98.9404296875 490.603515625 l 1
 69.080078125 520.46875 l 1
 69.080078125 562.71484375 l 1
 69.080078125 592.578125 l 1
 89.8623046875 682.985351562 l 1
 149 734 l 1
 177.091796875 698.633789062 l 1
 134.608398438 664.358398438 l 1
 118.91796875 592.580078125 l 1
 118.91796875 592.580078125 l 1
 141.193359375 592.580078125 l 1
 171.053710938 562.7109375 l 1
 171.053710938 520.46484375 l 1
 141.188476562 490.60546875 l 1xe0
EndSplineSet
Validated: 5
EndChar

StartChar: quoteright
Encoding: 8217 8217 159
Width: 246
Flags: HMW
HStem: 478 21G<94 94> 700 20G<76 176 176 176>
VStem: 76 100<620 720> 127 49<588 620>
LayerCount: 3
Fore
SplineSet
104.645507812 722.419921875 m 1xe0
 104.645507812 722.421875 l 1
 146.893554688 722.421875 l 1
 176.75390625 692.556640625 l 1
 176.75390625 650.310546875 l 1
 176.75390625 620.447265625 l 1
 155.971679688 530.040039062 l 1
 96 478 l 5
 68.7421875 514.391601562 l 1
 111.225585938 548.666992188 l 1
 126.916015625 620.4453125 l 1
 126.916015625 620.4453125 l 1
 104.640625 620.4453125 l 1
 74.7802734375 650.314453125 l 1
 74.7802734375 692.560546875 l 1
 104.645507812 722.419921875 l 1xe0
EndSplineSet
Validated: 5
EndChar

StartChar: numbersign
Encoding: 35 35 160
Width: 556
Flags: HMW
HStem: 0 21G<40 129 40 40 220 309 220 220> 205 75<20 98 0 120 209 278 20 188 389 472> 445 75<84 167 64 189 278 347 84 257 458 536> 700 20G<246 336 336 336 426 516 516 516>
LayerCount: 3
Fore
SplineSet
307 -8 m 1
 225 15 l 1
 278 205 l 1
 188 205 l 1
 127 -8 l 1
 44 15 l 1
 98 205 l 1
 0 205 l 1
 0 280 l 1
 120 280 l 1
 167 445 l 1
 64 445 l 1
 64 520 l 1
 189 520 l 1
 249 728.090820312 l 1
 332 704.090820312 l 1
 278 520 l 1
 368 520 l 1
 429 728.090820312 l 1
 512 704 l 1
 458 520 l 1
 556 520 l 1
 556 445 l 1
 437 445 l 1
 389 280 l 1
 492 280 l 1
 492 205 l 1
 368 205 l 1
 307 -8 l 1
257 445 m 1
 209 280 l 1
 300 280 l 1
 347 445 l 1
 257 445 l 1
EndSplineSet
Validated: 1
Colour: ffff00
EndChar

StartChar: guillemotright
Encoding: 187 187 161
Width: 411
Flags: HMW
HStem: 94 21G<40 116 40 40 180 180 180 256> 412 20G<40 116 116 116 180 256 256 256>
LayerCount: 3
Back
SplineSet
116 432 m 5
 231 263 l 5
 116 94 l 5
 40 94 l 5
 134 263 l 5
 40 432 l 5
 116 432 l 5
256 432 m 5
 371 263 l 5
 256 94 l 5
 180 94 l 5
 274 263 l 5
 180 432 l 5
 256 432 l 5
EndSplineSet
Fore
SplineSet
231 263 m 1
 93 59.5 l 1
 40 94 l 1
 134 263 l 1
 40 432 l 1
 93 466 l 1
 231 263 l 1
371 263 m 1
 231 59.5 l 1
 180 94 l 1
 274 263 l 1
 180 432 l 1
 234 466 l 1
 371 263 l 1
EndSplineSet
Validated: 1
Colour: ffff00
EndChar

StartChar: guillemotleft
Encoding: 171 171 162
Width: 411
Flags: HMW
HStem: 94 21G<155 231 155 155 295 371 295 295> 412 20G<155 231 231 231 295 371 371 371>
LayerCount: 3
Fore
SplineSet
180 263 m 5
 318 466 l 5
 371 432 l 5
 277 263 l 5
 371 94 l 5
 318 59.5 l 5
 180 263 l 5
40 263 m 5
 177 466 l 5
 231 432 l 5
 137 263 l 5
 231 94 l 5
 180 59.5 l 5
 40 263 l 5
EndSplineSet
Validated: 1
Colour: ffff00
EndChar

StartChar: guilsinglleft
Encoding: 8249 8249 163
Width: 301
Flags: HMW
HStem: 94 21G<175 261 175 175> 412 20G<175 261 261 261>
LayerCount: 3
Fore
SplineSet
40 263 m 5
 209 476 l 5
 261 432 l 5
 127 263 l 5
 261 94 l 5
 207 53 l 5
 40 263 l 5
EndSplineSet
Validated: 1
EndChar

StartChar: guilsinglright
Encoding: 8250 8250 164
Width: 301
Flags: HMW
HStem: 94 21G<40 126 40 40> 412 20G<40 126 126 126>
LayerCount: 3
Back
SplineSet
126 432 m 5
 261 263 l 5
 126 94 l 5
 40 94 l 5
 174 263 l 5
 40 432 l 5
 126 432 l 5
EndSplineSet
Fore
SplineSet
261 263 m 1
 94 53 l 1
 40 94 l 1
 174 263 l 1
 40 432 l 1
 92 476 l 1
 261 263 l 1
EndSplineSet
Validated: 1
EndChar

StartChar: less
Encoding: 60 60 165
Width: 556
Flags: HMW
HStem: 72 21G<473 473> 607 20G<473 473>
LayerCount: 3
Fore
SplineSet
89.1796875 300.030273438 m 5
 89.1796875 398.969726562 l 5
 432.919921875 606.030273438 l 5
 476.780273438 532.58984375 l 5
 169.759765625 352.049804688 l 5
 478.8203125 168.450195312 l 5
 432.919921875 92.9697265625 l 5
 89.1796875 300.030273438 l 5
EndSplineSet
Validated: 1
Colour: ffff00
EndChar

StartChar: greater
Encoding: 62 62 166
Width: 556
Flags: HMW
HStem: 72 21G<93 93> 607 20G<93 93>
LayerCount: 3
Fore
SplineSet
476.799804688 398.969726562 m 5
 476.799804688 300.030273438 l 5
 136.120117188 93.990234375 l 5
 89.2001953125 169.469726562 l 5
 396.219726562 352.049804688 l 5
 90.2197265625 531.5703125 l 5
 135.099609375 605.009765625 l 5
 476.799804688 398.969726562 l 5
EndSplineSet
Validated: 1
Colour: ffff00
EndChar

StartChar: dollar
Encoding: 36 36 167
Width: 556
Flags: HMW
HStem: -100 21G<236 311 236 236> 800 20G<236 311 311 311>
VStem: 40 94 67 92<513 570.5 513 592> 236 75<-100 -14 -100 -11 -100 -11 72 321 435 651 732 820> 418 97<154.5 222>
LayerCount: 3
Back
SplineSet
236 732 m 5xdc
 236 820 l 5
 311 820 l 5
 311 732 l 5
 417 717 484 647 493 514 c 5
 461 512 429 509 397 507 c 5
 389 584 368 636 311 651 c 5
 311 412 l 5
 430 382 515 321 515 199 c 4
 515 72 430 -8 311 -14 c 5
 311 -100 l 5
 236 -100 l 5
 236 -11 l 5
 107 8 49 94 40 220 c 5
 71 223 103 225 134 228 c 5xec
 140 138 176 89 236 72 c 5
 236 340 l 5
 88 382 67 459 67 531 c 4
 67 653 147 719 236 732 c 5xdc
418 194 m 4
 418 250 390 291 334 313 c 4
 326 316 318 318 311 321 c 5
 311 66 l 5
 374 73 418 115 418 194 c 4
159 537 m 4
 159 489 185 455 236 435 c 5
 236 651 l 5
 190 639 159 604 159 537 c 4
236 732 m 1xdc
 236 820 l 1
 311 820 l 1
 311 732 l 1
 417 717 484 647 493 514 c 1
 461 512 429 509 397 507 c 1
 389 584 368 636 311 651 c 1
 311 412 l 1
 430 382 515 321 515 199 c 0
 515 72 430 -8 311 -14 c 1
 311 -100 l 1
 236 -100 l 1
 236 -11 l 1
 107 8 49 94 40 220 c 1
 71 223 103 225 134 228 c 1xec
 140 138 176 89 236 72 c 1
 236 340 l 1
 88 382 67 459 67 531 c 0
 67 653 147 719 236 732 c 1xdc
418 194 m 0
 418 250 390 291 334 313 c 0
 326 316 318 318 311 321 c 1
 311 66 l 1
 374 73 418 115 418 194 c 0
159 537 m 0
 159 489 185 455 236 435 c 1
 236 651 l 1
 190 639 159 604 159 537 c 0
EndSplineSet
Fore
SplineSet
235.946289062 820 m 1xec
 310.905273438 820 l 1
 310.905273438 732.033203125 l 1
 441.193359375 673.404296875 l 5
 486 534 l 1
 397.038085938 506.987304688 l 1
 374.036132812 607.06640625 l 5
 311.072265625 650.986328125 l 1
 311.072265625 412.015625 l 1
 460.998046875 339.62109375 l 5
 519.500976562 195.76171875 l 5
 460.934570312 40.87109375 l 5
 311.072265625 -14.0625 l 1
 311.072265625 -100.028320312 l 1
 236.112304688 -100.028320312 l 1
 236.112304688 -13.060546875 l 1
 89.1328125 58.408203125 l 5
 46 203 l 1
 134.053710938 227.993164062 l 1
 162.295898438 117.890625 l 5
 236.112304688 66.9873046875 l 1
 236.112304688 339.974609375 l 1
 92.279296875 425.521484375 l 5
 62.7041015625 534.42578125 l 5
 114.859375 678.608398438 l 5
 236.112304688 732.033203125 l 1
 235.946289062 820 l 1xec
235.946289062 435.029296875 m 1
 235.946289062 650.986328125 l 1
 177.90234375 619.729492188 l 5
 156.172851562 540.548828125 l 5
 176.052734375 477.860351562 l 5
 235.946289062 435.029296875 l 1
311.072265625 321.046875 m 1
 311.072265625 65.9833984375 l 1
 390.110351562 97.861328125 l 5
 420.58984375 190.658203125 l 5
 399.157226562 264.4296875 l 5
 334.860351562 312.108398438 l 5
 311.072265625 321.046875 l 1
EndSplineSet
Validated: 1
Colour: ffff00
EndChar

StartChar: Euro
Encoding: 8364 8364 168
Width: 556
Flags: HMW
HStem: -15 78<276.112 358.112 276.112 382.612> 255 75<0.612305 95.6123 0.612305 100.612 0.612305 95.6123 194.612 346.612 194.612 194.612> 395 75<0.612305 95.6123 0.612305 100.612 195.612 346.612> 657 78<276.612 358.112>
VStem: 95.6123 99<255 395>
LayerCount: 3
Back
SplineSet
346 395 m 5
 191 395 l 5
 191 330 l 5
 346 330 l 5
 346 255 l 5
 194 255 l 5
 203 141 233 63 318 63 c 4
 397 63 423 131 437 231 c 5
 529 213 l 5
 503 75 446 -15 318 -15 c 4
 177 -15 116 94 100 255 c 5
 0 255 l 5
 0 330 l 5
 95 330 l 5
 95 395 l 5
 0 395 l 5
 0 470 l 5
 100 470 l 5
 118 628 179 735 318 735 c 4
 446 735 504 644 529 505 c 5
 437 486 l 5
 423 588 397 657 318 657 c 4
 234 657 204 580 195 470 c 5
 346 470 l 5
 346 395 l 5
EndSplineSet
Fore
SplineSet
191 395 m 1
 191 330 l 1
 346 330 l 1
 346 255 l 1
 194 255 l 1
 228.19921875 111.427734375 l 1
 320.444335938 57.08984375 l 1
 406.014648438 104.5390625 l 1
 441.89453125 228.463867188 l 1
 533 202 l 1
 467.165039062 41.0498046875 l 1
 320.530273438 -22.4296875 l 1
 161.626953125 53.6806640625 l 1
 100 255 l 1
 0 255 l 1
 0 330 l 1
 95 330 l 1
 95 395 l 1
 0 395 l 1
 0 470 l 1
 100 470 l 1
 163.158203125 667.791992188 l 1
 320.530273438 742.499023438 l 1
 467.547851562 678.380859375 l 1
 533 515 l 5
 441.89453125 488.54296875 l 1
 406.078125 614.797851562 l 1
 320.444335938 662.978515625 l 1
 229.049804688 609.661132812 l 1
 195 470 l 1
 346 470 l 1
 346 395 l 1
 191 395 l 1
EndSplineSet
Validated: 1
EndChar

StartChar: asciicircum
Encoding: 94 94 169
Width: 556
Flags: HMW
HStem: 470 21G<90 188 90 90 364 364> 700 20G<229 326 326 326>
LayerCount: 3
Back
SplineSet
233 728.090820312 m 5
 321 728.090820312 l 5
 444 510 l 5
 364 470 l 5
 277 641 l 5
 188 470 l 5
 110 506 l 5
 233 728.090820312 l 5
EndSplineSet
Fore
SplineSet
254 750 m 1
 296 750 l 1
 434 507.840820312 l 1
 384 479.840820312 l 1
 277.02116478 641.33128809 l 1
 169.379882812 478.840820312 l 1
 119.379882812 506.840820312 l 1
 254 750 l 1
EndSplineSet
Validated: 1
Colour: ffff00
EndChar

StartChar: afii10103
Encoding: 1110 1110 170
Width: 220
Flags: HMW
HStem: 0 21G<65 155 65 65> 500 20G<65 155 155 155> 619 101<65 155 65 155>
VStem: 65 90<0 520 619 720>
LayerCount: 3
Back
SplineSet
155 619 m 5
 65 619 l 5
 65 720 l 5
 155 720 l 5
 155 619 l 5
155 0 m 5
 65 0 l 5
 65 520 l 5
 155 520 l 5
 155 0 l 5
EndSplineSet
Fore
SplineSet
133.280273438 606.940429688 m 5
 87.0498046875 606.94140625 l 5
 54.197265625 642.686523438 l 5
 54.2197265625 693.490234375 l 5
 86.4990234375 729.840820312 l 5
 132.729492188 729.83984375 l 5
 165.889648438 693.390625 l 5
 165.809570312 642.541015625 l 5
 133.280273438 606.940429688 l 5
155 0 m 5
 65 0 l 5
 65 520 l 5
 155 520 l 5
 155 0 l 5
EndSplineSet
Validated: 1
EndChar

StartChar: afii10055
Encoding: 1030 1030 171
Width: 255
Flags: HMW
HStem: 0 21G<80 175 80 80> 700 20G<80 175 175 175>
VStem: 80 95<0 720>
LayerCount: 3
Back
SplineSet
175 0 m 5
 80 0 l 5
 80 720 l 5
 175 720 l 5
 175 0 l 5
EndSplineSet
Fore
SplineSet
80 720 m 5
 175 720 l 5
 175 0 l 5
 80 0 l 5
 80 720 l 5
EndSplineSet
Validated: 1
Colour: ffff00
EndChar

StartChar: afii10102
Encoding: 1109 1109 172
Width: 493
Flags: HMW
HStem: -15 75<208 276.5 208 300> 460 75<201.5 272.5>
VStem: 40 86<373.5 412 373.5 435.5> 368 90<106 155>
LayerCount: 3
Back
SplineSet
35 150 m 5
 122 163 l 5
 130 108 165 60 251 60 c 4
 302 60 368 77 368 135 c 4
 368 175 350 196 297 210 c 6
 170 244 l 6
 101 263 40 295 40 381 c 4
 40 490 134 535 241 535 c 4
 365 535 430 474 438 385 c 5
 352 373 l 5
 344 430 306 460 239 460 c 4
 164 460 126 433 126 391 c 4
 126 356 159 339 190 331 c 6
 330 293 l 6
 395 275 458 240 458 143 c 4
 458 28 352 -15 248 -15 c 4
 121 -15 43 45 35 150 c 5
EndSplineSet
Fore
SplineSet
119.426757812 161.098632812 m 5
 155.391601562 87.53125 l 5
 250.997070312 56.0634765625 l 5
 330.146484375 72.12890625 l 5
 370.321289062 132.522460938 l 5
 354.36328125 180.668945312 l 5
 294 211 l 4
 165.859375 244.896484375 l 5
 75.626953125 287.94140625 l 5
 35.6533203125 383.416992188 l 5
 97.2607421875 503.674804688 l 5
 240.706054688 540.501953125 l 5
 385.502929688 498.061523438 l 5
 429.541015625 410.961914062 l 5
 353.822265625 375.251953125 l 5
 318.791992188 441.419921875 l 5
 237.283203125 463.650390625 l 5
 152.447265625 444.821289062 l 5
 123.508789062 393.537109375 l 5
 145.602539062 352 l 5
 213 325 l 4
 334.2265625 292.227539062 l 5
 421.828125 247.21875 l 5
 462.258789062 140.516601562 l 5
 394.931640625 15.9541015625 l 5
 247.936523438 -20.6513671875 l 5
 93.8798828125 23.3193359375 l 5
 42.9609375 125.361328125 l 5
 119.426757812 161.098632812 l 5
EndSplineSet
Validated: 1
EndChar

StartChar: afii10054
Encoding: 1029 1029 173
Width: 665
Flags: HMW
HStem: -15 80<294.5 403 294.5 418.5> 510 225 655 80<295.5 386.5>
VStem: 50 94<230 238> 77 92<518.5 579 518.5 599.5> 523 102<150.5 217>
LayerCount: 3
Fore
SplineSet
139.908203125 235.608398438 m 5xb4
 202.823242188 103.391601562 l 5
 345.982421875 59.1318359375 l 5
 470.9609375 95.4814453125 l 5
 516.334960938 190.702148438 l 5
 495.990234375 255.067382812 l 5
 432.200195312 299.87109375 l 5
 222.576171875 359.014648438 l 5
 97.8408203125 436.791015625 l 5
 71.7841796875 534.469726562 l 5
 151.463867188 690.8828125 l 5
 323.698242188 742.499023438 l 5
 518.237304688 687.18359375 l 5
 584.828125 542.579101562 l 5
 500.345703125 509.9765625 l 5
 451.623046875 620.666992188 l 5
 327.952148438 660.9375 l 5
 218.228515625 632.879882812 l 5
 165.848632812 540.592773438 l 5
 182.791992188 488.73046875 l 5
 233.49609375 454.141601562 l 4
 440.130859375 392.608398438 l 5
 570.595703125 324.82421875 l 5
 620.689453125 195.805664062 l 5
 534.099609375 30.4619140625 l 5
 350.234375 -22.4296875 l 5
 132.232421875 40.1572265625 l 5
 56.46875 199.859375 l 5
 139.908203125 235.608398438 l 5xb4
EndSplineSet
Validated: 1
EndChar

StartChar: afii10105
Encoding: 1112 1112 174
Width: 220
Flags: HMW
HStem: -210 79<1 31 -3 69> 500 20G<65 155 155 155> 619 101<65 155 65 155>
VStem: 65 90<-26 520 619 720>
LayerCount: 3
Back
SplineSet
-52 -200 m 5
 -34 -125 l 5
 -17 -130 -8 -131 2 -131 c 4
 60 -131 65 -79 65 -26 c 6
 65 520 l 5
 155 520 l 5
 155 -28 l 6
 155 -134 125 -210 13 -210 c 4
 -11 -210 -30 -206 -52 -200 c 5
155 619 m 5
 65 619 l 5
 65 720 l 5
 155 720 l 5
 155 619 l 5
EndSplineSet
Fore
SplineSet
133.280273438 606.940429688 m 5
 87.0498046875 606.94140625 l 5
 54.197265625 642.686523438 l 5
 54.2197265625 693.490234375 l 5
 86.4990234375 729.840820312 l 5
 132.729492188 729.83984375 l 5
 165.889648438 693.390625 l 5
 165.809570312 642.541015625 l 5
 133.280273438 606.940429688 l 5
-34.15234375 -124.903320312 m 5
 12 -132 l 6
 55.201171875 -98.322265625 l 5
 64.98828125 12.1337890625 l 6
 64.98828125 520 l 5
 154.956054688 520 l 5
 154.5390625 -29.8408203125 l 5
 125.9453125 -158.731445312 l 5
 12.9541015625 -210.002929688 l 5
 -52 -199.997070312 l 5
 -34.15625 -124.870117188 l 5
 -34.15234375 -124.903320312 l 5
EndSplineSet
Validated: 1
EndChar

StartChar: afii10057
Encoding: 1032 1032 175
Width: 516
Flags: HMW
HStem: -15 80<181.5 272 181.5 293> 700 20G<341 436 436 436>
VStem: 21 86<193 205> 341 95<223 228 228 720>
LayerCount: 3
Back
SplineSet
21 193 m 5
 107 205 l 5
 109 132 139 65 224 65 c 4
 320 65 341 140 341 223 c 6
 341 720 l 5
 436 720 l 5
 436 228 l 6
 436 71 362 -15 224 -15 c 4
 93 -15 18 65 21 193 c 5
EndSplineSet
Fore
SplineSet
102.4375 202.087890625 m 5
 130.322265625 102.78515625 l 5
 221.67578125 59.291015625 l 5
 318.046875 108.109375 l 5
 341 223.903320312 l 5
 341 720 l 5
 436 720 l 5
 436 219 l 5
 382.599609375 41.5078125 l 5
 221.67578125 -22.35546875 l 5
 66.908203125 34.7548828125 l 5
 18.662109375 178.58984375 l 5
 102.4375 202.087890625 l 5
EndSplineSet
Validated: 1
Colour: ffff00
EndChar

StartChar: afii10110
Encoding: 1118 1118 176
Width: 500
Flags: HMW
HStem: -210 79<109.5 121.5 94.5 160.5> 500 20G<10 103 103 103 402 490 490 490> 573 71<232 280 232 306> 573 147<114 306>
LayerCount: 3
Back
SplineSet
61 -200 m 5xd0
 51 -122 l 5xd0
 68 -128 87 -131 102 -131 c 4xe0
 141 -131 167 -110 189 -58 c 6
 212 5 l 5
 10 520 l 5
 103 520 l 5
 254 115 l 5
 402 520 l 5
 490 520 l 5
 276 -56 l 6
 242 -147 203 -210 118 -210 c 4
 101 -210 80 -207 61 -200 c 5xd0
342 720 m 5
 402 720 l 5
 402 635 356 573 256 573 c 4
 156 573 114 636 114 720 c 5
 174 720 l 5
 179 670 208 644 256 644 c 4
 304 644 337 670 342 720 c 5
EndSplineSet
Fore
SplineSet
106 -132 m 5xc0
 152.963867188 -112.497070312 l 5
 191.5 -51.4365234375 l 5
 212.116210938 5.037109375 l 5
 19 498 l 5
 100 528 l 5
 254.056640625 115.017578125 l 5
 405 528 l 5
 482 498 l 5
 275.240234375 -57.53125 l 5
 216.19140625 -167.111328125 l 5
 117.978515625 -210.002929688 l 5
 60.9462890625 -200.080078125 l 5
 77 -127 l 5
 106 -132 l 5xc0
EndSplineSet
Validated: 1
EndChar

StartChar: afii10062
Encoding: 1038 1038 177
Width: 675
Flags: HMW
HStem: -15 84<171.5 204 169.5 239.5> 700 20G<10 112 112 112 541 640 640 640> 753 81<298 366 298 392> 753 167<160 392>
LayerCount: 3
Back
SplineSet
298 196 m 5xd0
 10 720 l 5
 112 720 l 5xd0
 344 295 l 5xe0
 541 720 l 5
 640 720 l 5
 372 159 l 6
 325 60 295 -15 184 -15 c 4
 159 -15 112 -7 86 26 c 5
 120 97 l 5
 137 84 155 69 184 69 c 4
 224 69 249 89 274 144 c 6
 298 196 l 5xd0
438 920 m 5
 508 920 l 5
 508 835 452 753 332 753 c 4
 212 753 160 836 160 920 c 5
 230 920 l 5
 235 870 264 834 332 834 c 4
 400 834 433 870 438 920 c 5
EndSplineSet
Fore
SplineSet
29 685 m 1xc0
 107 728 l 1
 343.966796875 295.005859375 l 1
 544.830078125 728 l 1
 624 686 l 5
 368.575195312 153.032226562 l 1
 303.7265625 34.5185546875 l 1
 183.264648438 -16.33203125 l 1
 116.465820312 3.3828125 l 1
 86.708984375 28.0107421875 l 1
 119.754882812 97.0166015625 l 1
 170.557617188 72.53515625 l 1
 226.903320312 83.9072265625 l 1
 256.861328125 118.921875 l 1
 297.7734375 195.990234375 l 1
 29 685 l 1xc0
501.280273438 895.149414062 m 1
 467.583007812 803.994140625 l 1
 331.918945312 751.348632812 l 1
 198.37109375 804.376953125 l 1
 166.719726562 895.149414062 l 1
 227.904296875 921.701171875 l 1
 255.842773438 858.680664062 l 1
 334.196289062 834.62890625 l 1
 410.163085938 858.680664062 l 1
 440.100585938 921.701171875 l 1
 501.280273438 895.149414062 l 1
EndSplineSet
Validated: 1
EndChar

StartChar: afii10056
Encoding: 1031 1031 178
Width: 255
Flags: HMW
HStem: 0 21G<80 175 80 80> 700 20G<80 175 175 175> 819 101<8 98 8 98 8 158 158 248>
VStem: 8 90<819 920> 80 95<0 720> 158 90<819 920>
LayerCount: 3
Back
SplineSet
175 0 m 5xf4
 80 0 l 5
 80 720 l 5
 175 720 l 5
 175 0 l 5xf4
98 819 m 5
 8 819 l 5
 8 920 l 5
 98 920 l 5
 98 819 l 5
248 819 m 5
 158 819 l 5xe8
 158 920 l 5
 248 920 l 5
 248 819 l 5
EndSplineSet
Fore
SplineSet
236.390625 808.100585938 m 1xe0
 190.16015625 808.1015625 l 1
 157.307617188 843.846679688 l 1
 157.330078125 894.650390625 l 1
 189.609375 931.000976562 l 1
 235.83984375 931 l 1
 269 894.55078125 l 1
 268.919921875 843.701171875 l 1
 236.390625 808.100585938 l 1xe0
65.80078125 808.100585938 m 5
 19.5703125 808.1015625 l 5
 -13.2822265625 843.846679688 l 5
 -13.259765625 894.650390625 l 5
 19.01953125 931.000976562 l 5
 65.25 931 l 5
 98.41015625 894.55078125 l 5
 98.330078125 843.701171875 l 5
 65.80078125 808.100585938 l 5
80 720 m 1xe8
 175 720 l 1
 175 0 l 1
 80 0 l 1
 80 720 l 1xe8
EndSplineSet
Validated: 1
Colour: ffff00
EndChar

StartChar: afii10104
Encoding: 1111 1111 179
Width: 220
Flags: HMW
HStem: 0 21G<65 155 65 65> 500 20G<65 155 155 155> 619 101<-7 83 -7 83 -7 137 137 227>
VStem: -7 90<619 720> 65 90<0 520> 137 90<619 720>
LayerCount: 3
Back
SplineSet
83 619 m 5xf4
 -7 619 l 5
 -7 720 l 5
 83 720 l 5
 83 619 l 5xf4
155 0 m 5
 65 0 l 5xe8
 65 520 l 5
 155 520 l 5
 155 0 l 5
227 619 m 5
 137 619 l 5xf4
 137 720 l 5
 227 720 l 5
 227 619 l 5
EndSplineSet
Fore
SplineSet
216.0703125 608.249023438 m 1xe0
 169.83984375 608.25 l 1
 136.987304688 643.995117188 l 1
 137.009765625 694.798828125 l 1
 169.2890625 731.149414062 l 1
 215.51953125 731.1484375 l 1
 248.6796875 694.69921875 l 1
 248.599609375 643.849609375 l 1
 216.0703125 608.249023438 l 1xe0
50.23046875 608.249023438 m 5
 4 608.25 l 5
 -28.8525390625 643.995117188 l 5
 -28.830078125 694.798828125 l 5
 3.44921875 731.149414062 l 5
 49.6796875 731.1484375 l 5
 82.83984375 694.69921875 l 5
 82.759765625 643.849609375 l 5
 50.23046875 608.249023438 l 5
155 0 m 1xe8
 65 0 l 1
 65 520 l 1
 155 520 l 1
 155 0 l 1xe8
EndSplineSet
Validated: 1
EndChar

StartChar: braceright
Encoding: 125 125 180
Width: 319
Flags: HMW
HStem: -110 69<75 76 76 105 40 143> 755 69<40 143 75 76>
VStem: 40 189<-100 72 -41 72> 139 90<64 72 72 237 457 477 477 642> 139 160<64 387 257 387 327 650>
LayerCount: 3
Back
SplineSet
40 755 m 5xe0
 40 814 l 5
 51 819 63 824 87 824 c 4
 199 824 229 748 229 642 c 6
 229 477 l 6xe0
 229 410 264 387 299 387 c 5
 299 327 l 5xc8
 264 327 229 304 229 237 c 6
 229 72 l 6
 229 -34 199 -110 87 -110 c 4
 63 -110 51 -105 40 -100 c 5
 40 -41 l 5xe0
 76 -41 l 6
 134 -41 139 11 139 64 c 6
 139 257 l 6
 139 320 179 344 209 357 c 5
 179 370 139 394 139 457 c 6
 139 650 l 6xd0
 139 703 134 755 76 755 c 6
 40 755 l 5xe0
EndSplineSet
Fore
SplineSet
37.41015625 822.924804688 m 5xe0
 87.09375 832.229492188 l 5
 200.533203125 780.75 l 5
 230.045898438 643.428710938 l 5
 230.641601562 477.184570312 l 5
 252.387695312 407.581054688 l 5
 301.578125 387.3046875 l 5
 301.578125 326.069335938 l 5
 252.387695312 305.78515625 l 5
 230.051757812 230.262695312 l 5
 229.193359375 62.0439453125 l 5
 200.53515625 -67.4599609375 l 5
 85.2939453125 -119.755859375 l 5
 37.412109375 -109.635742188 l 5
 51.6904296875 -46.904296875 l 5
 86.0400390625 -42.1923828125 l 4
 128.552734375 -16.1328125 l 5
 138.534179688 99.185546875 l 4
 139.21484375 256.415039062 l 5
 164.416015625 325.73828125 l 5
 210.01171875 356.517578125 l 5
 162.162109375 390.272460938 l 5
 138.569335938 462.446289062 l 5
 137.8046875 661.255859375 l 4
 128.6171875 729.166992188 l 5
 72.3251953125 762.455078125 l 5
 52.7099609375 762.455078125 l 5
 37.4765625 822.924804688 l 5
 37.41015625 822.924804688 l 5xe0
EndSplineSet
Validated: 1
Colour: ffff00
EndChar

StartChar: braceleft
Encoding: 123 123 181
Width: 319
Flags: HMW
HStem: -110 69<243 244> 755 69<214 243 243 244 176 279>
VStem: 20 160 90 90<72 237 237 257 477 642 642 650> 90 189<-100 237>
LayerCount: 3
Back
SplineSet
279 814 m 5xe0
 279 755 l 5
 243 755 l 6
 185 755 180 703 180 650 c 6
 180 457 l 6
 180 394 140 370 110 357 c 5xc8
 140 344 180 320 180 257 c 6
 180 64 l 6xe0
 180 11 185 -41 243 -41 c 6
 279 -41 l 5
 279 -100 l 5xc8
 268 -105 256 -110 232 -110 c 4
 120 -110 90 -34 90 72 c 6
 90 237 l 6xd0
 90 304 55 327 20 327 c 5
 20 387 l 5
 55 387 90 410 90 477 c 6
 90 642 l 6
 90 748 120 824 232 824 c 4
 256 824 268 819 279 814 c 5xe0
EndSplineSet
Fore
SplineSet
233.094726562 755.513671875 m 0xe0
 190.551757812 729.454101562 l 1
 180.6015625 614.13671875 l 0
 179.920898438 456.907226562 l 1
 154.688476562 387.583007812 l 1
 109.125976562 356.8046875 l 1
 156.912109375 323.047851562 l 1
 180.567382812 250.875976562 l 1
 181.33203125 52.06640625 l 0
 190.490234375 -15.8798828125 l 1
 246.813476562 -49.1328125 l 1
 269.329101562 -48.966796875 l 5
 281.663085938 -109.34765625 l 1
 231.895507812 -118.65234375 l 1
 118.444335938 -67.1728515625 l 1
 88.857421875 70.1474609375 l 1
 88.26171875 236.392578125 l 1
 66.5244140625 306.073242188 l 1
 17.4091796875 326.357421875 l 1
 17.4091796875 387.591796875 l 1
 66.5244140625 407.868164062 l 1
 88.8505859375 483.314453125 l 1
 89.7099609375 651.533203125 l 1
 118.440429688 781.036132812 l 1
 233.69140625 833.333007812 l 1
 281.659179688 823.211914062 l 1
 270.369140625 760.913085938 l 1
 233.094726562 755.513671875 l 0xe0
EndSplineSet
Validated: 1
Colour: ffff00
EndChar

StartChar: afii10101
Encoding: 1108 1108 182
Width: 524
Flags: HMW
HStem: -15 75<237 303.5 237 329> 225 75<127 319 127 319 126 319> 460 75<237.5 303.5>
LayerCount: 3
Back
SplineSet
319 300 m 5
 319 225 l 5
 126 225 l 5
 137 108 201 60 273 60 c 4
 334 60 383 95 402 177 c 5
 489 157 l 5
 461 48 385 -15 273 -15 c 4
 129 -15 35 88 35 260 c 4
 35 432 129 535 273 535 c 4
 385 535 461 471 489 362 c 5
 402 342 l 5
 383 425 334 460 273 460 c 4
 202 460 139 413 127 300 c 5
 319 300 l 5
EndSplineSet
Fore
SplineSet
319.688476562 300.04296875 m 1
 319.772460938 225 l 1
 127.745117188 225 l 1
 176.572265625 95.400390625 l 1
 274.73046875 55.98828125 l 1
 356.62109375 84.2666015625 l 1
 402.736328125 176.97265625 l 1
 478.772460938 138 l 1
 417.048828125 25.5322265625 l 1
 274.73046875 -20.470703125 l 1
 98.3173828125 53.9814453125 l 1
 32 260.020507812 l 1
 93.1083984375 466.059570312 l 1
 264.438476562 540.51171875 l 1
 411.19140625 493.956054688 l 1
 474.772460938 380 l 1
 397.650390625 341.984375 l 1
 350.794921875 435.603515625 l 1
 264.438476562 464.052734375 l 1
 176.009765625 425.662109375 l 1
 127.662109375 300.04296875 l 1
 319.688476562 300.04296875 l 1
EndSplineSet
Validated: 1
EndChar

StartChar: afii10053
Encoding: 1028 1028 183
Width: 734
Flags: HMW
HStem: -15 80<308.5 437 308.5 465> 325 85<152 459 152 459 151 459> 655 80<315.5 442>
VStem: 50 101<325 325 325 463.5>
LayerCount: 3
Back
SplineSet
459 410 m 5
 459 325 l 5
 151 325 l 5
 160 175 234 65 383 65 c 4
 491 65 558 132 587 233 c 5
 684 214 l 5
 652 79 547 -15 383 -15 c 4
 163 -15 50 153 50 360 c 4
 50 567 163 735 383 735 c 4
 547 735 653 644 684 505 c 5
 587 486 l 5
 566 586 501 655 383 655 c 4
 248 655 167 552 152 410 c 5
 459 410 l 5
EndSplineSet
Fore
SplineSet
396 255 m 1052
459.037109375 324.897460938 m 1,0,-1
 151.110351562 324.897460938 l 1,1,-1
 211.544921875 134.23046875 l 1,2,-1
 383.397460938 59.0126953125 l 1,3,-1
 517.7109375 106.045898438 l 1,4,-1
 591.426757812 230.38671875 l 1,5,-1
 672 181 l 1,6,-1
 587.35546875 42.5908203125 l 1,7,-1
 383.397460938 -22.5478515625 l 1,8,-1
 129.431640625 89.5205078125 l 1,9,-1
 43.796875 359.916015625 l 1,10,-1
 129.431640625 630.380859375 l 1,11,-1
 383.397460938 742.465820312 l 1,12,-1
 587.801757812 678.34765625 l 1,13,-1
 674 536 l 1,14,-1
 591.426757812 488.509765625 l 1,15,-1
 524.50390625 612.978515625 l 1,16,-1
 383.397460938 660.904296875 l 1,17,-1
 219.69921875 590.279296875 l 1,18,-1
 152.02734375 410.029296875 l 1,19,-1
 459.037109375 410.029296875 l 1,20,-1
 459.037109375 324.897460938 l 1,0,-1
EndSplineSet
Validated: 1
EndChar

StartChar: ampersand
Encoding: 38 38 184
Width: 633
Flags: HMW
HStem: -15 80<219.5 280 219.5 295> 0 21G<495 613 495 495> 655 80<240 310.5>
VStem: 40 95<139.5 200 139.5 219.5> 81 91<520 575 520 612.5> 373 91<528 582> 455 89<322 347>
LayerCount: 3
Back
SplineSet
613 0 m 5xb4
 495 0 l 5
 477 20 459 39 441 59 c 5
 394 13 332 -15 258 -15 c 4
 109 -15 40 71 40 174 c 4
 40 265 99 318 164 359 c 5
 162 361 81 431 81 550 c 4xb2
 81 675 171 735 276 735 c 4
 421 735 464 637 464 560 c 4
 464 483 417 416 309 352 c 4
 306 350 302 348 299 346 c 5
 343 297 387 249 431 200 c 5
 448 245 455 297 455 347 c 5x6c
 544 347 l 5
 548 270 530 193 495 130 c 5
 533 86 574 43 613 0 c 5xb4
239 414 m 6
 246 406 l 5
 334 459 373 496 373 560 c 4xac
 373 604 345 655 276 655 c 4
 204 655 172 600 172 550 c 4
 172 490 197 460 239 414 c 6
135 174 m 4
 135 105 188 65 251 65 c 4
 309 65 353 86 384 120 c 5
 330 179 275 239 221 298 c 5xb4
 169 263 135 226 135 174 c 4
EndSplineSet
Fore
SplineSet
440.896484375 58.861328125 m 5x22
 361.029296875 -2.484375 l 1
 257.291015625 -22.5986328125 l 1
 89.1826171875 34.3837890625 l 1
 35.05859375 170.20703125 l 1
 73.4365234375 283.670898438 l 1
 163.904296875 358.951171875 l 1
 118.427734375 411.576171875 l 1
 76.8173828125 553.778320312 l 1
 136.107421875 695.979492188 l 1
 275.831054688 742.500976562 l 1
 427.081054688 682.711914062 l 1
 467.53125 563.983398438 l 1
 429.85546875 452.909179688 l 1
 299.065429688 345.943359375 l 1
 299.065429688 345.943359375 l 1
 431.057617188 199.942382812 l 1
 452.690429688 269.833984375 l 1
 455.071289062 346.943359375 l 1
 544 342 l 1
 539.100585938 230.66796875 l 1
 495.01171875 129.90234375 l 1
 567 50 l 1
 502 -8 l 5
 440.896484375 58.861328125 l 5x22
250.0625 58.9638671875 m 1
 328.338867188 73.982421875 l 1
 383.947265625 119.896484375 l 1
 220.9375 297.916015625 l 1
 155.90234375 239.913085938 l 1
 131.9296875 170.20703125 l 1
 166.916015625 88.14453125 l 1
 250.0625 58.9638671875 l 1
343.4453125 481.094726562 m 1
 374.48828125 563.813476562 l 1
 351.418945312 629.088867188 l 1
 275.662109375 660.68359375 l 1
 195.068359375 626.28125 l 1
 169.521484375 553.607421875 l 1
 187.66796875 478.92578125 l 1
 245.868164062 405.810546875 l 1
 245.868164062 405.810546875 l 1
 343.4453125 481.094726562 l 1
EndSplineSet
Validated: 5
Colour: ffff00
EndChar

StartChar: parenleft
Encoding: 40 40 185
Width: 311
Flags: HMW
HStem: -100 21G<228 291 228 228> 800 20G<228 291 291 291>
VStem: 50 95<275.5 444.5>
LayerCount: 3
Back
SplineSet
50 360 m 4
 50 529 123 696 228 820 c 5
 291 820 l 5
 195 670 145 541 145 360 c 4
 145 179 195 50 291 -100 c 5
 228 -100 l 5
 123 24 50 191 50 360 c 4
EndSplineSet
Fore
SplineSet
224.30859375 829.200195312 m 1
 274.26953125 800.640625 l 1
 177.436523438 606.458007812 l 1
 139.685546875 359.985351562 l 1
 177.436523438 113.548828125 l 1
 274.26953125 -80.6396484375 l 1
 224.30859375 -109.228515625 l 1
 93.3662109375 108.15625 l 1
 42.73046875 359.985351562 l 1
 93.3662109375 611.875 l 1
 224.30859375 829.200195312 l 1
EndSplineSet
Validated: 1
Colour: ffff00
EndChar

StartChar: parenright
Encoding: 41 41 186
Width: 311
Flags: HMW
HStem: -100 21G<20 83 20 20> 800 20G<20 83 83 83>
VStem: 166 95<275.5 444.5 275.5 450.5>
LayerCount: 3
Back
SplineSet
261 360 m 4
 261 191 188 24 83 -100 c 5
 20 -100 l 5
 116 50 166 179 166 360 c 4
 166 541 116 670 20 820 c 5
 83 820 l 5
 188 696 261 529 261 360 c 4
EndSplineSet
Fore
SplineSet
81.755859375 -109.228515625 m 1
 30.7197265625 -82.6796875 l 1
 128.596679688 113.513671875 l 1
 166.380859375 359.985351562 l 1
 128.596679688 606.458007812 l 1
 30.7197265625 802.680664062 l 1
 81.755859375 829.200195312 l 1
 212.731445312 611.815429688 l 1
 263.334960938 359.985351562 l 1
 212.731445312 108.15625 l 1
 81.755859375 -109.228515625 l 1
EndSplineSet
Validated: 1
Colour: ffff00
EndChar

StartChar: degree
Encoding: 176 176 187
Width: 360
Flags: HMW
HStem: 475 62<161.5 199 161.5 216> 672 63<161.5 199>
VStem: 50 62<586 623.5 586 640.5> 247 63<586 623.5>
LayerCount: 3
Back
SplineSet
50 605 m 4
 50 676 109 735 180 735 c 4
 252 735 310 676 310 605 c 4
 310 533 252 475 180 475 c 4
 109 475 50 533 50 605 c 4
112 605 m 4
 112 567 143 537 180 537 c 4
 218 537 247 567 247 605 c 4
 247 642 218 672 180 672 c 4
 143 672 112 642 112 605 c 4
EndSplineSet
Fore
SplineSet
180.158203125 735 m 1
 272.106445312 696.611328125 l 1
 310.149414062 605.008789062 l 1
 272.168945312 513.03125 l 1
 180.158203125 475.017578125 l 1
 88.408203125 513.03125 l 1
 50 605.008789062 l 1
 88.533203125 696.611328125 l 1
 180.158203125 735 l 1
180.158203125 536.969726562 m 1
 227.831054688 556.72265625 l 1
 247.11328125 604.92578125 l 1
 227.831054688 652.327148438 l 1
 180.158203125 671.963867188 l 1
 132.296875 652.327148438 l 1
 112.202148438 604.92578125 l 1
 132.296875 556.72265625 l 1
 180.158203125 536.969726562 l 1
EndSplineSet
Validated: 1
Colour: ffff00
EndChar

StartChar: copyright
Encoding: 169 169 188
Width: 590
Flags: HMW
HStem: -15 70<235.5 354.5 235.5 371> 107 66<273.5 311 273.5 329> 346 66<273.5 310.5> 465 70<235.5 354.5>
VStem: 35 76<203.5 316.5 203.5 341> 162 66<234.5 285 234.5 300.5> 479 76<203.5 316.5>
LayerCount: 3
Back
SplineSet
35 260 m 4
 35 422 143 535 295 535 c 4
 447 535 555 422 555 260 c 4
 555 98 447 -15 295 -15 c 4
 143 -15 35 98 35 260 c 4
111 260 m 4
 111 147 176 55 295 55 c 4
 414 55 479 147 479 260 c 4
 479 373 414 465 295 465 c 4
 176 465 111 373 111 260 c 4
228 260 m 4
 228 209 252 173 295 173 c 4
 327 173 348 193 356 224 c 5
 421 211 l 5
 406 142 363 107 295 107 c 4
 209 107 162 179 162 260 c 4
 162 341 209 412 295 412 c 4
 363 412 406 377 421 309 c 5
 356 296 l 5
 347 326 326 346 295 346 c 4
 252 346 228 310 228 260 c 4
EndSplineSet
Fore
SplineSet
294.899414062 535 m 1
 481.892578125 458.255859375 l 1
 554.881835938 260.008789062 l 1
 481.892578125 61.76171875 l 1
 294.899414062 -14.982421875 l 1
 107.979492188 61.76171875 l 1
 35 260.008789062 l 1
 107.916992188 458.255859375 l 1
 294.899414062 535 l 1
294.899414062 54.974609375 m 1
 431.561523438 115.1171875 l 1
 478.921875 259.92578125 l 1
 431.561523438 404.80859375 l 1
 294.899414062 464.959960938 l 1
 158.26953125 404.80859375 l 1
 110.876953125 259.92578125 l 1
 158.299804688 115.1171875 l 1
 294.899414062 54.974609375 l 1
294.899414062 172.958984375 m 1
 335.229492188 188.150390625 l 1
 355.850585938 223.98828125 l 1
 411 194 l 5
 377.655273438 133.060546875 l 1
 294.732421875 106.920898438 l 1
 196.030273438 153.064453125 l 1
 161.739257812 259.92578125 l 1
 195.967773438 366.319335938 l 1
 294.732421875 411.9296875 l 1
 377.592773438 385.922851562 l 1
 410 328 l 1
 355.850585938 295.946289062 l 1
 332.235351562 332.725585938 l 1
 294.899414062 345.974609375 l 1
 245.24609375 321.7109375 l 1
 228.266601562 258.465820312 l 1
 245.30859375 197.33984375 l 1
 294.899414062 172.958984375 l 1
EndSplineSet
Validated: 1
Colour: ffff00
EndChar

StartChar: registered
Encoding: 174 174 189
Width: 590
Flags: HMW
HStem: -15 70<235.5 354.5 235.5 371> 123 160<192 287 192 287 255 356 255 427> 357 54<255 255 255 286> 465 70<235.5 354.5>
VStem: 35 76<203.5 316.5 203.5 341> 192 63<123 229 123 283 283 357> 335 64<310 336> 479 76<203.5 316.5>
LayerCount: 3
Back
SplineSet
35 260 m 4
 35 422 143 535 295 535 c 4
 447 535 555 422 555 260 c 4
 555 98 447 -15 295 -15 c 4
 143 -15 35 98 35 260 c 4
192 123 m 5
 192 411 l 5
 288 411 l 6
 346 411 399 393 399 327 c 4
 399 283 371 257 333 249 c 5
 364 241 379 215 392 190 c 6
 427 123 l 5
 356 123 l 5
 333 171 l 6
 313 212 299 229 262 229 c 6
 255 229 l 5
 255 123 l 5
 192 123 l 5
255 357 m 5
 255 283 l 5
 287 283 l 6
 322 283 335 298 335 322 c 4
 335 350 314 357 286 357 c 6
 255 357 l 5
111 260 m 4
 111 147 176 55 295 55 c 4
 414 55 479 147 479 260 c 4
 479 373 414 465 295 465 c 4
 176 465 111 373 111 260 c 4
EndSplineSet
Fore
SplineSet
294.982421875 535 m 1
 481.944335938 458.255859375 l 1
 554.96484375 260.008789062 l 1
 481.944335938 61.76171875 l 1
 294.982421875 -14.982421875 l 1
 107.990234375 61.76171875 l 1
 35 260.008789062 l 1
 107.990234375 458.255859375 l 1
 294.982421875 535 l 1
294.982421875 54.974609375 m 1
 431.61328125 115.1171875 l 1
 479.004882812 259.92578125 l 1
 431.612304688 404.80859375 l 1
 294.982421875 464.959960938 l 1
 158.321289062 404.80859375 l 1
 110.959960938 259.92578125 l 1
 158.352539062 115.1171875 l 1
 294.982421875 54.974609375 l 1
261.879882812 228.991210938 m 2
 254.875976562 228.991210938 l 1
 254.875976562 123.013671875 l 1
 191.83984375 123.013671875 l 1
 192.006835938 411.01171875 l 1
 287.978515625 411.01171875 l 1
 365.168945312 393.760742188 l 1
 398.958984375 327.046875 l 1
 380.208984375 274.55078125 l 1
 333.004882812 249.001953125 l 1
 369.233398438 225.864257812 l 1
 391.955078125 189.96875 l 1
 412 152 l 1
 355.850585938 122.9296875 l 1
 333.004882812 170.958007812 l 1
 303.852539062 215.358398438 l 1
 261.879882812 228.991210938 l 2
255.04296875 283.021484375 m 1
 287.061523438 283.021484375 l 1
 324.198242188 293.528320312 l 1
 335.005859375 322.043945312 l 1
 320.998046875 350.060546875 l 1
 285.977539062 357.064453125 l 1
 255.04296875 357.064453125 l 1
 255.04296875 283.021484375 l 1
EndSplineSet
Validated: 1
Colour: ffff00
EndChar

StartChar: trademark
Encoding: 8482 8482 190
Width: 642
Flags: MW
HStem: 432 21G<126 194 126 126 281 349 281 281 415 415 415 479 544 544 544 612> 656 64<30 126 30 387 194 281 194 194>
VStem: 126 68<432 656 432 656> 281 68<432 641> 544 68<432 641 641 641>
LayerCount: 3
Fore
SplineSet
349 432 m 1
 281 432 l 1
 281 656 l 1
 194 656 l 1
 194 432 l 1
 126 432 l 1
 126 656 l 1
 30 656 l 1
 30 720 l 1
 387 720 l 1
 447 521 l 1
 510 720 l 1
 612 720 l 1
 612 432 l 1
 544 432 l 1
 544 641 l 1
 479 432 l 1
 415 432 l 1
 349 641 l 1
 349 432 l 1
EndSplineSet
Validated: 1
EndChar

StartChar: asterisk
Encoding: 42 42 191
Width: 417
Flags: HMW
HStem: 423 21G<268 268> 715 20G<168 250 250 250>
LayerCount: 3
Fore
SplineSet
250.830078125 738.120117188 m 5
 238.58984375 617.759765625 l 5
 349.76953125 664.6796875 l 5
 375.26953125 585.120117188 l 5
 256.950195312 559.620117188 l 5
 336.509765625 468.83984375 l 5
 269.190429688 419.879882812 l 5
 207.990234375 523.919921875 l 5
 144.75 420.900390625 l 5
 77.4296875 469.860351562 l 5
 156.990234375 559.620117188 l 5
 41.73046875 587.16015625 l 5
 67.23046875 666.719726562 l 5
 177.389648438 617.759765625 l 5
 167.190429688 738.120117188 l 5
 250.830078125 738.120117188 l 5
EndSplineSet
Validated: 1
Colour: ffff00
EndChar

StartChar: plusminus
Encoding: 177 177 192
Width: 556
Flags: MW
HStem: 115 75<50 506 50 506> 415 75<50 240 50 240 315 506> 660 20G<240 315 315 315>
VStem: 240 75<254 415 254 415 490 680>
LayerCount: 3
Fore
SplineSet
315 415 m 1
 315 254 l 1
 240 254 l 1
 240 415 l 1
 50 415 l 1
 50 490 l 1
 240 490 l 1
 240 680 l 1
 315 680 l 1
 315 490 l 1
 506 490 l 1
 506 415 l 1
 315 415 l 1
506 115 m 1
 50 115 l 1
 50 190 l 1
 506 190 l 1
 506 115 l 1
EndSplineSet
Validated: 1
Colour: ffff00
EndChar

StartChar: asciitilde
Encoding: 126 126 193
Width: 526
Flags: HMW
HStem: 270 90<326.5 385> 360 90<141 199.5>
LayerCount: 3
Back
SplineSet
30 290 m 5x80
 30 390 l 5
 68 430 117 450 165 450 c 4
 254 450 292 360 361 360 c 4
 419 360 458 390 496 430 c 5
 496 330 l 5
 458 290 409 270 361 270 c 4
 272 270 234 360 165 360 c 4x40
 107 360 68 330 30 290 c 5x80
EndSplineSet
Fore
SplineSet
25.33984375 391.565429688 m 5x00
 90.328125 437.491210938 l 5
 163.034179688 452.799804688 l 5
 270.568359375 406.874023438 l 5
 362.983398438 360.947265625 l 5
 439.484375 381.359375 l 5
 458.83984375 395.680664062 l 5
 500.677734375 330.415039062 l 5
 435.626953125 284.48828125 l 5
 362.983398438 269.1796875 l 5
 255.482421875 315.063476562 l 5
 163.034179688 360.947265625 l 5
 86.533203125 340.578125 l 5
 66.1396484375 325.299804688 l 5
 25.33984375 391.565429688 l 5x00
EndSplineSet
Validated: 1
Colour: ffff00
EndChar

StartChar: grave
Encoding: 96 96 194
Width: 284
Flags: HMW
HStem: 533 21G<163 234 163 163> 700 20G<40 158 158 158>
LayerCount: 3
Fore
SplineSet
136.139648438 776.171875 m 5
 225 563 l 5
 175 535 l 5
 46.3798828125 729.159179688 l 5
 136.139648438 776.171875 l 5
EndSplineSet
Validated: 1
Colour: ffff00
EndChar

StartChar: dagger
Encoding: 8224 8224 195
Width: 364
Flags: MW
HStem: 300 21G<137 227 137 137> 535 75<40 137 40 137 227 324> 700 20G<137 227 227 227>
VStem: 137 90<300 535 300 535 610 720>
LayerCount: 3
Fore
SplineSet
40 535 m 1
 40 610 l 1
 137 610 l 1
 137 720 l 1
 227 720 l 1
 227 610 l 1
 324 610 l 1
 324 535 l 1
 227 535 l 1
 227 300 l 1
 137 300 l 1
 137 535 l 1
 40 535 l 1
EndSplineSet
Validated: 1
EndChar

StartChar: daggerdbl
Encoding: 8225 8225 196
Width: 364
Flags: MW
HStem: 300 21G<137 227 137 137> 400 75<40 137 40 137 227 324> 545 75<40 137 40 137 227 324> 700 20G<137 227 227 227>
VStem: 137 90<300 400 300 400 475 545 620 720>
LayerCount: 3
Fore
SplineSet
324 475 m 1
 324 400 l 1
 227 400 l 1
 227 300 l 1
 137 300 l 1
 137 400 l 1
 40 400 l 1
 40 475 l 1
 137 475 l 1
 137 545 l 1
 40 545 l 1
 40 620 l 1
 137 620 l 1
 137 720 l 1
 227 720 l 1
 227 620 l 1
 324 620 l 1
 324 545 l 1
 227 545 l 1
 227 475 l 1
 324 475 l 1
EndSplineSet
Validated: 1
EndChar

StartChar: bullet
Encoding: 8226 8226 197
Width: 388
Flags: HMW
HStem: 227 247<160 228 160 228.5>
VStem: 70 248<316.5 385>
LayerCount: 3
Back
SplineSet
70 351 m 4
 70 419 126 474 194 474 c 4
 262 474 318 419 318 351 c 4
 318 282 263 227 194 227 c 4
 125 227 70 282 70 351 c 4
EndSplineSet
Fore
SplineSet
193.903320312 476.470703125 m 4
 283.130859375 439.729492188 l 4
 320.37109375 350.938476562 l 4
 283.513671875 261.331054688 l 4
 193.903320312 224.470703125 l 4
 104.336914062 261.331054688 l 4
 67.521484375 350.938476562 l 4
 104.750976562 439.729492188 l 4
 193.903320312 476.470703125 l 4
EndSplineSet
Validated: 1
EndChar

StartChar: paragraph
Encoding: 182 182 198
Width: 556
Flags: HMW
HStem: -100 21G<211 291 211 211 380 380 380 463> 735 85<291 380 291 291 463 544 463 463>
VStem: 211 80<-100 416 416 416> 380 83<-100 735 -100 735>
LayerCount: 3
Back
SplineSet
291 -100 m 5
 211 -100 l 5
 211 416 l 5
 94 419 13 498 13 614 c 4
 13 753 110 820 244 820 c 6
 544 820 l 5
 544 735 l 5
 463 735 l 5
 463 -100 l 5
 380 -100 l 5
 380 735 l 5
 291 735 l 5
 291 -100 l 5
EndSplineSet
Fore
SplineSet
210.947265625 -100.028320312 m 1
 210.947265625 415.934570312 l 1
 68.5859375 469.584960938 l 5
 12.34765625 613.827148438 l 5
 78.8984375 772.0703125 l 5
 250.422851562 820 l 1
 544.0546875 820 l 1
 544.0546875 734.951171875 l 1
 463.008789062 734.951171875 l 1
 463.008789062 -100.028320312 l 1
 380.043945312 -100.028320312 l 1
 380.043945312 735.034179688 l 1
 291.076171875 735.034179688 l 1
 291.076171875 -99.9453125 l 1
 210.947265625 -100.028320312 l 1
EndSplineSet
Validated: 1
Colour: ffff00
EndChar

StartChar: afii61352
Encoding: 8470 8470 199
Width: 1034
Flags: HMW
HStem: 0 21G<80 171 80 80 547 547 547 644> 165 75<712 1004 712 1004> 165 130<815 901 815 1004 712 901> 370 180<842.5 875.5 842.5 875.5> 700 20G<80 177 177 177 553 644 644 644>
VStem: 80 91<0 566> 553 91<154 720 0 720> 553 159<165 240 408.5 511.5> 789 138<428 492>
LayerCount: 3
Back
SplineSet
712 460 m 4xde80
 712 563 772 625 858 625 c 4
 944 625 1004 563 1004 460 c 4
 1004 357 944 295 858 295 c 4
 772 295 712 357 712 460 c 4xde80
789 460 m 4
 789 396 823 370 858 370 c 4
 893 370 927 396 927 460 c 4
 927 524 893 550 858 550 c 4
 827 550 789 524 789 460 c 4
1004 165 m 5
 712 165 l 5
 712 240 l 5
 1004 240 l 5xdd80
 1004 165 l 5
171 0 m 5
 80 0 l 5
 80 720 l 5
 177 720 l 5
 553 154 l 5
 553 720 l 5
 644 720 l 5
 644 0 l 5
 547 0 l 5
 171 566 l 5xbd80
 171 0 l 5
EndSplineSet
Fore
SplineSet
80 0.0029296875 m 5x9c80
 80 720 l 5
 176.97265625 720 l 5
 552.938476562 154.0078125 l 5
 552.938476562 720 l 5
 643.990234375 720 l 5
 643.990234375 0.0029296875 l 5
 547.018554688 0.0029296875 l 5
 170.96875 565.995117188 l 5
 170.96875 0.0029296875 l 5
 80 0.0029296875 l 5x9c80
857.947265625 625.028320312 m 5
 963.194335938 581.13671875 l 5
 1004.03027344 460.017578125 l 5
 963.194335938 338.897460938 l 5
 857.947265625 295.005859375 l 5
 752.709960938 338.897460938 l 5
 711.946289062 460.017578125 l 5
 752.709960938 581.13671875 l 5
 857.947265625 625.028320312 l 5
711.946289062 165.014648438 m 5
 711.946289062 239.974609375 l 5
 1004.03027344 239.974609375 l 5
 1004.03027344 165.014648438 l 5
 711.946289062 165.014648438 l 5
857.947265625 369.965820312 m 5
 905.599609375 390.977539062 l 5
 926.986328125 460.017578125 l 5
 905.599609375 529.015625 l 5
 857.947265625 549.985351562 l 5
 811.869140625 528.982421875 l 5
 788.990234375 460.017578125 l 5
 810.3359375 391.010742188 l 5
 857.947265625 369.965820312 l 5
EndSplineSet
Validated: 1
EndChar

StartChar: at
Encoding: 64 64 200
Width: 745
Flags: HMW
HStem: -110 75<295.968 406.468 295.968 415.468> 54 71<338.468 384.468 549.468 589.468> 395 71<338.468 386.968 306.968 388.468> 555 75<295.968 450.468>
VStem: 32.9678 85<176.5 343.5 176.5 363.5> 193.968 78<215.5 304.5 215.5 320.5> 460.968 71<215.5 304.5> 622.968 85<239 363.5>
LayerCount: 3
Back
SplineSet
534 455 m 5
 534 199 l 6
 534 192 532 125 571 125 c 4
 612 125 625 198 625 280 c 4
 625 447 532 555 373 555 c 4
 223 555 120 427 120 260 c 4
 120 93 213 -35 383 -35 c 4
 434 -35 490 -20 528 16 c 5
 593 -36 l 5
 542 -88 452 -110 383 -110 c 4
 163 -110 35 53 35 260 c 4
 35 467 163 630 373 630 c 4
 582 630 710 487 710 280 c 4
 710 179 675 54 572 54 c 4
 529 54 485 87 478 128 c 5
 466 106 l 5
 444 75 410 54 363 54 c 4
 255 54 196 138 196 260 c 4
 196 381 255 466 363 466 c 4
 415 466 451 439 474 402 c 5
 474 455 l 5
 534 455 l 5
463 260 m 4
 463 349 414 395 367 395 c 4
 314 395 274 349 274 260 c 4
 274 171 314 125 367 125 c 4
 420 125 463 171 463 260 c 4
EndSplineSet
Fore
SplineSet
539.435546875 157.342773438 m 5
 573.166992188 122.259765625 l 5
 616.340820312 169.9296875 l 5
 628.193359375 280.366210938 l 5
 560.473632812 484.458007812 l 5
 371.176757812 560.857421875 l 5
 184.82421875 474.28515625 l 5
 113.22265625 259.954101562 l 5
 182.260742188 45.623046875 l 5
 381.296875 -40.94921875 l 5
 460.264648438 -28.7021484375 l 5
 529.282226562 11.1005859375 l 5
 569.877929688 -57.21875 l 5
 495.31640625 -99.6328125 l 5
 381.126953125 -117.493164062 l 5
 119.538085938 -7.9580078125 l 5
 26.2177734375 259.954101562 l 5
 118.2734375 527.866210938 l 5
 371.005859375 637.401367188 l 5
 622.8046875 538.080078125 l 5
 714.688476562 280.451171875 l 5
 683.751953125 126.545898438 l 5
 574.102539062 49.8837890625 l 5
 512.368164062 71.953125 l 5
 478.251953125 125.407226562 l 5
 465.834960938 102.954101562 l 5
 422.864257812 64.5546875 l 5
 360.885742188 49.8837890625 l 5
 234.30078125 108.303710938 l 5
 190.447265625 260.0390625 l 5
 234.30078125 411.392578125 l 5
 360.885742188 470.194335938 l 5
 428.57421875 451.697265625 l 5
 474 402 l 5
 474 455 l 5
 534 455 l 5
 534 198 l 5
 539.435546875 157.342773438 l 5
365.135742188 397.6484375 m 5
 297.4375 362.830078125 l 5
 270.306640625 259.954101562 l 5
 297.4375 157.079101562 l 5
 365.135742188 122.259765625 l 5
 434.323242188 157.079101562 l 5
 462.942382812 259.954101562 l 5
 432.090820312 362.830078125 l 5
 365.135742188 397.6484375 l 5
EndSplineSet
Validated: 1
Colour: ffff00
EndChar

